xetbook-bolditalic.sfdir
StartChar: exclam
Encoding: 33 33 22
Width: 309
Flags: W
HStem: -14 123<102.866 176.049> 642 20G<233.722 283.385>
VStem: 87 104<-0.0130511 94.0029> 208.057 101.943<566.675 660.166>
LayerCount: 2
Fore
SplineSet
271 662 m 2
 295.770507812 662 310 657.784179688 310 637 c 0
 310 630.305664062 308.8125 624.50390625 306.776367188 617.375976562 c 2
 182.782226562 169.399414062 l 1
 182.602539062 168.749023438 l 1
 182.283203125 168.155273438 l 2
 178.340820312 160.833984375 171.674804688 157.287109375 165.359375 157.032226562 c 0
 157.67578125 156.721679688 148 161.392578125 148 171 c 2
 148 171.401367188 l 1
 148.053710938 171.797851562 l 1
 208.056640625 618.825195312 l 2
 213.137695312 655.40625 217.443359375 662 250 662 c 2
 271 662 l 2
144 109 m 0
 172.017578125 109 191 85.2900390625 191 54 c 0
 191 16.8115234375 167.338867188 -14 135 -14 c 0
 105.072265625 -14 87 9.7646484375 87 41 c 0
 87 42.8828125 87.29296875 47.1650390625 88.142578125 50.4775390625 c 0
 92.7646484375 83.38671875 113.30078125 109 144 109 c 0
EndSplineSet
Validated: 524289
EndChar
StartChar: quotedbl
Encoding: 34 34 23
Width: 448
Flags: W
HStem: 352 310
VStem: 184.703 135.76<555.433 618.204> 381.644 129.025<546.552 624.163>
LayerCount: 2
Fore
SplineSet
465.668945312 662 m 0
 492.419921875 662 510.668945312 645.356445312 510.668945312 619 c 0
 510.668945312 598.32421875 491.291992188 548.869140625 471.123046875 504.498046875 c 2
 402.114257812 355.478515625 l 1
 400.502929688 352 l 1
 396.668945312 352 l 1
 365.757253784 352 l 1
 358.245485293 352 l 1
 358.997436209 358.600585938 l 1
 375.981574623 507.584960938 l 1
 381.644428508 558.596679688 l 2
 388.573435039 619.786132812 419.114257812 662 465.668945312 662 c 0
271.668945312 662 m 0
 298.878960461 662 320.463269186 644.334960938 320.463269186 618 c 0
 320.463269186 607.502929688 318.845468906 599.044921875 312.100026863 583.8671875 c 0
 306.353131406 568.642578125 293.679441037 546.266601562 274.124023438 505.5 c 2
 206.133789062 355.522460938 l 1
 204.537109375 352 l 1
 200.668945312 352 l 1
 174.668945312 352 l 1
 168 352 l 1
 168.703125 358.631835938 l 1
 184.703125 509.633789062 l 2
 196.618164062 621.83984375 213.478515625 662 271.668945312 662 c 0
EndSplineSet
Validated: 524289
EndChar
StartChar: numbersign
Encoding: 35 35 24
Width: 704
Flags: W
HStem: 176 69<44 144.66 227.422 423.931 506.364 658> 419 69<44 196.669 281.125 475.651 558.367 658>
LayerCount: 2
Fore
SplineSet
658 176 m 1
 652 176 l 1
 492.466775294 176 l 1
 451.097424249 -20.166015625 l 1
 450.107659271 -25 l 1
 445.016574586 -25 l 1
 386.127071823 -25 l 1
 378.472283969 -25 l 1
 380.06337405 -17.7529296875 l 1
 423.930847505 182 l 1
 213.51649905 182 l 1
 172.147148006 -20.166015625 l 1
 171.157383028 -25 l 1
 166.066298343 -25 l 1
 110 -25 l 1
 102.66015625 -25 l 1
 104.120117188 -17.806640625 l 1
 144.66015625 176 l 1
 50 176 l 1
 44 176 l 1
 44 182 l 1
 44 239 l 1
 44 245 l 1
 50 245 l 1
 158.12109375 245 l 1
 196.669306802 419 l 1
 50 419 l 1
 44 419 l 1
 44 425 l 1
 44 482 l 1
 44 488 l 1
 50 488 l 1
 211.641898308 488 l 1
 255.045261783 691.21484375 l 1
 256.067312673 696 l 1
 261.116022099 696 l 1
 317.939226519 696 l 1
 325.55063018 696 l 1
 324.009986835 688.78515625 l 1
 281.125215815 488 l 1
 489.55902538 488 l 1
 532.962388855 691.21484375 l 1
 533.984439744 696 l 1
 539 696 l 1
 594 696 l 1
 601.3671875 696 l 1
 599.875976562 688.78515625 l 1
 558.3671875 488 l 1
 652 488 l 1
 658 488 l 1
 658 482 l 1
 658 425 l 1
 658 419 l 1
 652 419 l 1
 544.87890625 419 l 1
 506.363842369 245 l 1
 652 245 l 1
 658 245 l 1
 658 239 l 1
 658 182 l 1
 658 176 l 1
437.889459599 240 m 1
 475.650860022 419 l 1
 266.151615375 419 l 1
 227.421637604 240 l 1
 437.889459599 240 l 1
EndSplineSet
Validated: 524289
EndChar
StartChar: dollar
Encoding: 36 36 25
Width: 496
Flags: W
HStem: 426 21G<445.922 472.188> 571 38<335.383 364.09>
VStem: 69 88<47.7254 152.772> 156 68.2373<402.828 526.921> 356.644 79.3559<64.2903 182.447> 427 71<451.22 554.915>
LayerCount: 2
Fore
SplineSet
237.050847458 -95 m 0xc8
 228.29366393 -95 218.655339645 -90.169921875 221.177800583 -80.7216796875 c 2
 232.779661017 -22.4453125 l 2
 232.756720074 -16.265625 233.358398438 -16.4306640625 228.86927304 -15.962890625 c 2
 228.86927304 -15.962890625 206.150440281 -14.640625 202.048182601 -14.0927734375 c 0
 199.617485434 -14.8974609375 196.999089645 -18.1962890625 195.008441472 -21.28515625 c 2
 179.841796875 -84.369140625 l 1
 179.681640625 -85.0537109375 l 1
 179.366210938 -85.68359375 l 2
 175.579101562 -93.2587890625 166.501953125 -95.166015625 158.91796875 -93.90234375 c 0
 154.438476562 -93.0068359375 143.00390625 -90.0625 146.333984375 -78.72265625 c 2
 161.145507812 -3.7392578125 l 1
 106.841796875 18.0498046875 69 59.4541015625 69 108.965820312 c 0
 69 138.786132812 89.1484375 160.576171875 116 160.576171875 c 0
 139.603515625 160.576171875 157 141.905273438 157 117.729492188 c 0xe8
 157 103.90234375 153 90.3515625 153 77.8046875 c 0
 153 61.736328125 158.522460938 50.1328125 170.198242188 39.0791015625 c 1
 223.317564883 278.6796875 l 2
 226.458388506 291.090820312 226.027724444 296.043945312 220.576122219 301.7265625 c 0
 175 346.12890625 156 388.919921875 156 442 c 0
 156 526.619140625 206.856395657 588.0703125 295.63680151 605.130859375 c 1
 306.570246292 659.118164062 l 1
 306.604657707 659.288085938 l 1
 306.648454052 659.455078125 l 2
 308.93212063 668.0078125 319.935431012 672 328.881355932 672 c 0
 337.333007812 672 347.725254899 667.866210938 344.401946504 654.041992188 c 2
 335.185944121 609.930664062 l 2
 335.147361626 609.71484375 335.149447166 609.551757812 335.149447166 609.551757812 c 2
 335.744868909 609.2734375 336.944054555 609 338.491525424 609 c 0
 347.875413798 609 358.406349311 608.885742188 366.668217029 608 c 0
 373.058312368 608.260742188 374.568243512 610.211914062 374.896716102 612.057617188 c 2
 383.5390625 656.163085938 l 2
 386.254882812 672.482421875 396.15625 672 402 672 c 0
 409.090820312 672 421.208007812 667.447265625 419.008789062 656.3046875 c 0
 415.83984375 639.40625 412.918945312 624.01171875 409.920898438 608.022460938 c 0
 409.124023438 602.439453125 409.180664062 600.59765625 414.931640625 598.680664062 c 0
 466.040039062 580.94921875 498 540.646484375 498 486 c 0
 498 453.502929688 486.375976562 426 458 426 c 0
 433.844726562 426 420 446.012695312 420 471 c 0
 420 484.545898438 423.3515625 498.244140625 426.008789062 509.72265625 c 0
 426.252929688 514.40625 427 516.955078125 427 520 c 0xd4
 427 534.659179688 419.549804688 547.6875 402.845703125 557.896484375 c 0
 401.65625 558.639648438 400.696289062 559.137695312 400.107421875 559.426757812 c 1
 399.110351562 557.106445312 398.646484375 555.381835938 397.874023438 551.774414062 c 2
 344.406117585 304.309570312 l 1
 406.860351562 247.4765625 436 198.196289062 436 143.671875 c 0
 436 60.26953125 378.19140625 0.12109375 279.679290254 -12.9287109375 c 0
 275.369521319 -13.6015625 272.828290519 -12.94140625 270.026367188 -25.1875 c 2
 258.294160487 -83.1181640625 l 1
 258.259749073 -83.2880859375 l 1
 258.215952728 -83.455078125 l 2
 255.911430747 -92.0859375 245.466002383 -95 237.050847458 -95 c 0xc8
313.019779529 328.3203125 m 2
 363.186407574 559.2265625 l 2
 365.068607654 567.454101562 364.090489274 570.326171875 364.090489274 570.326171875 c 2
 364.083189883 570.33203125 363.224990069 570.807617188 361.26666777 571.037109375 c 0
 351.189337262 571.98046875 340.795004635 571.985351562 330.58628509 571.029296875 c 2
 330.268240201 571 l 1
 329.949152542 571 l 2
 328.04296875 571 326.106544624 570.865234375 324.451668432 564.666992188 c 2
 279.2308991 358.830078125 l 1
 290.731610832 347.479492188 301.429389566 338.997070312 311.727787341 328.583984375 c 0
 312.431657177 328.274414062 312.855021849 328.310546875 313.019779529 328.3203125 c 2
249.37221928 397.201171875 m 2
 284.183014433 553.288085938 l 2
 284.935894465 556.345703125 285.364472987 559.008789062 285.496904793 560.39453125 c 1
 283.4197067 559.575195312 283.131902145 559.422851562 281.795070842 558.749023438 c 0
 244.223020392 538.778320312 224.237288136 506.838867188 224.237288136 469 c 0xd0
 224.237288136 447.116210938 230.209232654 427.3203125 244.70060911 404.055664062 c 0
 245.700625662 402.495117188 248.190760726 398.71875 249.37221928 397.201171875 c 2
284.050582627 21.775390625 m 1
 328.45694849 38.037109375 356.644067797 74.7958984375 356.644067797 119 c 0xc8
 356.644067797 148.212890625 346.213238215 170.485351562 321.226380429 201.565429688 c 1
 284.032855535 30.3916015625 l 2
 283.99531581 26.3662109375 283.985930879 22.7958984375 284.050582627 21.775390625 c 1
245.918564619 27.095703125 m 2
 288.432302701 221.19140625 l 2
 290.482388771 230.790039062 290.238380561 235.001953125 285.576155323 240.095703125 c 0
 285.63663599 240.143554688 261.601827331 262.650390625 261.234772246 262.956054688 c 2
 260.463122352 263.248046875 l 2
 259.358828787 261.870117188 257.701867055 258.55078125 256.055333024 254.407226562 c 2
 206.181723385 28.82421875 l 2
 207.003426245 22.8046875 206.834497484 20.2333984375 206.914790784 18.4482421875 c 0
 208.834530588 17.9755859375 208.434106859 18.0791015625 209.375728284 17.90234375 c 0
 221.676244703 15.982421875 228.602323888 15.0576171875 240.726612156 15 c 0
 241.361659163 16.263671875 243.675566075 22.94921875 245.918564619 27.095703125 c 2
EndSplineSet
Validated: 524321
EndChar
StartChar: percent
Encoding: 37 37 26
Width: 755
Flags: W
HStem: -22 21G<208.423 230.226> 11 41<569.886 644.685> 279 40<190.134 264.79> 340 40<621.895 695.448> 601 40<241.785 316.468>
LayerCount: 2
Fore
SplineSet
688.061523438 378.203125 m 0
 758.673828125 365.19921875 793.538085938 284.991210938 775.857421875 192.86328125 c 0
 756.52734375 93.1630859375 682.126953125 11 599.279393957 11 c 0
 591.720247275 11 584.440287888 11.6591796875 577.471652465 12.9404296875 c 0
 503.869646192 26.466796875 469.175101162 107.234375 487.30018145 198.141601562 c 0
 507.186752807 297.88671875 584.746590497 380 667.965820312 380 c 0
 674.909179688 380 681.6171875 379.390625 688.061523438 378.203125 c 0
674.016601562 640.638671875 m 2
 691.969726562 634.110351562 681.453125 616.755859375 677.446289062 612.895507812 c 2
 248.611111619 -7.306640625 l 1
 248.509680263 -7.4560546875 l 1
 248.399210469 -7.599609375 l 2
 242.509161938 -15.236328125 237.486803421 -22 222.965820312 -22 c 2
 208.965820312 -22 l 1
 208.694335938 -22 l 1
 208.422851562 -21.9755859375 l 2
 204.579101562 -21.6259765625 200.943359375 -20.5029296875 197.828125 -18.5400390625 c 0
 188.96484375 -13.078125 186.787109375 -1.83203125 193.962890625 8.69140625 c 0
 401.79354853 310.759765625 492.351663822 440.885742188 539.624701239 508.302734375 c 0
 585.875390932 577.263671875 588.044615966 579.428710938 621.92771015 628.3515625 c 2
 622.015081714 628.478515625 l 1
 622.109483174 628.599609375 l 2
 627.739425555 635.899414062 633.228770017 643.71484375 646.29935512 643.046875 c 0
 660.93359375 644.999023438 672.9765625 640.946289062 673.57421875 640.780273438 c 2
 673.797851562 640.717773438 l 1
 674.016601562 640.638671875 l 2
309.389583417 639.0546875 m 0
 382.108835613 625.591796875 416.748145747 545.709960938 398.635116709 454.86328125 c 0
 378.756579518 357.46484375 302.211055386 279 218.965820312 279 c 0
 211.59375 279 204.495117188 279.633789062 197.700195312 280.8671875 c 0
 126.196289062 293.842773438 92.4541015625 371.180664062 110.076171875 459.141601562 c 0
 129.4140625 558.88671875 204.833984375 641 287.68226901 641 c 0
 295.205261942 641 302.451076119 640.338867188 309.389583417 639.0546875 c 0
602.364514006 52 m 0
 641.121334622 52 674.029296875 91.89453125 694.073242188 198.12890625 c 0
 700.311523438 230.208984375 703.216796875 256.1484375 703.227539062 276.608398438 c 0
 703.250976562 324.852539062 688.419921875 340 664.965820312 340 c 0
 625.254859474 340 592.011485821 300.07421875 570.369449019 192.844726562 c 0
 564.206238817 162.3046875 561.288832 137.310546875 561.20648179 117.395507812 c 0
 561.001610537 67.8544921875 577.001653708 52 602.364514006 52 c 0
221.965820312 319 m 0
 261.658598492 319 293.908748275 357.212890625 314.530445894 459.12890625 c 0
 320.94572808 491.208984375 323.933433856 517.1484375 323.944480836 537.608398438 c 0
 323.968583336 585.852539062 308.716721948 601 284.597148961 601 c 0
 244.744668849 601 211.891601562 561.033203125 190.85546875 454.854492188 c 0
 184.7890625 424.973632812 181.956054688 400.612304688 181.94140625 381.28515625 c 0
 181.90625 334.014648438 197.422851562 319 221.965820312 319 c 0
EndSplineSet
Validated: 524321
EndChar
StartChar: ampersand
Encoding: 38 38 27
Width: 744
Flags: W
HStem: -19 54<294.72 492.957> 282.672 62.7998<473.971 608.367 637.036 643.56> 344.52 44.7734<295.809 404.931> 406 20G<749.54 772.545> 621 42<346.075 501.486>
VStem: 92 105<123.262 266.361> 176 99.646<422.945 553.605> 410.155 77.9756<194.09 259.579> 632.885 44.115<137.741 259.038> 745 51<348.261 423.575>
LayerCount: 2
Fore
SplineSet
761 426 m 0xddc0
 784.090820312 426 796 407.591796875 796 388.024414062 c 0
 796 327.69140625 735.274414062 288.772460938 643.560460454 282.873046875 c 2
 643.35595271 282.860351562 l 1
 643.150442478 282.860351562 l 2
 642.102841538 282.860351562 638.864802268 282.794921875 637.036262445 282.671875 c 1
 664.94555448 258.861328125 677 234.54296875 677 202.0390625 c 0
 677 55.416015625 490.263862002 -19 367.008849558 -19 c 0
 243.761857024 -19 92 40.3974609375 92 188.079101562 c 0xddc0
 92 273.45703125 160.548828125 345.63671875 259.751555586 370.556640625 c 0
 263.445727323 371.435546875 267.220098175 373.249023438 268.599522954 374.10546875 c 1
 208.754882812 396.705078125 176 436.025390625 176 486 c 0
 176 588.875976562 286.308490044 663 421.415929204 663 c 0
 474.89771156 663 609.274336283 641.120117188 609.274336283 556 c 0
 609.274336283 534.509765625 590.050608407 516 567.185840708 516 c 0
 538.359271294 516 527.514345962 537.967773438 520.344545077 556.92578125 c 2
 520.264345962 557.135742188 l 1
 520.201189159 557.3515625 l 2
 518.001728429 564.8515625 516.946107577 571.846679688 515.147642423 577.102539062 c 2
 515.073458241 577.321289062 l 1
 515.015313883 577.544921875 l 2
 507.785363662 605.71875 482.102599558 621 428.601769912 621 c 0
 338.23340708 621 275.646017699 564.76953125 275.646017699 473 c 0
 275.646017699 422.1171875 304.024474558 389.29296875 339.292035398 389.29296875 c 0
 344.963115321 389.29296875 357.291724281 391.094726562 369.314574115 391.1328125 c 0
 384.101285951 391.1796875 404.991150442 387.9921875 404.991150442 367.879882812 c 0
 404.991150442 326.249023438 337.181796184 344.51953125 321.840707965 344.51953125 c 0xbbc0
 249.85498479 344.51953125 197 287.544921875 197 208.252929688 c 0
 197 102.73828125 275.176852876 35 400.884955752 35 c 0
 496.967505531 35 632.884955752 99.404296875 632.884955752 202.848632812 c 0
 632.884955752 251.969726562 599.32764104 284.34765625 537.415929204 284.34765625 c 0
 491.888896571 284.34765625 464.530973451 267.83203125 464.530973451 263.97265625 c 0
 464.530973451 261.654296875 466.016662058 259.158203125 469.912334071 255.4765625 c 0
 478.245022124 247.6015625 486.917553927 238.48828125 488.130565542 223.588867188 c 0
 489.198216261 202.891601562 475.109236726 189.793945312 458.34862417 187.803710938 c 0
 437.338461007 185.310546875 413.916309458 199.96875 410.154970962 231.364257812 c 0
 407.802129425 255.831054688 425.641420077 282.9609375 445.748340708 302.963867188 c 0
 479.137237279 334.521484375 517.388205199 345.471679688 591.82300885 345.471679688 c 0
 624.926196073 345.471679688 658.802302268 343.53125 691 343.53125 c 0
 728.900390625 343.53125 745 355.208984375 745 360.995117188 c 0
 745 367.134765625 728.259765625 374.97265625 727.010742188 395.581054688 c 2
 727 395.751953125 l 1
 727 395.922851562 l 2
 727 412.362304688 738.080078125 426 761 426 c 0xddc0
EndSplineSet
Validated: 524321
EndChar
StartChar: quotesingle
Encoding: 39 39 28
Width: 235
Flags: W
HStem: 656.962 5.03809<257.443 280.903>
LayerCount: 2
Fore
SplineSet
168.021484375 503.51171875 m 2
 171.829101562 550.145507812 177.827148438 662 257 662 c 0
 266.473632812 662 274.545898438 660.340820312 281.216796875 656.961914062 c 0
 327.87890625 633.327148438 289.106445312 543.27734375 256.327148438 480.239257812 c 2
 199.297851562 370.182617188 l 2
 193.704101562 359.927734375 189.98046875 351 174 351 c 0
 157.611328125 351 157 372.638671875 157 380 c 2
 157 380.267578125 l 1
 157.0234375 380.534179688 l 1
 168.021484375 503.51171875 l 2
EndSplineSet
Validated: 524321
EndChar
StartChar: parenleft
Encoding: 40 40 29
Width: 318
Flags: W
VStem: 100 311.292
LayerCount: 2
Fore
SplineSet
209.459960938 -238.907226562 m 0
 197.870117188 -243.514648438 188.560546875 -234.180664062 184.530273438 -226.971679688 c 0
 136.280273438 -122.17578125 100 4.6376953125 100 121 c 0
 100 341.818359375 234.256835938 540.606445312 385.771484375 690 c 2
 385.889648438 689.889648438 l 1
 386.013671875 690 l 2
 396.782226562 677.4453125 407.338867188 680.486328125 411.291992188 690.85546875 c 0
 416.469726562 681.452148438 414.0234375 673.000976562 406.56640625 664.15625 c 0
 304.208007812 542.102539062 234.596679688 407.190429688 194.807617188 253.493164062 c 0
 154.109375 97.3232421875 163.01171875 -61.6552734375 216.67578125 -213.055664062 c 0
 219.254882812 -219.854492188 224.999023438 -233.446289062 209.459960938 -238.907226562 c 0
EndSplineSet
Validated: 524321
EndChar
StartChar: parenright
Encoding: 41 41 30
Width: 298
Flags: W
VStem: 154.406 33.1436<650.109 694.764>
LayerCount: 2
Fore
SplineSet
272.133789062 335 m 0
 272.133789062 201.819335938 229.59375 78.603515625 139.078125 -53 c 0
 94.869140625 -116.983398438 43.6103515625 -177.990234375 -9.6435546875 -229.98046875 c 0
 -16.166015625 -238.541992188 -31.8779296875 -250.606445312 -39.0107421875 -235 c 0
 -47.9140625 -219.928710938 -32.521484375 -204.3125 -30.666015625 -201.799804688 c 2
 -30.548828125 -201.338867188 l 1
 -30.421875 -201.190429688 l 2
 23.31640625 -138.901367188 58.0361328125 -86.6435546875 87.8046875 -30.44921875 c 0
 118.458984375 29.1591796875 159.501953125 135.987304688 177.323242188 203.497070312 c 0
 219.01953125 366.658203125 206.197265625 513.627929688 154.40625 672.35546875 c 0
 151.014648438 682.200195312 152.852539062 690.658203125 161.1015625 694.96875 c 0
 172.866210938 700.6015625 180.681640625 693.412109375 187.549804688 681.900390625 c 0
 237.815429688 572.166015625 272.133789062 467.109375 272.133789062 335 c 0
EndSplineSet
Validated: 524321
EndChar
StartChar: asterisk
Encoding: 42 42 31
Width: 581
Flags: W
HStem: 329 94.873<105.548 183.07 422.376 500.541> 507.185 95.8154<106.268 181.828 424.879 500.121>
VStem: 254.667 96.6667<248.311 361.682 567.624 687.282> 284.741 36.5185<336.177 440.215 492.212 598.159>
LayerCount: 2
Fore
SplineSet
285.533709491 492.041992188 m 2xd0
 285.757125289 493.860351562 285.814814815 495.342773438 285.814814815 497.857421875 c 0
 283.681351273 539.573242188 278.43999566 564.625976562 271.07776331 585.188476562 c 0
 264.660590278 605.104492188 256.814814815 624.650390625 256.814814815 648 c 0
 256.814814815 670.03125 271.498372396 695 303 695 c 0
 334.28765191 695 350.259259259 670.24609375 350.259259259 648 c 0
 350.259259259 624.547851562 341.228226273 604.759765625 334.962094907 585.313476562 c 0
 328.560655382 564.450195312 321.244574653 539.358398438 320.180989583 497.76171875 c 0
 320.022605613 495.108398438 320.17364728 492.513671875 320.208260995 492.180664062 c 1
 322.729817708 493.348632812 324.68287037 494.509765625 327.56000434 496.1171875 c 0
 369.70062934 520.638671875 392.655273438 544.15234375 409.370117188 563.818359375 c 0
 413.216796875 568.625 418.748046875 575.141601562 422.572265625 579.061523438 c 0
 433.604492188 592.140625 445.388671875 603 464 603 c 0
 502.486328125 603 510 571.618164062 510 561 c 0
 510 526.283203125 488.7578125 515.254882812 456.500976562 507.190429688 c 0
 441.326171875 503.14453125 422.549804688 499.196289062 400.755859375 492.262695312 c 0
 383.659396701 487.362304688 362.460069444 479.471679688 339.265733507 468.673828125 c 0
 337.419668692 467.749023438 335.541087963 466.713867188 334.46911169 466.09375 c 1
 336.364474826 464.916015625 337.421766493 464.334960938 339.559425637 463.173828125 c 0
 362.826135706 450.374023438 382.63776765 442.630859375 400.60546875 437.78125 c 2
 400.752929688 437.740234375 l 1
 400.897460938 437.692382812 l 2
 421.579101562 430.797851562 440.08203125 426.901367188 456.213867188 423.876953125 c 0
 487.583007812 416.793945312 510 407.787109375 510 370 c 0
 510 351.046875 493.845703125 329 469 329 c 0
 447.068359375 329 433.194335938 338.220703125 420.594726562 352.919921875 c 0
 415.397460938 358.1171875 411.064453125 363.681640625 407.1328125 369.479492188 c 0
 391.64453125 388.83984375 369.724754051 413.34375 325.514648438 438.82421875 c 0
 323.754593461 439.734375 321.753291377 440.583984375 321.322193287 440.752929688 c 1
 321.265552662 439.956054688 321.259259259 439.634765625 321.259259259 439.052734375 c 0xd0
 322.321795428 384.303710938 329.759548611 359.67578125 335.885127315 343.993164062 c 0
 340.034577546 334.6171875 343.367983218 327.573242188 346.626916956 319.721679688 c 2
 346.755931713 319.411132812 l 1
 346.845088252 319.08984375 l 2
 349.023654514 311.211914062 351.333333333 301.827148438 351.333333333 289.530273438 c 0
 351.333333333 263.953125 333.173719618 241 303 241 c 0
 272.911241319 241 254.666666667 263.950195312 254.666666667 289.5078125 c 0xe0
 254.666666667 301.48046875 257.379123264 312.065429688 260.189127604 319.056640625 c 0
 262.029947917 329.208007812 267.132848669 335.008789062 269.975368924 343.569335938 c 2
 270.067672164 343.845703125 l 1
 270.189344618 344.112304688 l 2
 277.291449653 359.692382812 283.676106771 383.138671875 284.740740741 436.0546875 c 0
 284.740740741 437.7109375 284.539351852 439.741210938 284.460684317 440.239257812 c 1
 282.640842014 439.463867188 282.839084201 439.541015625 281.592990451 438.844726562 c 0
 237.361906829 414.33203125 215.638671875 389.193359375 199.685546875 369.251953125 c 0
 191.768554688 359.35546875 182.995117188 348.712890625 172.716796875 341.2734375 c 0
 162.62109375 332.790039062 152.096679688 329 138 329 c 0
 112.287109375 329 96 350.963867188 96 370 c 0
 96 407.822265625 118.525390625 416.819335938 150.770507812 423.873046875 c 0
 165.875 426.893554688 184.388671875 430.783203125 206.244140625 437.737304688 c 0
 223.391601562 442.630859375 243.159179688 450.365234375 266.424840856 463.166015625 c 2
 266.783564815 463.362304688 l 1
 267.165364583 463.514648438 l 2
 269.011429398 464.251953125 271.34837963 465.455078125 271.967230903 465.845703125 c 1
 271.187897859 466.412109375 270.179904514 467.0234375 268.833116319 467.698242188 c 0
 244.531141493 479.50390625 223.391601562 487.361328125 205.39453125 492.21875 c 2
 205.247070312 492.259765625 l 1
 205.102539062 492.307617188 l 2
 184.465820312 499.186523438 165.736328125 503.130859375 149.522460938 507.184570312 c 0
 118.23828125 515.2578125 96 526.165039062 96 561 c 0
 96 571.838867188 104.495117188 603 142 603 c 0
 160.783203125 603 173.45703125 591.017578125 184.334960938 579.150390625 c 0
 188.784179688 574.701171875 192.836914062 568.6484375 197.2421875 564.2421875 c 2
 197.4140625 564.071289062 l 1
 197.571289062 563.885742188 l 2
 214.422851562 544.061523438 238.355215567 519.686523438 281.756618924 494.061523438 c 0
 283.375072338 493.102539062 285.533709491 492.041992188 285.533709491 492.041992188 c 2xd0
EndSplineSet
Validated: 524289
EndChar
StartChar: plus
Encoding: 43 43 32
Width: 703
Flags: W
HStem: 292 70<69 313.615 386.308 633>
VStem: 313.615 72.6923<48 292 362 608>
LayerCount: 2
Fore
SplineSet
633 292 m 1
 627 292 l 1
 386.307692308 292 l 1
 386.307692308 54 l 1
 386.307692308 48 l 1
 380.076923077 48 l 1
 319.846153846 48 l 1
 313.615384615 48 l 1
 313.615384615 54 l 1
 313.615384615 292 l 1
 75 292 l 1
 69 292 l 1
 69 298 l 1
 69 356 l 1
 69 362 l 1
 75 362 l 1
 313.615384615 362 l 1
 313.615384615 602 l 1
 313.615384615 608 l 1
 319.846153846 608 l 1
 380.076923077 608 l 1
 386.307692308 608 l 1
 386.307692308 602 l 1
 386.307692308 362 l 1
 627 362 l 1
 633 362 l 1
 633 356 l 1
 633 298 l 1
 633 292 l 1
EndSplineSet
Validated: 524289
EndChar
StartChar: comma
Encoding: 44 44 33
Width: 269
Flags: W
HStem: -172.169 273.169
VStem: 145.097 75<-61.507 53.9921>
LayerCount: 2
Fore
SplineSet
164.096679688 101 m 0
 198.21875 101 220.096679688 64.3095703125 220.096679688 23 c 0
 220.096679688 -54.8583984375 173.91796875 -115.712890625 78.1435546875 -172.168945312 c 2
 77.642578125 -172.463867188 l 1
 77.09375 -172.658203125 l 2
 69.0546875 -175.495117188 61.39453125 -174.319335938 57.0595703125 -168.805664062 c 0
 50.9384765625 -161.020507812 53.748046875 -149.225585938 61.380859375 -143.2890625 c 0
 97.396484375 -114.4765625 145.096679688 -84.7265625 145.096679688 -40 c 0
 145.096679688 -26.0029296875 137.890625 -11.98828125 129.987304688 0.85546875 c 2
 129.896484375 1.0029296875 l 1
 129.814453125 1.1552734375 l 2
 123.122070312 13.583984375 113.096679688 27.609375 113.096679688 45 c 0
 113.096679688 74.96484375 137.2109375 101 164.096679688 101 c 0
EndSplineSet
Validated: 524289
EndChar
StartChar: hyphen
Encoding: 45 45 34
Width: 344
Flags: W
HStem: 178 67<62.6357 312.438>
VStem: 59.791 256.906
LayerCount: 2
Fore
SplineSet
70.53125 178.287109375 m 0
 56.44140625 179.822265625 57.84765625 191.740234375 59.791015625 206.637695312 c 0
 60.826171875 219.057617188 63.16015625 224.346679688 63.9375 227.455078125 c 2
 64.013671875 227.7578125 l 1
 64.1201171875 228.05078125 l 2
 68.1044921875 239.006835938 70.5029296875 245 90.7587890625 245 c 2
 299.758789062 245 l 2
 310.09375 245 319.271484375 240.583007812 316.697265625 225.134765625 c 0
 314.708007812 209.21875 312.592773438 199.598632812 310.579101562 191.544921875 c 2
 310.5234375 191.321289062 l 1
 310.451171875 191.102539062 l 2
 308.2734375 184.5703125 303.30078125 176.021484375 291.037109375 178 c 2
 83.7587890625 178 l 2
 78.2490234375 178 74.1396484375 177.893554688 70.53125 178.287109375 c 0
EndSplineSet
Validated: 524289
EndChar
StartChar: period
Encoding: 46 46 35
Width: 256
Flags: W
HStem: -14 122<91.7796 165.395>
VStem: 77.0205 102.959<-0.127315 93.7171>
LayerCount: 2
Fore
SplineSet
123.979492188 -14 m 0
 86.119140625 -14 72.759765625 18.88671875 77.0205078125 48.7138671875 c 0
 80.2392578125 81.9736328125 104.068359375 108 132.979492188 108 c 0
 161.958984375 108 179.979492188 84.25390625 179.979492188 54 c 0
 179.979492188 16.91015625 157.330078125 -14 123.979492188 -14 c 0
EndSplineSet
Validated: 524321
EndChar
StartChar: slash
Encoding: 47 47 36
Width: 373
Flags: W
LayerCount: 2
Fore
SplineSet
391.216796875 581.649414062 m 0
 290.248046875 378.407226562 151.173955297 113.58203125 74.2822265625 -44 c 2
 73.9638671875 -43.416015625 l 1
 73.486328125 -44 l 2
 64.912109375 -53.447265625 54.5341796875 -65.275390625 40.322265625 -63.994140625 c 2
 13.2890625 -61.9921875 l 2
 10.5166015625 -61.736328125 7.802734375 -61.359375 4.775390625 -60.5 c 0
 -4.9287109375 -57.576171875 -13.0576171875 -48.84375 -6.7880859375 -33.8515625 c 2
 -6.6416015625 -32.6865234375 l 1
 -6.44140625 -32.314453125 l 2
 78.44140625 124.154296875 244.225538025 437.588867188 317.357421875 596 c 2
 317.529296875 595.640625 l 1
 317.75390625 596 l 2
 321.775390625 601.6796875 329.05859375 619.174804688 352.513671875 616.995117188 c 2
 377.556640625 614 l 1
 377.7890625 613.971679688 l 1
 378.018554688 614 l 2
 385.77734375 612.587890625 402.276367188 601.77734375 391.216796875 581.649414062 c 0
EndSplineSet
Validated: 524321
EndChar
StartChar: zero
Encoding: 48 48 37
Width: 536
Flags: W
HStem: -13 41<195.357 318.3> 633 40<329.01 451.613>
VStem: 87 74<92.8693 332.45> 476 78<310.814 569.27>
LayerCount: 2
Fore
SplineSet
242.523396621 600.127929688 m 0
 290.818636446 647.90234375 342.035923874 673 395.990697674 673 c 0
 513.682617188 673 554 554.217773438 554 437 c 0
 554 370.977539062 540.834960938 304.002929688 513.59765625 235.220703125 c 0
 469.284179688 123.389648438 407.143763626 47.033203125 326.091483467 7.1533203125 c 0
 298.923864462 -5.87890625 271.537658975 -13 242.897674419 -13 c 2
 238.674418605 -13 l 2
 125.815429688 -13 87 115.686523438 87 229.258789062 c 0
 87 374.422851562 163.64453125 519.635742188 242.523396621 600.127929688 c 0
217.172519985 450.938476562 m 0
 186.892578125 371.88671875 161 253.622070312 161 155.385742188 c 0
 161 68.0078125 191.51953125 28 252.4 28 c 2
 253.455813953 28 l 2
 319.579255996 28 376.398337573 84.837890625 422.748982558 204.5234375 c 0
 458.120117188 301.42578125 476 400.262695312 476 501 c 0
 476 547.81640625 472.69921875 578.3125 466.52734375 591.538085938 c 0
 454.25 619.87109375 438.1484375 633 395.990697674 633 c 0
 348.924491279 633 315.898342115 608.59375 290.999073401 580.096679688 c 0
 258.942128452 545.817382812 236.089530342 500.708007812 217.172519985 450.938476562 c 0
EndSplineSet
Validated: 524289
Substitution2: "'onum' Oldstyle Figures in Latin lookup 0-1" zero.onum
EndChar
StartChar: one
Encoding: 49 49 38
Width: 536
Flags: W
HStem: 0 35.2246<111.318 241.785 337.543 437.301>
LayerCount: 2
Fore
SplineSet
109.485351562 10.134765625 m 1
 112.443359375 22.689453125 l 2
 114.986328125 37.630859375 199.798828125 34.7978515625 203.715820312 35.224609375 c 0
 225.422851562 37.2490234375 237.997443265 40.3330078125 241.978400856 50.8232421875 c 0
 244.062523622 56.314453125 246.291467875 64.0986328125 248.474679026 72.724609375 c 2
 363.478515625 567.877929688 l 1
 311.620114387 533.98828125 263.954244978 509.771484375 218.743164062 491.505859375 c 2
 218.491210938 491.395507812 l 1
 218.228515625 491.307617188 l 1
 215.228515625 490.307617188 l 1
 214.305664062 490 l 1
 213.331054688 490 l 2
 202.3203125 490 200.331054688 506.87890625 200.331054688 509 c 0
 200.331054688 517.16015625 208.790039062 518.272460938 213.84375 521.8828125 c 2
 214.0390625 522.021484375 l 1
 214.244140625 522.14453125 l 2
 267.501826989 551.716796875 376.727539062 629.854492188 420.188476562 671.33984375 c 2
 421.927734375 673 l 1
 424.331054688 673 l 1
 452.331054688 673 l 2
 465.778320312 673 465.331054688 662.057617188 465.331054688 658 c 2
 465.331054688 657.380859375 l 1
 465.205078125 656.775390625 l 1
 342.974510951 82.330078125 l 2
 339.678460998 66.849609375 337.525738581 54.9462890625 337.525738581 49.1025390625 c 0
 337.525738581 41.5537109375 361.365234375 31.42578125 429.331054688 31.42578125 c 0
 434.159179688 31.42578125 438.331054688 27.328125 438.331054688 22.5869140625 c 2
 438.331054688 21.916015625 l 1
 438.177734375 21.2626953125 l 1
 435.37109375 9.318359375 l 2
 434.584960938 2.005859375 429.53125 0 425.331054688 0 c 2
 119.331054688 0 l 2
 114.506835938 0 111.3125 3.5478515625 109.96484375 6.185546875 c 2
 109 8.076171875 l 1
 109.485351562 10.134765625 l 1
EndSplineSet
Validated: 524321
Substitution2: "'onum' Oldstyle Figures in Latin lookup 0-1" one.onum
EndChar
StartChar: two
Encoding: 50 50 39
Width: 536
Flags: W
HStem: 0 78<119.293 438.25> 602 71<287.899 407.205>
VStem: 454.019 102<427.672 553.195>
LayerCount: 2
Fore
SplineSet
203.00874386 598.607421875 m 0
 264.071210613 648.165039062 324.889704002 673 386.052809768 673 c 0
 491.748046875 673 556.018554688 614.211914062 556.018554688 511 c 0
 556.018554688 461.499023438 533.124023438 412.4375 489.499023438 365.053710938 c 0
 457.875976562 330.313476562 397.151564712 283.546875 307.462889933 223.106445312 c 0
 274.345538899 200.856445312 232.923944493 169.889648438 183.997119481 129.993164062 c 0
 152.052873706 105.109375 130.237304688 87.6474609375 119.29296875 78 c 1
 390.216621844 78 l 2
 414.600743007 78 430.084919167 83.130859375 439.634765625 92.09765625 c 0
 448.537109375 101.889648438 460.668945312 123.73046875 475.556640625 156.482421875 c 2
 477.155273438 160 l 1
 481.018554688 160 l 1
 500.018554688 160 l 1
 508.584960938 160 l 1
 505.657226562 151.94921875 l 1
 457.657226562 19.94921875 l 1
 457.599609375 19.791015625 l 1
 457.533203125 19.63671875 l 2
 454.091796875 11.60546875 448.147460938 4.2412109375 439.381835938 0.4853515625 c 2
 438.25 -0 l 1
 437.018554688 0 l 1
 19.0185546875 0 l 2
 10.22265625 0 11.0185546875 9.642578125 11.0185546875 12.685546875 c 0
 11.0185546875 33.40234375 48.806640625 69.39453125 119.235351562 124.568359375 c 2
 212.435264707 196.775390625 l 2
 292.509355839 257.21484375 348.449398506 304.844726562 381.347173512 340.502929688 c 0
 430.832087594 393.65625 454.018554688 441.212890625 454.018554688 484 c 0
 454.018554688 543.663085938 408.489210242 602 351.701360135 602 c 0
 322.662430501 602 291.361664473 594.318359375 257.591684691 578.588867188 c 0
 219.681273614 561.337890625 179.905482858 521.310546875 159.702455219 474.731445312 c 0
 155.035448079 463.522460938 147.074800527 456 132.060273093 456 c 0
 127.734375 456 118.018554688 456.854492188 118.018554688 466 c 2
 118.018554688 466.374023438 l 1
 118.065429688 466.744140625 l 2
 119.376953125 477.239257812 129.686523438 496.755859375 147.382816899 527.849609375 c 0
 165.297577697 560.245117188 184.493198654 583.959960938 203.00874386 598.607421875 c 0
EndSplineSet
Validated: 524289
Substitution2: "'onum' Oldstyle Figures in Latin lookup 0-1" two.onum
EndChar
StartChar: three
Encoding: 51 51 40
Width: 536
Flags: W
HStem: -13 42<176.564 315.788> 608 65<318.622 424.182>
VStem: 438 96<181.286 318.107> 447 90<504.284 586.282>
LayerCount: 2
Fore
SplineSet
256.35 333.018554688 m 0xe0
 256.35 343.9921875 270.459375 352.877929688 291.872607422 364.196289062 c 0
 317.536083984 380.1953125 338.805761719 394.403320312 355.871337891 406.873046875 c 0
 370.842041016 417.811523438 382.288476563 427.206054688 390.431103516 435.181640625 c 0
 428.220703125 471.705078125 446.068359375 506.418945312 447 538.087890625 c 0
 447 576.171875 411.795117188 608 369.75 608 c 0
 296.259228516 608 243.221923828 560.010742188 201.456738281 509.296875 c 2
 200.019140625 507.551757812 l 1
 197.735595703 507.116210938 l 2
 193.1859375 506.25 171.3 505.598632812 171.3 520 c 2
 171.3 521.4375 l 1
 171.983935547 522.719726562 l 2
 204.360644531 583.361328125 309.366796875 673 403.35 673 c 0
 473.7734375 673 537 646.135742188 537 577 c 0xd0
 537 527.435546875 507.452148438 479.889648438 451.814453125 434.368164062 c 0
 439.603515625 424.575195312 424.612304688 414.567382812 409.840722656 406.55859375 c 1
 484.747070312 398.336914062 534 350.053710938 534 276.241210938 c 0
 534 213.274414062 509.236328125 168.146484375 480.837890625 129.624023438 c 0
 432.024414062 66.240234375 323.554101563 -13 215.4 -13 c 0
 152.419921875 -13 107.486328125 -4.1220703125 76.72265625 14.97265625 c 0
 56.376953125 28.8935546875 45 46.7763671875 45 70 c 0
 45 94.54296875 68.9169921875 109 90 109 c 0
 111.64453125 109 124.270507812 96.2265625 135.094726562 86.38671875 c 0
 159.741210938 62.7666015625 190.259472656 29 239.55 29 c 0
 285.105029297 29 317.033642578 44.70703125 342.518701172 65.453125 c 0
 385.504101563 99.5361328125 438 177.311523438 438 240.744140625 c 0
 438 308.920898438 409.713574219 344.673828125 347.7 344.673828125 c 0
 333.908496094 344.673828125 320.248242188 341.973632812 306.417773437 335.576171875 c 0
 291.749560547 328.791992188 281.815576172 324.559570312 279.79453125 323.3125 c 0
 276.526611328 321.296875 274.269726563 319.419921875 270 319.419921875 c 0
 260.830957031 319.419921875 256.35 326.342773438 256.35 333.018554688 c 0xe0
EndSplineSet
Validated: 524289
Substitution2: "'onum' Oldstyle Figures in Latin lookup 0-1" three.onum
EndChar
StartChar: four
Encoding: 52 52 41
Width: 536
Flags: W
HStem: -18 21G<311.827 375.837> 187 66<148.609 343.939 444.577 541.744>
LayerCount: 2
Fore
SplineSet
429.848632812 182.791015625 m 2
 387.933517654 -2.0400390625 l 2
 386.614473417 -10.8212890625 380.478452212 -18 371.194805195 -18 c 2
 315.441558442 -18 l 2
 308.21147017 -18 300.714285714 -13.732421875 300.714285714 -5 c 2
 300.714285714 -4.369140625 l 1
 300.851942979 -3.751953125 l 2
 328.591936384 116.499023438 343.092177354 179.780273438 343.938666802 186.971679688 c 0
 341.377625304 187.369140625 337.343445617 187 331.220779221 187 c 2
 81 187 l 2
 73.962890625 187 65 189.267578125 65 197.862304688 c 0
 65 205.946289062 67.490234375 212.33203125 71.2001953125 217.216796875 c 2
 71.3466796875 217.41015625 l 1
 71.509765625 217.590820312 l 1
 480.509765625 659.979492188 l 1
 480.629882812 660.114257812 l 1
 480.7578125 660.2421875 l 2
 487.971679688 667.45703125 495.215820312 673 504 673 c 0
 507.92578125 673 512.098632812 673.203125 516.095703125 672.790039062 c 0
 521.436523438 672.237304688 530.185546875 669.108398438 528.98046875 659.469726562 c 0
 527.932617188 639.555664062 523.796875 629.388671875 518.877929688 604.795898438 c 0
 501.874023438 525.135742188 491.87109375 475.958007812 467.875 364.87109375 c 0
 454.553710938 301.83984375 446.7578125 264.5234375 444.577148438 253.055664062 c 1
 445.577148438 253.0234375 446 253 447 253 c 2
 528 253 l 2
 536.018554688 253 548 251.661132812 548 241 c 2
 548 240.421875 l 1
 547.889648438 239.854492188 l 1
 540.889648438 203.854492188 l 1
 540.859375 203.69921875 l 1
 540.821289062 203.544921875 l 2
 538.448242188 194.053710938 532.177734375 187 522 187 c 2
 434 187 l 2
 432.375976562 187 430.973632812 186.899414062 430.973632812 186.899414062 c 2
 430.53125 185.512695312 430.27734375 184.450195312 429.848632812 182.791015625 c 2
404.0856458 525.766601562 m 2
 151.920898438 257.413085938 l 2
 150.573242188 255.421875 149.150390625 253.815429688 148.609375 253.151367188 c 1
 151.779296875 252.983398438 151.787109375 253 154 253 c 2
 352.25974026 253 l 2
 355.865538758 253 357.585227273 254.155273438 359.885336343 258.645507812 c 0
 375.767286425 329.9609375 387.116819704 386.133789062 401.831764915 446.21875 c 0
 409.156364144 483.0234375 414.467469054 507.270507812 416.578556209 516.301757812 c 0
 418.496512277 524.50390625 419.514559659 530.561523438 419.592633929 531.216796875 c 0
 419.377929688 534.48046875 419.709745333 533.826171875 416.55492847 534.013671875 c 0
 415.162946429 533.662109375 410.37987013 530.888671875 404.0856458 525.766601562 c 2
EndSplineSet
Validated: 524289
Substitution2: "'onum' Oldstyle Figures in Latin lookup 0-1" four.onum
EndChar
StartChar: five
Encoding: 53 53 42
Width: 536
Flags: W
HStem: -13 37<175.536 291.706> 345 82<207.776 366.352> 579 74<252.364 526.242>
VStem: 412.83 90.1696<150.454 302.574>
LayerCount: 2
Fore
SplineSet
324.112443337 62.1953125 m 0
 352.545575754 83.720703125 373.877064027 111.669921875 390.326363459 143.885742188 c 0
 404.858535599 178.328125 412.830394156 205.5703125 412.830394156 226.432617188 c 0
 412.830394156 296.548828125 382.85906584 324.55859375 325.343204331 339.438476562 c 0
 311.45756473 343.095703125 294.229974943 345 273.726824568 345 c 0
 239.315564267 345 193.874438422 324.59375 173.322261883 312.803710938 c 0
 164.059570312 307.8359375 159.311523438 304 153 304 c 0
 147.375976562 304 144 309.346679688 144 314 c 0
 144 319.125 172.287605545 427.796875 231.039334941 648.48046875 c 2
 232.242518718 653 l 1
 237.120622045 653 l 1
 495 653 l 2
 515.887695312 653 516.998046875 658.331054688 526.200195312 670.599609375 c 2
 528 673 l 1
 531 673 l 1
 551 673 l 1
 559.486328125 673 l 1
 556.65625 664.999023438 l 1
 527.65625 582.999023438 l 1
 526.2421875 579 l 1
 522 579 l 1
 258.038452058 579 l 2
 255.003936776 579 252.752818742 578.655273438 252.363673564 578.57421875 c 2
 206.697844468 406.774414062 l 1
 218.759302214 412.600585938 234.810264062 417.071289062 254.915076854 419.918945312 c 0
 283.173553562 424.922851562 305.72865318 427 323.9296166 427 c 0
 441.645507812 427 503 351.409179688 503 240.09765625 c 0
 503 128.668945312 413.370703339 54.171875 326.449357159 17.66796875 c 0
 276.602004816 -2.07421875 228.842349962 -13 183.780155511 -13 c 0
 140.256835938 -13 104.224609375 -4.8779296875 76.0859375 10.7548828125 c 0
 56.9501953125 21.3857421875 46 36.2548828125 46 54 c 2
 46 54.7763671875 l 1
 46.197265625 55.52734375 l 2
 51.7431640625 76.599609375 71.548828125 98 98 98 c 0
 124.80078125 98 144.936523438 72.548828125 158.303710938 59.181640625 c 0
 176.245446917 40.6611328125 189.738877205 24 222.478141036 24 c 0
 262.136222274 24 299.647366076 43.404296875 324.112443337 62.1953125 c 0
EndSplineSet
Validated: 524289
Substitution2: "'onum' Oldstyle Figures in Latin lookup 0-1" five.onum
EndChar
StartChar: six
Encoding: 54 54 43
Width: 536
Flags: W
HStem: -14 38<204.888 335.202> 398 41<290.984 404.95> 627.568 44.4316<560.551 599.302>
VStem: 78 90<76.0446 273.359> 443.255 96.7455<162.969 351.019>
LayerCount: 2
Fore
SplineSet
513.359375 645.387695312 m 0
 548.583007812 662.49609375 573.97265625 672 591 672 c 0
 596.8671875 672 605 669.208984375 605 661 c 0
 605 644.01171875 569.41796875 631.599609375 560.55078125 627.568359375 c 2
 527.650390625 611.6171875 l 2
 492.1484375 593.866210938 461.329634233 574.000976562 424.910394176 550.072265625 c 0
 349.148916903 498.987304688 304.510021307 456.4765625 290.272130682 425.739257812 c 1
 308.870056818 433.490234375 326.340774148 439 358.72 439 c 0
 411.896534091 439 461.082993608 415.010742188 490.236328125 388.616210938 c 0
 523.470703125 355.247070312 540 313.778320312 540 264.723632812 c 0
 540 128.290039062 435.810482955 29.0439453125 325.095340909 -3.7294921875 c 0
 300.322226563 -10.9541015625 274.708291903 -14 248.094545455 -14 c 0
 193.502929688 -14 151.484375 4.353515625 121.24609375 42.0986328125 c 0
 92.423828125 79.3623046875 78 121.758789062 78 168.956054688 c 0
 78 263.807617188 100.4453125 325.95703125 138.971679688 383.489257812 c 0
 172.536132812 434.240234375 225.299651989 482.666015625 297.80893821 528.967773438 c 0
 349.343579545 562.223632812 421.492077415 601.283203125 513.359375 645.387695312 c 0
422.674321733 163.342773438 m 0
 436.129485085 202.740234375 443.254545455 236.147460938 443.254545455 263.321289062 c 0
 443.254545455 347.666015625 416.591878551 398 335.76 398 c 0
 298.997297585 398 268.412840909 384.358398438 241.238547585 357.260742188 c 0
 197.692382812 312.1171875 168 238.8515625 168 148.020507812 c 0
 168 88.8125 184.724609375 51.7490234375 217.736345881 33.9287109375 c 0
 230.027610085 27.7841796875 246.865419034 24 266.88 24 c 0
 311.743114347 24 343.261136364 43.16796875 365.506693892 67.576171875 c 0
 390.025014205 92.2353515625 409.312922585 124.21875 422.674321733 163.342773438 c 0
EndSplineSet
Validated: 524289
Substitution2: "'onum' Oldstyle Figures in Latin lookup 0-1" six.onum
EndChar
StartChar: seven
Encoding: 55 55 44
Width: 536
Flags: W
HStem: -6 21G<264.931 334.895> 569 91<193.099 516.705>
LayerCount: 2
Fore
SplineSet
193.09765625 547.990234375 m 2
 151.209960938 473.19140625 l 2
 147.561523438 465.893554688 141.407226562 461 132.90625 461 c 0
 128.629882812 461 117.419921875 461.452148438 118.953125 471.373046875 c 0
 119.219726562 475.1796875 120.322265625 478.219726562 121.213867188 480.897460938 c 2
 121.270507812 481.064453125 l 1
 121.3359375 481.228515625 l 1
 127.327148438 496.20703125 l 2
 136.326171875 519.206054688 146.229492188 544.942382812 156.272460938 574.06640625 c 2
 184.314453125 646.174804688 l 1
 184.475585938 646.58984375 l 1
 184.697265625 646.9765625 l 2
 188.568359375 653.751953125 192.603515625 660 199.90625 660 c 2
 600.90625 660 l 2
 610.446289062 660 617.743164062 654.258789062 616.890625 643.106445312 c 0
 616.666992188 634.608398438 611.262695312 618.26171875 600.428710938 592.653320312 c 2
 334.895217274 -2.3466796875 l 1
 333.26678537 -6 l 1
 329.103530218 -6 l 1
 272.470970105 -6 l 1
 264.931023136 -6 l 1
 266.279856355 1.0732421875 l 1
 268.377358582 11.845703125 l 1
 268.500259103 12.4736328125 l 1
 268.763471052 13.0615234375 l 1
 516.7421875 568.811523438 l 2
 515.947265625 568.986328125 515.75390625 569 514.90625 569 c 2
 221.90625 569 l 2
 210.592773438 569 198.627929688 557.20703125 193.09765625 547.990234375 c 2
EndSplineSet
Validated: 524289
Substitution2: "'onum' Oldstyle Figures in Latin lookup 0-1" seven.onum
EndChar
StartChar: eight
Encoding: 56 56 45
Width: 536
Flags: W
HStem: -13 34<206.972 315.415> 641 32<339.052 449.245>
VStem: 101 69<56.817 215.346> 190 83.0625<456.371 564.467> 399.5 83.5<112.367 226.721> 477 68<472.555 616.107>
LayerCount: 2
Fore
SplineSet
251.673461914 615.352539062 m 0xf8
 295.321044922 653.350585938 345.799133301 673 403.75 673 c 0
 481.452148438 673 545 623.926757812 545 547 c 0xf4
 545 509.033203125 527.078125 469.69140625 491.515625 429.048828125 c 0
 458.998046875 392.869140625 427.181640625 367.778320312 396.846862793 354.946289062 c 1
 425.043945312 328.662109375 441.166015625 310.291992188 450.979492188 295.959960938 c 0
 472.58203125 264.913085938 483 231.49609375 483 195.34375 c 0
 483 137.743164062 451.034179688 85.865234375 417.84576416 53.9638671875 c 0
 371.252441406 10.27734375 318.538330078 -11.9951171875 258.245605469 -13 c 0
 184.9453125 -13 136.284179688 17.7822265625 112.383789062 78.6357421875 c 0
 105.163085938 97.763671875 101 116.895507812 101 135.3515625 c 0
 101 197.202148438 134.510742188 249.756835938 198.713867188 291.53125 c 0
 233.921203613 313.14453125 255.68170166 327.408203125 260.884216309 332.330078125 c 0
 259.923400879 334.05859375 258.261169434 336.353515625 255.443054199 339.459960938 c 0
 236.114685059 360.173828125 219.870117188 382.145507812 208.736328125 402.891601562 c 0
 196.330078125 424.081054688 190 447.822265625 190 475 c 0
 190 529.596679688 210.702148438 577.215820312 251.673461914 615.352539062 c 0xf8
285.8125 316 m 0
 280.471984863 316 276.071533203 314.346679688 269.243103027 307.919921875 c 0
 262.757080078 300.797851562 255.76574707 294.413085938 248.301269531 289.26171875 c 0
 200.154296875 248.473632812 170 203.0703125 170 115 c 0
 170 71.9443359375 187.642578125 44.4697265625 222.495178223 28.4970703125 c 0
 234.594604492 23.751953125 245.614929199 21 256.0625 21 c 0
 281.33215332 21 296.798583984 27.3857421875 315.636169434 37.2353515625 c 0
 356.033996582 58.68359375 399.5 99.134765625 399.5 156 c 0xf8
 399.5 182.5859375 390.533081055 199.459960938 380.945678711 220.515625 c 0
 367.4921875 246.813476562 351.714477539 269.561523438 334.198791504 287.986328125 c 0
 315.555236816 307.483398438 298.865478516 316 285.8125 316 c 0
397.581481934 394.638671875 m 0
 436.926757812 425.598632812 477 490.354492188 477 554 c 0xf4
 477 608.764648438 452.435546875 641 396.3125 641 c 0
 331.219848633 641 273.0625 581.873046875 273.0625 519 c 0
 273.0625 488.13671875 289.945251465 454.561523438 326.607727051 418.084960938 c 0
 347.496643066 396.551757812 361.755310059 384.856445312 364.024536133 383.787109375 c 2
 364.328552246 383.692382812 l 2
 366.780395508 382.922851562 371.823120117 382 375.0625 382 c 0
 378.178405762 382 385.928222656 385.665039062 397.581481934 394.638671875 c 0
EndSplineSet
Validated: 524289
Substitution2: "'onum' Oldstyle Figures in Latin lookup 0-1" eight.onum
EndChar
StartChar: nine
Encoding: 57 57 46
Width: 536
Flags: W
HStem: -14 31.0908<20.0243 78.1736> 216 40<239.026 362.791> 635 38<295.211 431.245>
VStem: 93 100.122<301.849 488.806> 468 97<366.557 569.832>
LayerCount: 2
Fore
SplineSet
230.134446747 629.916992188 m 0
 273.814174107 658.577148438 319.782884247 673 367.979591837 673 c 0
 489.38671875 673 565 588.846679688 565 472 c 0
 565 264.217773438 354.882991869 94.291015625 194.662328603 25.5595703125 c 0
 131.881835938 -1.052734375 77.0986328125 -14 28 -14 c 0
 22.3759765625 -14 19 -8.6533203125 19 -4 c 0
 19 6.5556640625 27.59765625 13.05859375 40.025390625 17.0908203125 c 0
 72.3212890625 28.5234375 115.456054688 48.9931640625 150.677674585 66.3974609375 c 0
 276.283063616 129.041015625 346.389768017 185.452148438 364.018594547 233.784179688 c 1
 327.638811384 225.759765625 297.804787149 216 252.448979592 216 c 0
 153.589724171 216 93 294.452148438 93 386.528320312 c 0
 93 494.456054688 159.07027264 581.700195312 230.134446747 629.916992188 c 0
370.06122449 635 m 2
 367.979591837 635 l 2
 249.998385682 635 193.12244898 510.431640625 193.12244898 384.958007812 c 0
 193.12244898 326.142578125 213.157146843 287.494140625 253.39323581 267.07421875 c 0
 266.976702009 259.732421875 283.373624841 256 304.489795918 256 c 0
 350.349748884 256 385.171356824 275.615234375 408.10285794 299.012695312 c 0
 447.951171875 341.221679688 468 411.993164062 468 511 c 0
 468 596.328125 435.66009646 635 370.06122449 635 c 2
EndSplineSet
Validated: 524289
Substitution2: "'onum' Oldstyle Figures in Latin lookup 0-1" nine.onum
EndChar
StartChar: colon
Encoding: 58 58 47
Width: 309
Flags: W
HStem: -14 123<128.044 203.403> 302 123<191.633 267.472>
VStem: 113.008 104.979<-0.353957 94.9884> 177.004 104.983<315.84 411.421>
LayerCount: 2
Fore
SplineSet
234.987304688 425 m 0xd0
 263.169921875 425 281.987304688 400.170898438 281.987304688 369 c 0
 281.987304688 331.71484375 258.192382812 302 225.987304688 302 c 0
 192.0703125 302 175.9375 334.663085938 176.990234375 365.20703125 c 2
 177.00390625 365.583007812 l 1
 177.063476562 365.955078125 l 2
 182.275390625 398.267578125 200.030273438 425 234.987304688 425 c 0xd0
170.987304688 109 m 0
 200.022460938 109 217.987304688 85.1650390625 217.987304688 54 c 0
 217.987304688 16.91015625 195.337890625 -14 161.987304688 -14 c 0
 124.958984375 -14 110.88671875 20.8681640625 113.0078125 49.501953125 c 0xe0
 116.244140625 84.025390625 140.3671875 109 170.987304688 109 c 0
EndSplineSet
Validated: 524321
EndChar
StartChar: semicolon
Encoding: 59 59 48
Width: 309
Flags: W
HStem: 302 123<186.994 263.847>
VStem: 142.009 77<-59.5384 50.623> 172.009 106<315.536 410.39>
LayerCount: 2
Fore
SplineSet
230.008789062 425 m 0xa0
 258.384765625 425 278.008789062 398.12890625 278.008789062 367 c 0
 278.008789062 329.307617188 252.741210938 302 220.008789062 302 c 0
 191.633789062 302 172.008789062 328.87109375 172.008789062 360 c 0
 172.008789062 390.125 192.579101562 425 230.008789062 425 c 0xa0
162.008789062 109 m 0
 197.100585938 109 219.008789062 72.24609375 219.008789062 29 c 0
 219.008789062 -51.6826171875 173.041015625 -118.580078125 75.087890625 -177.149414062 c 2
 74.89453125 -177.265625 l 1
 74.6923828125 -177.366210938 l 2
 66.9423828125 -181.241210938 58.2294921875 -180.293945312 53.208984375 -173.599609375 c 2
 52.884765625 -173.166992188 l 1
 52.642578125 -172.68359375 l 2
 44.28515625 -155.96875 59.2119140625 -145.520507812 64.16796875 -141.390625 c 2
 64.451171875 -141.155273438 l 1
 64.759765625 -140.956054688 l 2
 123.153320312 -103.346679688 142.008789062 -72.08984375 142.008789062 -40 c 0xc0
 142.008789062 -26.189453125 139.784179688 -20.951171875 127.770507812 1.0751953125 c 0
 115.57421875 22.41796875 111.008789062 37.7490234375 111.008789062 53 c 0
 111.008789062 83.6494140625 132.1796875 109 162.008789062 109 c 0
EndSplineSet
Validated: 524321
EndChar
StartChar: less
Encoding: 60 60 49
Width: 703
Flags: W
LayerCount: 2
Fore
SplineSet
633 60.8701171875 m 1
 624.619140625 64.4921875 l 1
 73.619140625 297.4921875 l 1
 70 299.056640625 l 1
 70 303 l 1
 70 354 l 1
 70 357.94921875 l 1
 73.6279296875 359.510742188 l 1
 624.627929688 591.510742188 l 1
 633 595.115234375 l 1
 633 586 l 1
 633 522 l 1
 633 518.018554688 l 1
 629.33203125 516.471679688 l 1
 170.440429688 328 l 1
 629.33203125 139.528320312 l 1
 633 137.981445312 l 1
 633 134 l 1
 633 70 l 1
 633 60.8701171875 l 1
EndSplineSet
Validated: 524289
EndChar
StartChar: equal
Encoding: 61 61 50
Width: 703
Flags: W
HStem: 182 71<70 633> 412 71<70 633>
LayerCount: 2
Fore
SplineSet
633 412 m 1
 627 412 l 1
 76 412 l 1
 70 412 l 1
 70 418 l 1
 70 477 l 1
 70 483 l 1
 76 483 l 1
 627 483 l 1
 633 483 l 1
 633 477 l 1
 633 418 l 1
 633 412 l 1
633 182 m 1
 627 182 l 1
 76 182 l 1
 70 182 l 1
 70 188 l 1
 70 247 l 1
 70 253 l 1
 76 253 l 1
 627 253 l 1
 633 253 l 1
 633 247 l 1
 633 188 l 1
 633 182 l 1
EndSplineSet
Validated: 1
EndChar
StartChar: greater
Encoding: 62 62 51
Width: 703
Flags: W
LayerCount: 2
Fore
SplineSet
633 298.05078125 m 1
 629.372070312 296.489257812 l 1
 78.3720703125 64.4892578125 l 1
 70 60.884765625 l 1
 70 70 l 1
 70 134 l 1
 70 137.9921875 l 1
 73.6826171875 139.534179688 l 1
 533.497070312 327.014648438 l 1
 73.6728515625 515.469726562 l 1
 70 517.015625 l 1
 70 521 l 1
 70 586 l 1
 70 595.129882812 l 1
 78.380859375 591.5078125 l 1
 629.380859375 358.5078125 l 1
 633 356.943359375 l 1
 633 353 l 1
 633 302 l 1
 633 298.05078125 l 1
EndSplineSet
Validated: 524289
EndChar
StartChar: question
Encoding: 63 63 52
Width: 415
Flags: W
HStem: -14 123<108.55 182.226> 571 91<186.786 335.163>
VStem: 94 103<-0.370895 95.0565> 153.014 34.8379<148.481 213.935> 358 50<440.595 547.632>
LayerCount: 2
Fore
SplineSet
258 662 m 0xd8
 346.668945312 662 408 593.602539062 408 495 c 0
 408 431.809570312 387.78515625 374.251953125 353.16015625 340.67578125 c 0
 330.150390625 318.711914062 302.600585938 306.5859375 276.806640625 292.696289062 c 0
 252.022460938 279.80859375 230.586914062 265.805664062 215.307617188 236.201171875 c 0
 201.298828125 210.185546875 196.814453125 200.510742188 187.8515625 161.674804688 c 0
 185.69140625 151.951171875 174.37109375 147.845703125 166.447265625 148.309570312 c 0
 159.650390625 148.70703125 152.33203125 153.86328125 153.013671875 163.401367188 c 0
 158.0546875 244.061523438 178.061523438 309.09765625 204.189453125 343.5859375 c 0
 227.453125 375.309570312 269.525390625 393.520507812 299.846679688 412.104492188 c 0
 333.455078125 432.862304688 358 454.995117188 358 497 c 0
 358 538.341796875 324.193359375 571 276 571 c 0
 248.114257812 571 221.344726562 555 192 555 c 0
 170.887695312 555 158 577.603515625 158 601 c 0
 158 639.91796875 205.591796875 662 258 662 c 0xd8
149 109 m 0
 177.908203125 109 197 85.359375 197 54 c 0
 197 16.8525390625 174.258789062 -14 140 -14 c 0
 101.552734375 -14 94 20.8916015625 94 48 c 2
 94 48.2802734375 l 1xe8
 94.0263671875 48.5595703125 l 2
 97.2177734375 82.6025390625 119.943359375 109 149 109 c 0
EndSplineSet
Validated: 524289
EndChar
StartChar: at
Encoding: 64 64 53
Width: 957
Flags: W
HStem: -213 47<410.377 693.197> 2 77<369.965 472.87> 2 52<639.485 761.238> 450 40<541.275 632.611> 669 43<461.262 717.241>
VStem: 100 63<85.9814 356.879> 299.461 96.7789<90.4056 234.941> 581.647 97.522<55.7756 126.805> 906 46<243.46 487.809>
LayerCount: 2
Fore
SplineSet
992.846679688 91.638671875 m 1xbf80
 991.704101562 88.1376953125 l 2
 927.817382812 -107.577148438 752.912675951 -213 547.010798093 -213 c 0
 289.109165423 -213 100 -33.529296875 100 225.313476562 c 0
 100 503.828125 311.307227928 712 584.703631518 712 c 0
 803.513673272 712 952 578.389648438 952 367 c 0
 952 168.0625 826.831935589 2 667.220374962 2 c 0xbf80
 611.750587344 2 581.647455835 28.802734375 581.647455835 80 c 0
 581.647455835 94.6103515625 582.930810858 108.168945312 585.626851255 127.716796875 c 1
 584.970251011 126.953125 585.024967698 127.02734375 584.383290186 126.250976562 c 0
 557.918320941 93.279296875 546.189052938 80.7041015625 521.574502564 58.5556640625 c 0
 481.117979019 22.916015625 437.217288737 2 399.295640076 2 c 0xdf80
 340.63437733 2 299.460567761 58.146484375 299.460567761 128 c 0
 299.460567761 216.172851562 352.178603446 327.1953125 429.547004064 406.1796875 c 0
 482.104869083 458.783203125 538.259112714 490 586.741081973 490 c 0
 624.248873511 490 653.393965572 474.62109375 670.666531396 439.650390625 c 0
 671.162960975 438.67578125 671.381827723 438.302734375 671.381827723 438.302734375 c 2
 672.419455079 440.171875 674.003254456 442.751953125 675.127433663 444.151367188 c 0
 682.167979011 462.439453125 695.289040562 472.17578125 706.036392744 475.692382812 c 2
 706.411450763 475.814453125 l 1
 706.798446967 475.888671875 l 1
 748.566181303 483.888671875 l 1
 749.421751319 484.052734375 l 1
 750.290254369 483.975585938 l 2
 765.7750768 482.59375 772.235625266 471.171875 769.031217103 449.151367188 c 2
 768.977495265 448.78125 l 1
 768.878010379 448.420898438 l 2
 764.009220082 430.899414062 679.569433801 205.663085938 679.169504561 101.954101562 c 0
 679.041169059 68.7783203125 687.102429332 54 701.857032704 54 c 0
 735.523712812 54 786.473902081 83.6708984375 820.392278949 124.799804688 c 0
 874.323242188 189.536132812 906 284.31640625 906 376 c 0
 906 553.498046875 775.453961312 669 588.778532429 669 c 0
 350.108322978 669 163 474.010742188 163 212.559570312 c 0
 163 -16.9990234375 321.989914935 -166 549.048248548 -166 c 0
 730.20724053 -166 872.344281016 -80.580078125 947.47265625 97.333984375 c 2
 947.928710938 98.4140625 l 1
 948.7578125 99.2421875 l 2
 953.306640625 103.791992188 960.403320312 109 969 109 c 2
 969.374023438 109 l 1
 969.744140625 108.954101562 l 2
 981.047851562 107.541015625 986.427734375 98.0576171875 990.2421875 94.2421875 c 2
 992.846679688 91.638671875 l 1xbf80
624.723416415 272.825195312 m 0
 639.875959328 320.420898438 646.845870408 357.002929688 646.845870408 384 c 0
 646.845870408 424.711914062 623.408226228 450 591.834708112 450 c 0
 567.961320134 450 538.788372305 434.342773438 513.992759438 405.134765625 c 0
 450.643768887 332.091796875 396.239464393 209.583007812 396.239464393 143 c 0
 396.239464393 106.115234375 420.188460883 79 446.15700055 79 c 0xdf80
 482.485896195 79 523.973083153 107.850585938 573.684685598 173.578125 c 0
 599.939741735 208.271484375 609.534064094 227.1015625 624.723416415 272.825195312 c 0
EndSplineSet
Validated: 524321
EndChar
StartChar: A
Encoding: 65 65 54
Width: 717
Flags: W
HStem: -2 39<-42.1468 36.5363 141.115 231.922 379.814 491.025 613.806 699.831> 273 57<337.799 504.075>
VStem: 506.23 101.767<50.0336 273 330.953 548.168>
LayerCount: 2
Fore
SplineSet
699.883789062 13.3642578125 m 0
 698.8203125 3.966796875 693.096679688 -3.193359375 679.606445312 -1.9892578125 c 0
 603.840820312 1.0009765625 463.329104466 0.0009765625 393.630530484 -2 c 0
 383.146931747 -2 379.97053839 8.3642578125 379.714426044 14.705078125 c 0
 379.392284733 22.6787109375 383.584123526 35 396.613839142 35 c 0
 485.679908872 35 505.205473958 50.275390625 505.205473958 109.11328125 c 2
 504.186026767 267.319335938 l 2
 501.848001169 270.41015625 497.17395085 273 495.985429493 273 c 2
 294.168900636 273 l 2
 291.025521761 273 288.572445695 271.87890625 284.493656493 268.198242188 c 2
 156.687593073 106.629882812 l 2
 144.730347907 91.4541015625 138.452594107 77.619140625 138.452594107 69.181640625 c 0
 138.452594107 41.8330078125 165.481450588 38.0048828125 190.954624652 36.9951171875 c 2
 191.132702768 36.9873046875 l 1
 191.310780884 36.970703125 l 2
 200.813949545 36.04296875 208.593362063 37 217.335196757 37 c 0
 228.305008775 37 232.053653156 26.8447265625 232.064657983 19.8349609375 c 0
 232.077663688 11.3125 227.334583088 -2 214.151800328 -2 c 0
 156.734613699 -5.998046875 35.1494140625 -5.998046875 -28.91015625 -2 c 0
 -38.154296875 -2 -42.0263671875 6.2080078125 -42.4814453125 12.37109375 c 0
 -43.2138671875 22.287109375 -36.4345703125 33.6259765625 -22.5458984375 34.3408203125 c 0
 28.154296875 44.0283203125 47.654296875 56.1337890625 100.797076134 123.364257812 c 2
 526.449792993 653.999023438 l 2
 529.933321078 660.5546875 535.783887488 662.391601562 542.036630317 663.955078125 c 0
 555.338465301 667.950195312 573.654499814 666.950195312 585.0703125 664.903320312 c 2
 585.325195312 664.856445312 l 1
 585.575195312 664.7890625 l 2
 599.33984375 661.034179688 601.997070312 651.782226562 601.997070312 642.03125 c 2
 607.997070312 84.421875 l 2
 607.997070312 45.673828125 627.978515625 40.009765625 649.68359375 37.23046875 c 0
 658.717773438 36.34375 667.590820312 37.2685546875 676.997070312 37.2685546875 c 2
 683.997070312 37.2685546875 l 1
 684.422851562 37.2685546875 l 1
 684.844726562 37.208984375 l 2
 696.158203125 35.623046875 701.876953125 25.140625 699.883789062 13.3642578125 c 0
492.890071683 331 m 2
 503.653793298 331 506.229923343 336.819335938 506.229923343 338.776367188 c 2
 506.229923343 540 l 2
 506.229923343 545.297851562 505.039401109 547.734375 504.735267698 548.190429688 c 0
 503.744833233 547.958007812 501.604894528 546.647460938 499.896144968 544.423828125 c 2
 338.050149589 335.298828125 l 1
 337.939100876 335.155273438 l 1
 337.819048214 335.018554688 l 2
 337.433879255 334.579101562 334.069403394 330 347.418259004 330 c 2
 492.890071683 331 l 2
EndSplineSet
Validated: 524321
EndChar
StartChar: B
Encoding: 66 66 55
Width: 670
Flags: W
HStem: -3 44<17.5183 111.33 247.666 446.891> 351 31<299.676 442.96> 606 40<138.142 226.979 343.991 514.832>
VStem: 531.785 109.215<124.603 271.615> 554 105<440.726 573.774>
LayerCount: 2
Fore
SplineSet
446.22969212 646 m 2xf0
 578.094726562 646 659 594.8125 659 501 c 0xe8
 659 429.04296875 602.232421875 374.533203125 513.372403773 355.614257812 c 1
 593.676757812 326.259765625 641 266.020507812 641 193.325195312 c 0
 641 70.6142578125 532.20731296 -3.984375 354.429768103 -3 c 0
 249.31726464 -2 122.049804688 -2 35.0341796875 -3 c 0
 22.9248046875 -3 17.22265625 6.5068359375 17.15234375 15.001953125 c 0
 17.0732421875 24.6015625 23.6064453125 37.072265625 37 37.072265625 c 0
 46.9169921875 37.072265625 57.98046875 37.099609375 67.2861328125 38.0087890625 c 0
 106.69921875 43.3837890625 120.190429688 62.0146484375 135.130859375 129.1875 c 2
 221.649245083 515.223632812 l 2
 225.609297071 533.662109375 229.998170144 552.598632812 229.850196671 568.24609375 c 0
 229.621693417 592.391601562 220.59430495 609.58203125 176.248567718 609.000976562 c 2
 175.864038013 608.995117188 l 1
 175.481521553 609.037109375 l 2
 168.111033333 609.831054688 159.438982526 608.223632812 152.491275658 608.946289062 c 0
 140.925185841 609.869140625 136.875976562 618.220703125 138.074431588 628.755859375 c 0
 139.424312045 637.923828125 146.210959351 646 155.549394097 646 c 2
 446.22969212 646 l 2xf0
491.626342997 406.219726562 m 0
 533.272319316 429.306640625 554 462.07421875 554 509 c 0
 554 551.241210938 535.951947784 580.584960938 504.667134431 593.4609375 c 0
 483.32372256 601.931640625 453.120021519 606 404.998444174 606 c 2
 356.551727836 606 l 2
 351.000206049 606 346.182511892 602.486328125 343.881373395 598.963867188 c 2
 299.706761948 388.672851562 l 2
 298.997093252 385.918945312 301.938443508 382 308.105011499 382 c 2
 356.551727836 382 l 2
 428.409458175 382 459.838218512 388.873046875 491.626342997 406.219726562 c 0
461.269635371 69.9375 m 0
 504.759743679 99.6630859375 531.784531609 150.78125 531.784531609 210 c 0xf0
 531.784531609 295.990234375 465.776283249 351 350.367040644 351 c 2
 295.735637115 351 l 2
 294.530710265 351 288.452725033 348.372070312 287.500460371 347.423828125 c 2
 287.355506765 346.756835938 l 1
 243.046007934 143.825195312 l 2
 240.00802194 128.103515625 238.01188999 115.120117188 238.01188999 107 c 0
 238.01188999 58.142578125 248.754562795 41 334.905322664 41 c 0
 397.381333499 41 427.511551115 47.783203125 461.269635371 69.9375 c 0
EndSplineSet
Validated: 524321
EndChar
StartChar: C
Encoding: 67 67 56
Width: 736
Flags: W
HStem: -18 45<259.759 478.427> 618 45<381.558 619.442>
VStem: 29 109<165.912 384.629> 679 71.8262<509.497 562.299>
LayerCount: 2
Fore
SplineSet
692.849609375 439.848632812 m 0
 684.729492188 441.20703125 674.98828125 448.537109375 677.08984375 459.044921875 c 0
 679.103515625 472.133789062 679 471.900390625 679 483 c 0
 679 572.328125 627.95572967 618 508.9363214 618 c 0
 305.000045281 618 138 466.60546875 138 272.024414062 c 0
 138 121.4296875 220.453704829 27 364.346517077 27 c 0
 473.884429702 27 562.154069774 78.6064453125 632.070586621 176.430664062 c 1
 632.070586621 176.430664062 649.666015625 184.337890625 655.83984375 182.004882812 c 0
 662.263671875 179.576171875 669.580078125 172.392578125 665.559570312 162.743164062 c 0
 648.752929688 120.231445312 623.468342473 43.05078125 613.319897513 6.4345703125 c 1
 607.411487679 7.9921875 597.559464637 -5.0283203125 585.191861001 2.5341796875 c 0
 571.922974509 6.515625 571.019688802 7 557.132922841 7 c 0
 545.15787796 7 542.08450342 7.146484375 495.807634463 -1.87890625 c 0
 440.24054211 -12.91796875 399.759923342 -18 359.219219051 -18 c 0
 178.22259447 -18 29 92.240234375 29 277.788085938 c 0
 29 495.255859375 243.094931599 663 516.114538636 663 c 0
 594.805544799 663 669.592773438 648.850585938 739.392578125 618.501953125 c 2
 739.692382812 618.372070312 l 1
 739.9765625 618.208984375 l 2
 749.544921875 612.7421875 755.217773438 601.228515625 750.826171875 582.565429688 c 0
 741.700195312 547.076171875 724.7421875 495.260742188 711.735351562 452.237304688 c 0
 708.663085938 442.40625 700.283203125 438.604492188 692.849609375 439.848632812 c 0
EndSplineSet
Validated: 524321
EndChar
StartChar: D
Encoding: 68 68 57
Width: 817
Flags: W
HStem: -3 46<1.7065 105.235 224.43 468.67> 603.009 42.9912<111.281 216.306 331.476 525.251>
VStem: 690.998 113<257.122 462.792>
LayerCount: 2
Fore
SplineSet
436.727600214 646 m 2
 657.475705093 646 803.998046875 532.248046875 803.998046875 357.336914062 c 0
 803.998046875 154.099609375 616.068721763 -3.9921875 373.377320491 -3 c 0
 272.169341475 -9 132.253511354 -8 19.025390625 -3 c 0
 8.8232421875 -3 2.5810546875 4.0126953125 1.29296875 11.7255859375 c 0
 -0.5869140625 22.9833984375 6.646484375 37.572265625 22.0625 39.953125 c 2
 22.2578125 39.982421875 l 1
 22.455078125 40 l 2
 33.501953125 40.982421875 43.2783203125 41.94140625 55.6240234375 42.9482421875 c 0
 100.776367188 44.787109375 108.1640625 53.1318359375 125.22179794 129.26171875 c 2
 213.09676225 526.266601562 l 2
 216.541274057 541.8828125 218.271512606 554.440429688 218.407217591 564.340820312 c 0
 218.979972451 605.994140625 193.401578574 604.155273438 126.06795843 605 c 0
 115.78125 605 110.978515625 613.454101562 110.94140625 620.905273438 c 0
 110.889648438 631.359375 118.509765625 646 133.259324767 646 c 2
 436.727600214 646 l 2
462.446688229 61.322265625 m 0
 595.802778889 101.671875 690.998046875 224.745117188 690.998046875 362.161132812 c 0
 690.998046875 366.419921875 690.916015625 370.61328125 690.752929688 374.740234375 c 0
 683.945161844 547.338867188 532.698963366 609.6484375 360.453416399 603.008789062 c 0
 345.170640375 601.858398438 335.860879321 603.0078125 331.256888163 592.318359375 c 2
 226.106479787 116.150390625 l 2
 223.095026533 102.629882812 221.582315091 91.5615234375 221.558367152 82.69921875 c 0
 221.462575399 47.271484375 243.439798037 43 311.048819473 43 c 0
 366.732765415 43 425.618750287 49.876953125 462.446688229 61.322265625 c 0
EndSplineSet
Validated: 524321
EndChar
StartChar: E
Encoding: 69 69 58
Width: 686
Flags: W
HStem: -2 45<2.36674 106.978 227.915 508.725> 305.285 45.0186<282.386 522.45> 607.046 38.9541<118.28 216.435 334.589 605.013>
VStem: 531.866 35.8643<217.281 289.836> 570.901 33.7314<384.349 416.457> 635.996 32.2646<485 567.274>
LayerCount: 2
Fore
SplineSet
570.901367188 410.248046875 m 0
 571.331054688 411.13671875 573.91015625 416.4609375 573.91015625 416.4609375 c 2
 578.04296875 425.190429688 589.301757812 422.565429688 595.97265625 420.71875 c 0
 602.140625 419.01171875 607.502929688 413.119140625 604.6328125 404.921875 c 0
 593.711914062 361.969726562 575.826171875 273.482421875 567.73046875 228.94140625 c 0
 566.53515625 222.102539062 558.551757812 217.12109375 550.749023438 216.829101562 c 0
 539.268554688 216.3984375 531.866210938 226.754882812 531.866210938 245.5859375 c 0
 531.866210938 292.345703125 513.93359375 305.28515625 428.115234375 305.28515625 c 2
 287.383789062 305.28515625 l 2
 275.625 305.28515625 271.096679688 303.087890625 269.803710938 296.3125 c 2
 225.608398438 100.470703125 l 2
 224.094726562 93.93359375 223.405273438 88.2568359375 223.377929688 83.2763671875 c 0
 223.153320312 42.46875 269.83984375 43 320.255859375 43 c 2
 392.162109375 43 l 2
 461.221679688 43 501.619140625 55.630859375 540.595703125 82.8720703125 c 0
 573.46875 105.874023438 584.489257812 113.98828125 612.14453125 150.532226562 c 0
 616.90625 157.334960938 624.71875 159.928710938 631.158203125 159.212890625 c 0
 637.172851562 158.544921875 645.044921875 154.021484375 643.94921875 145.255859375 c 2
 643.849609375 144.458007812 l 1
 643.543945312 143.715820312 l 2
 629.677734375 110.040039062 607.040039062 21.2841796875 597.731445312 9.31640625 c 2
 597.502929688 9.021484375 l 1
 597.23828125 8.7578125 l 2
 587.841796875 -0.6396484375 580.615234375 -2 552.365234375 -2 c 0
 411.560546875 -5.9990234375 177.565429688 -4.9990234375 19.052734375 -2 c 0
 7.0595703125 -2 0.685546875 10.25390625 2.0556640625 19.8486328125 c 2
 2.0888671875 20.076171875 l 1
 2.138671875 20.3017578125 l 2
 4.423828125 30.5849609375 11.4375 41 22.7236328125 41 c 0
 34.775390625 42.095703125 48.5732421875 40.119140625 55.3740234375 40.96875 c 0
 100.858398438 44.66796875 112.274414062 57.5556640625 125.212890625 118.325195312 c 2
 215.61328125 527.25390625 l 2
 220.70703125 550.063476562 221.641601562 561.534179688 221.641601562 569 c 0
 221.641601562 594.127929688 202.310546875 607 160.006835938 607 c 2
 132.915039062 607 l 1
 132.534179688 607.045898438 l 2
 119.965820312 608.58203125 116.845703125 619.375976562 118.055664062 627.848632812 c 2
 118.088867188 628.076171875 l 1
 118.138671875 628.301757812 l 2
 120.997070312 641.165039062 133.782226562 646 143.571289062 646 c 2
 665.99609375 646 l 2
 669.537109375 646 672.811523438 645.8828125 675.885742188 645.4765625 c 0
 689.776367188 643.640625 696.602539062 633.928710938 693.9140625 616.010742188 c 0
 687.034179688 578.663085938 673.681640625 519.18359375 668.260742188 497.329101562 c 0
 667.446289062 484.3046875 657.630859375 485 651.99609375 485 c 2
 651.819335938 485 l 1
 651.643554688 485.010742188 l 2
 628.1640625 486.391601562 635.99609375 507.775390625 635.99609375 515 c 0
 635.99609375 578.55859375 608.216796875 603 526.729492188 603 c 2
 354.154296875 603 l 2
 341.56640625 603 336.515625 602.2421875 334.4921875 593.708984375 c 2
 282.123046875 355.975585938 l 2
 281.442382812 352.736328125 282.505859375 350.303710938 296.62890625 350.303710938 c 2
 465.095703125 350.303710938 l 2
 524.922851562 350.303710938 548.624023438 365.671875 570.901367188 410.248046875 c 0
EndSplineSet
Validated: 524321
EndChar
StartChar: F
Encoding: 70 70 59
Width: 573
Flags: W
HStem: -2 39<8.34929 95.7887 223.604 320.943> 304.763 45.0752<280.567 476.646> 604 42<125.719 213.567 337.302 556.941>
VStem: 487.138 35.7868<214.509 291.296> 527.548 33.2236<391.152 423.892> 574.987 32.5469<485.189 527.342>
LayerCount: 2
Fore
SplineSet
615.491210938 644.754882812 m 0
 625.6796875 642.6484375 637.3125 635.168945312 633.858398438 618.76171875 c 2
 607.534179688 494.2265625 l 2
 605.640625 487.208984375 595.6875 485.8671875 590.973632812 485.08203125 c 2
 590.696289062 485.03515625 l 1
 590.415039062 485.015625 l 2
 567.889648438 483.40625 574.987304688 513.424804688 574.987304688 515 c 0
 574.987304688 584.395507812 554.708984375 604 480.945639342 604 c 2
 355.034385754 604 l 2
 351.730586051 604 340.706497843 603.6875 337.128557347 593.982421875 c 2
 334.966674991 588.115234375 l 2
 334.392188771 588.333984375 322.429773069 553.565429688 278.532978605 360.409179688 c 0
 276.997991738 353.120117188 278.77587541 349.845703125 286.918461682 349.845703125 c 2
 287.073673748 349.845703125 l 1
 287.227877944 349.837890625 l 2
 307.281478519 348.885742188 393.310286093 349.845703125 429.282194326 349.845703125 c 0
 480.126240575 350.791992188 498.760759399 363.895507812 527.547851562 415.924804688 c 0
 529.748046875 419.874023438 542.45703125 426.315429688 551.942382812 424 c 0
 560.944335938 421.801757812 563.880859375 412.522460938 560.771484375 401.204101562 c 0
 545.845703125 349.518554688 527.888671875 265.409179688 522.924804688 227.458984375 c 0
 521.286132812 217.822265625 512.378098564 214.426757812 505.561869952 214.130859375 c 0
 499.198175223 213.853515625 487.137996076 216.095703125 487.137996076 226.356445312 c 0
 487.137996076 291.107421875 471.911087623 304.762695312 414.893834181 304.762695312 c 2
 274.533748214 304.762695312 l 2
 273.210414166 304.762695312 266.519161504 302.383789062 265.119229293 295.73828125 c 2
 224.866894782 114.416015625 l 2
 221.6719451 99.5 219.575574331 86.8505859375 219.470755792 76.748046875 c 0
 219.193591388 50.046875 230.808291746 38.38671875 284.11859726 38.18359375 c 0
 288.575400886 39.162109375 293.025149418 39.654296875 297.804471624 39.4248046875 c 0
 308.712654718 38.90234375 321.941963716 33.0029296875 320.966345012 17.2568359375 c 2
 320.947195472 16.9443359375 l 1
 320.892770461 16.634765625 l 2
 319.673247081 9.6904296875 314.949357756 -0.640625 300.952051389 -1.970703125 c 2
 300.599296692 -2.00390625 l 1
 300.245534125 -1.9990234375 l 2
 229.107006237 -1 99.033203125 -1 23.02734375 -2 c 0
 11.298828125 -2 7.703125 8.869140625 8.22265625 16.4130859375 c 0
 8.8671875 25.7705078125 14.955078125 37.9052734375 27.6005859375 37 c 2
 37.9873046875 37 l 2
 88.3681640625 37 105.376953125 49.1865234375 120.118164062 118.2578125 c 2
 211.720231169 527.274414062 l 2
 216.862386777 550.193359375 217.770478154 558.5625 217.770478154 567 c 0
 217.770478154 590.1796875 198.069632275 605 156.878970271 605 c 2
 139.333959525 605 l 2
 128.573933404 605 125.243164062 615.176757812 125.424804688 622.083007812 c 0
 125.717773438 633.185546875 133.322011622 646.846679688 150.437669508 645.993164062 c 0
 265.317779794 645.008789062 460.762023465 645.002929688 599.965820312 646 c 0
 604.376953125 646 609.927734375 645.904296875 615.491210938 644.754882812 c 0
EndSplineSet
Validated: 524321
EndChar
StartChar: G
Encoding: 71 71 60
Width: 771
Flags: W
HStem: -18 42<299.295 540.71> 215 38.9961<522.989 598.728 714.855 778.744> 620 42<382.834 610.308>
VStem: 61 110<174.179 399.229> 601.268 81.2612<78.913 179.808> 726.203 34.7705<452.576 504.77>
LayerCount: 2
Fore
SplineSet
781.23046875 254.01171875 m 1
 781.662109375 253.962890625 l 2
 789.014648438 253.146484375 791.34765625 246.197265625 791.9140625 241.841796875 c 0
 792.953125 233.858398438 790.98828125 216.577148438 778.744140625 215.045898438 c 2
 778.374023438 215 l 1
 778 215 l 1
 765.345703125 215 l 1
 694.108398438 206.022460938 703.224609375 174.270507812 688.828125 112.571289062 c 0
 685.6953125 100.389648438 682.985351562 89.3212890625 682.529296875 80.2431640625 c 0
 681.724609375 64.2451171875 686.12109375 54.19140625 714.254882812 52.994140625 c 2
 715.278320312 52.951171875 l 1
 716.228515625 52.5712890625 l 2
 720.899414062 50.7021484375 722.629882812 46.3984375 723.576171875 42.8974609375 c 0
 725.534179688 35.66015625 724.34765625 22.40234375 711.479492188 19.185546875 c 0
 624.82808637 -2.943359375 512.743916657 -18 420.860323391 -18 c 0
 235.323334125 -18 61 86.8369140625 61 284.659179688 c 0
 61 494.684570312 240.748860604 662 502.863852755 662 c 0
 580.579013958 662 661.5725145 644.637695312 741.765625 615.754882812 c 0
 750.8984375 612.4765625 754.8984375 603.120117188 756.930664062 589.912109375 c 2
 756.984375 589.557617188 l 1
 756.997070312 589.198242188 l 1
 760.973632812 468.904296875 l 2
 762.41796875 458.631835938 756.028320312 454.2734375 750.447265625 452.490234375 c 0
 743.50390625 450.272460938 729.271484375 449.708984375 726.203125 460.448242188 c 0
 700.841796875 561.892578125 623.628864835 620 498.763676287 620 c 0
 300.764993454 620 171 467.543945312 171 272.006835938 c 0
 171 114.581054688 242.705854011 24 423.935455742 24 c 0
 485.713383168 24 546.831638647 40.37890625 568.273479455 61.296875 c 0
 585.989525142 77.7158203125 601.268087992 148.932617188 601.268087992 177 c 0
 601.268087992 207.840820312 591.682323866 210.001953125 545.237014352 215.037109375 c 2
 535.944548982 216.043945312 l 2
 526.907343622 217.219726562 522.728086601 224.241210938 522.649006049 230.758789062 c 0
 522.537892869 239.900390625 528.961435934 254 540.872568697 254 c 0
 617.790918262 251.999023438 721.952148438 252.001953125 780.796875 253.99609375 c 2
 781.23046875 254.01171875 l 1
EndSplineSet
Validated: 524321
EndChar
StartChar: H
Encoding: 72 72 61
Width: 797
Flags: W
HStem: -2 39<-14.901 83.6902 214.171 312.836 431.292 531.472 660.765 751.972> 308 38<268.433 593.133> 609 37<105.106 203.57 331.353 431.835 566.823 648.78 778.972 849.956>
LayerCount: 2
Fore
SplineSet
104.701171875 620.765625 m 2
 104.758789062 621.764648438 105.113907607 627.759765625 105.113907607 627.759765625 c 2
 105.619456714 636.284179688 111.566624953 646 123.461956606 646 c 0
 193.859669802 648.99609375 336.095115008 648.99609375 411.599073222 646 c 0
 426.75957539 646 433.671068599 636.729492188 432.021067773 627.013671875 c 0
 428.210541135 604.576171875 413.622264827 608 398.47469994 608 c 0
 336.445416752 608 319.548333497 596.198242188 304.594827815 524.783203125 c 2
 268.794387683 355.15234375 l 1
 268.527680673 354.563476562 l 2
 266.418903983 349.90625 269.883109579 346 274.149426554 346 c 2
 599.229444671 346 l 2
 604.074953733 346 611.000379398 352.280273438 611.519860961 355.848632812 c 2
 611.547725872 356.040039062 l 1
 648.278655011 528.247070312 l 2
 651.5448207 543.109375 653.931251329 556.495117188 653.97006317 567.677734375 c 0
 654.058633781 593.071289062 644.089961718 609 594.134146581 609 c 0
 590.695815546 609 587.203745039 608.80859375 583.710679356 608.9765625 c 0
 574.675481826 609.41015625 565.680091312 614.365234375 566.619536897 628.200195312 c 0
 566.619536897 638.379882812 574.480427446 646 585.093973174 646 c 0
 656.455016164 642.999023438 792.017578125 642.015625 851.583984375 645.986328125 c 2
 851.783203125 646 l 1
 851.982421875 646 l 2
 862.653320312 646 868.334960938 635.924804688 865.83984375 624.698242188 c 2
 865.734375 624.223632812 l 1
 865.553710938 623.771484375 l 2
 862.705078125 616.649414062 856.114257812 611.052734375 850.879882812 609.307617188 c 2
 849.956054688 609 l 1
 848.982421875 609 l 2
 840.466796875 609 830.866210938 609.938476562 823.609375 609.03125 c 0
 779.66796875 605.291992188 764.776367188 588.387695312 748.853515625 511.759765625 c 2
 661.254747157 114.028320312 l 2
 658.962858192 104.03515625 657.277031051 94.9404296875 656.554533705 86.7529296875 c 0
 653.879502208 56.4189453125 662.410145806 38.7998046875 710.815477657 35.1162109375 c 0
 714.612071839 34.8125 721.342443125 35.6015625 728.097693795 35.65234375 c 0
 737.578729908 35.7236328125 751.982421875 33.2001953125 751.982421875 17.5478515625 c 0
 751.982421875 2.083984375 738.036510596 -0.1708984375 731.152882298 -1.8212890625 c 2
 730.289070044 -2.0322265625 l 1
 729.400378404 -1.994140625 l 2
 660.341176133 0.9951171875 519.862215522 0.9990234375 450.58208431 -2 c 0
 436.430690006 -2 429.643593723 6.5234375 431.139342361 16.796875 c 0
 432.531592757 27.7314453125 441.483195553 34.697265625 451.640950944 35.943359375 c 0
 465.791350072 38.0791015625 477.697628655 36.103515625 486.498959964 36.9677734375 c 0
 530.205073538 41.6298828125 544.48484547 59.939453125 557.578368314 120.229492188 c 2
 594.279442191 292.301757812 l 2
 597.647115772 306.345703125 591.318795351 308 587.000729255 308 c 2
 267.016009228 308 l 2
 258.292301601 308 256.076045967 306.724609375 254.661901712 299.786132812 c 2
 214.913600736 116.763671875 l 2
 211.589714873 101.274414062 209.487904411 87.921875 209.609315811 77.099609375 c 0
 209.910853959 50.4111328125 221.66586588 36.291015625 275.12768398 37 c 0
 279.946323306 37 287.021025282 37.79296875 293.970335157 37.12890625 c 0
 303.255321715 36.2421875 314.483885845 30.884765625 312.836870545 16.337890625 c 2
 312.812986335 16.130859375 l 1
 312.775169669 15.9267578125 l 2
 310.222544748 2.1494140625 300.586261271 -2.9345703125 290.91614183 -1.9931640625 c 0
 217.595598461 -0.9794921875 77.986328125 0.9951171875 4.1044921875 -2 c 0
 -10.69921875 -2 -16.431640625 9.0087890625 -14.9560546875 17.865234375 c 0
 -13.8515625 26.6962890625 -8.3251953125 37 0.982421875 37 c 2
 20.982421875 37 l 2
 77.203125 37 97.3720703125 53.0673828125 114.289424869 129.966796875 c 2
 201.938503765 528.284179688 l 2
 207.021859749 550.234375 208.929611007 562.853515625 208.929611007 571 c 0
 208.929611007 595.557617188 193.524295689 608 151.862272403 608 c 2
 117.24111513 608 l 1
 116.300674369 608.307617188 l 2
 110.537613581 610.192382812 104.701171875 620.765625 104.701171875 620.765625 c 2
EndSplineSet
Validated: 524321
EndChar
StartChar: I
Encoding: 73 73 62
Width: 380
Flags: W
HStem: -1.99707 36.9971<23.3005 108.723 245.427 336.548> 608.049 37.9512<144.434 230.979 361.706 449.327>
LayerCount: 2
Fore
SplineSet
154.842367442 608.048828125 m 0
 145.757574467 610.697265625 139.985351562 618.978515625 144.294706965 630.82421875 c 0
 147.189161837 640.313476562 155.60560266 646 167.483711414 646 c 2
 167.633856048 646 l 1
 167.784000681 645.993164062 l 2
 235.863122422 643.004882812 369.745117188 643 438.754882812 646 c 0
 454.556640625 646 452.375 629.577148438 449.498046875 622.866210938 c 0
 445.947265625 612.211914062 436.056640625 604.9296875 425.176757812 607.943359375 c 0
 363.841796875 603.994140625 352.396484375 596.010742188 337.758789062 524.774414062 c 2
 243.144094458 114.770507812 l 2
 239.727261383 100.401367188 238.002683444 88.3681640625 238.103822537 78.5595703125 c 0
 238.444775975 45.41796875 257.797793583 34.240234375 320.121371054 35 c 0
 333.88671875 35 338.07421875 22.8984375 336.825195312 14.1513671875 c 2
 336.72265625 13.439453125 l 1
 336.456054688 12.771484375 l 2
 333.61328125 5.666015625 326.415976264 -0.220703125 319.582310114 -1.8212890625 c 2
 318.727319842 -2.021484375 l 1
 317.846262794 -1.9970703125 l 2
 243.255660262 -0.001953125 100.75390625 1.98046875 36.25390625 -1.98828125 c 2
 36.0693359375 -2 l 1
 35.884765625 -2 l 2
 22.2705078125 -2 20.875 12.8037109375 23.1513671875 20.7734375 c 0
 26.2177734375 29.97265625 36.6474609375 37 44.9287109375 37 c 0
 110.985351562 36.0654296875 122.1796875 57.5400390625 135.01171875 118.243164062 c 2
 229.552877147 528.256835938 l 2
 232.668378284 541.875 235.096759191 553.514648438 235.911085291 563.11328125 c 0
 238.271692579 590.919921875 229.814587583 603.133789062 173.958698718 606.981445312 c 0
 167.797555404 606.495117188 161.383043023 606.142578125 154.842367442 608.048828125 c 0
EndSplineSet
Validated: 524321
EndChar
StartChar: J
Encoding: 74 74 63
Width: 362
Flags: W
HStem: -287 68<-137.039 12.9062> 609 37<129.136 222.049 350.873 438.551>
LayerCount: 2
Fore
SplineSet
179.079139938 608.016601562 m 0
 168.27114465 608.967773438 157.29468425 607.94140625 144.17357218 609 c 0
 133.854831859 609 127.601447242 616.029296875 128.984475199 626.744140625 c 0
 130.137502884 635.669921875 135.046192923 646 148.563752831 646 c 2
 148.740288129 646 l 1
 148.917832199 645.990234375 l 2
 220.788882441 642.014648438 359.013671875 643.006835938 423.723632812 645.993164062 c 2
 423.861328125 646 l 1
 424 646 l 2
 435.1171875 646 441.415039062 636.716796875 437.7890625 623.420898438 c 2
 437.745117188 623.260742188 l 1
 437.692382812 623.102539062 l 2
 429.84765625 599.5703125 401.671875 606.747070312 391.544921875 606.0234375 c 0
 349.672851562 601.37109375 336.741210938 586.0859375 324.89453125 524.87890625 c 2
 217.669755931 -10.0947265625 l 2
 198.963067055 -107.68359375 173.214132975 -156.775390625 110.155724774 -206.627929688 c 0
 47.5078872368 -257.16796875 -18.1713135491 -287 -100 -287 c 0
 -148.8203125 -287 -177 -278.588867188 -177 -253 c 0
 -177 -242.931640625 -170.712890625 -223.6171875 -160.826171875 -210.435546875 c 0
 -151.1640625 -197.150390625 -134.02734375 -193 -121 -193 c 0
 -102.653320312 -193 -86.80859375 -203.739257812 -73.1474609375 -208.29296875 c 0
 -54.1905668399 -214.250976562 -37.308748551 -219 -17.7466200624 -219 c 0
 31.3765961548 -219 60.0186915641 -195.862304688 77.7922652977 -157.625976562 c 0
 84.8173613577 -141.110351562 89.8450866252 -126.620117188 97.0255337468 -90.87109375 c 2
 219.943530561 528.092773438 l 2
 222.475551111 541.575195312 225.230510522 554.426757812 225.995160553 565.438476562 c 0
 227.663671305 589.446289062 222.335331646 605.399414062 179.079139938 608.016601562 c 0
EndSplineSet
Validated: 524321
EndChar
StartChar: K
Encoding: 75 75 64
Width: 733
Flags: W
HStem: -3 39<9.62091 102.265 227.125 302.421 642.854 739.595> 608 37<149.062 219.441 347.088 442.742 565.069 617.985 821.274 833.497>
LayerCount: 2
Fore
SplineSet
581.23563728 608 m 0
 572.764218712 608 560.818292235 610.7421875 565.007641514 627.155273438 c 0
 566.248893263 635.66796875 572.370407916 645 582.256554382 645 c 2
 582.413081711 645 l 1
 582.570606029 644.9921875 l 2
 661.933949828 641.005859375 740.7109375 642.99609375 818.880859375 645 c 0
 821.077148437 645 831.786132812 645.454101562 833.841796875 635.176757812 c 2
 833.874023437 635.013671875 l 1
 833.897460937 634.848632812 l 2
 835.166992187 625.966796875 830.670898437 612.493164062 821.413085937 610.178710938 c 2
 821.274414062 610.14453125 l 1
 821.134765625 610.116210938 l 2
 814.66796875 608.823242188 819.102539062 610.395507812 814.186523437 608.428710938 c 2
 813.662109375 608.219726562 l 1
 813.107421875 608.111328125 l 1
 772.081054687 600.106445312 l 2
 731.370117187 592.3515625 671.243836445 566.872070312 588.986232543 506.194335938 c 0
 588.914449309 506.143554688 466.568900345 419.475585938 386.847637367 360.903320312 c 0
 379.315382774 355.671875 382.207648899 354.146484375 384.957345546 350.645507812 c 2
 598.282161309 96.1962890625 l 2
 639.168694846 46.6669921875 674.44716325 36 721.958007812 36 c 2
 728.958007812 36 l 2
 737.48828125 36 739.887695312 27.701171875 740.077148437 22.9658203125 c 0
 740.413085937 14.5751953125 736.279296875 -3 722.958007812 -3 c 2
 722.8046875 -3 l 1
 722.650390625 -2.9921875 l 2
 683.251576263 -1.00390625 617.147193925 -0.998046875 571.162056815 -3 c 0
 558.742560393 -3 550.633048962 2.244140625 544.699965298 10.3798828125 c 2
 299.095625117 311.094726562 l 1
 274.41615057 296.08984375 l 2
 268.993525456 291.859375 268.431223459 292.42578125 266.669543265 283.799804688 c 2
 230.929468789 115.763671875 l 2
 227.255563008 98.6669921875 224.33637817 84.052734375 224.251634075 72.53125 c 0
 224.070182012 47.7783203125 234.837667069 34.2275390625 293.94218713 33.9990234375 c 0
 298.090659845 34.3974609375 300.185334485 34.3623046875 303.659842394 33.79296875 c 0
 311.097382999 32.576171875 320.992502369 26.9482421875 318.761240187 14.9267578125 c 2
 318.725348571 14.734375 l 1
 318.677493081 14.544921875 l 2
 316.465173698 5.87890625 312.823171576 0.7041015625 302.420584623 -2.6923828125 c 2
 301.394682575 -3.02734375 l 1
 300.312949122 -2.998046875 l 2
 226.998339754 -1.0029296875 91.9306640625 -1.00390625 26.1396484375 -2.9970703125 c 2
 25.4541015625 -3.017578125 l 1
 24.78125 -2.8837890625 l 2
 13.037109375 -0.5869140625 5.8798828125 7.50390625 9.2509765625 17.3935546875 c 0
 16.8798828125 41.0185546875 41.5029296875 33.4462890625 51.4453125 34.140625 c 0
 98.517578125 38.744140625 112.279296875 54.810546875 126.090820312 116.553710938 c 2
 217.932715529 527.293945312 l 2
 222.984460602 549.064453125 223.914651672 561.456054688 223.914651672 570 c 0
 223.914651672 594.91796875 210.210035969 608 167.764211077 608 c 2
 156.975789243 608 l 2
 153.16529592 608.03515625 148.692801663 617.650390625 148.690807685 622.6640625 c 0
 148.687816717 631.400390625 154.06358333 645 168.892803029 645 c 0
 227.199731604 648.99609375 357.478324884 647.998046875 428.987386526 645 c 0
 438.279327335 645 442.806656006 637.909179688 443.129680558 631.469726562 c 0
 443.59128663 622.254882812 437.15472334 608 424.014403613 608 c 2
 412.834164961 608 l 2
 351.831377165 607.036132812 335.781842493 595.322265625 320.772167721 523.772460938 c 2
 282.974307212 346.658203125 l 2
 282.614394054 345.249023438 282.554574693 344.142578125 282.55856265 343.526367188 c 1
 284.297312089 344.095703125 285.963281305 344.928710938 288.769806345 346.892578125 c 0
 392.747820383 418.78515625 485.769918374 489.870117188 591.046012555 558.950195312 c 0
 601.788572878 566.31640625 617.988652943 578.469726562 617.988652943 590 c 0
 617.988652943 602.275390625 613.57298708 608 581.23563728 608 c 0
EndSplineSet
Validated: 524321
EndChar
StartChar: L
Encoding: 76 76 65
Width: 627
Flags: W
HStem: -2 52<235.034 511.826> -0.986328 38.042<16.3614 35.207> 608 38<135.441 224.082 352.543 451.628>
VStem: 614.294 32.5068<141.964 161.868>
LayerCount: 2
Fore
SplineSet
646.690429688 141.963867188 m 1xb0
 646.529296875 141.594726562 l 2
 632.860351562 110.352539062 617.620117188 57.0537109375 603.665039062 21.9248046875 c 0
 601.515625 15.478515625 592.994140625 -2 572.032226562 -2 c 0xb0
 432.402166882 -2 169.278690883 1.943359375 38.69921875 -0.986328125 c 0
 33.9716796875 -1.7236328125 18.9931640625 -4.501953125 16.22265625 6.3330078125 c 0
 11.0869140625 25.166015625 26.544921875 35.669921875 35.0458984375 37.0556640625 c 2x70
 35.20703125 37.08203125 l 1
 35.369140625 37.099609375 l 2
 45.173828125 38.1650390625 47.2080078125 37.203125 54.2880859375 38.068359375 c 2
 54.4755859375 38.0908203125 l 1
 54.6650390625 38.1025390625 l 2
 100.405273438 40.8408203125 118.294921875 59.52734375 133.155273438 131.212890625 c 2
 220.781774127 528.25390625 l 2
 224.532233363 544.916015625 227.30755305 559.151367188 227.390157847 570.49609375 c 0
 227.563426444 594.569335938 217.828148964 608 165.973491648 608 c 0
 160.060197069 608 152.273183935 606.051757812 144.925386549 607.883789062 c 0
 135.547727395 610.221679688 133.05859375 619.434570312 136.296207441 630.6484375 c 2
 136.38284174 630.943359375 l 1
 136.500704681 631.228515625 l 2
 138.167911245 635.267578125 141.557730028 646 151.531755518 646 c 2
 151.711068369 646 l 1
 151.889373844 645.990234375 l 2
 222.650455804 648.013671875 366.152112712 648.013671875 436.913194671 645.990234375 c 2
 437.092507522 646 l 1
 437.271820373 646 l 2
 451.713556503 646 452.736042704 629.36328125 451.57554605 623.736328125 c 0
 447.18741808 605.302734375 429.03249561 608 420.766979082 608 c 0
 359.047092837 608 341.911634441 596.233398438 326.764735414 524.7734375 c 2
 237.018653517 124.877929688 l 2
 234.452867948 113.287109375 232.501581474 102.078125 232.271899845 92.177734375 c 0
 231.697695772 67.515625 239.936013159 50.650390625 280.528211636 50 c 2
 386.673360389 50 l 2
 448.013466045 50.9912109375 490.142919637 58.890625 528.14453125 79.259765625 c 0
 560.497070312 96.90625 581.620117188 115.087890625 614.293945312 155.681640625 c 0
 619.262695312 162.307617188 628.583007812 163.834960938 635.663085938 161.963867188 c 0
 643.05859375 160.008789062 649.763671875 152.719726562 646.80078125 142.3515625 c 2
 646.690429688 141.963867188 l 1xb0
EndSplineSet
Validated: 524321
EndChar
StartChar: M
Encoding: 77 77 66
Width: 907
Flags: W
HStem: -2 36<-5.22878 65.3673 173.108 236.38 552.781 642.151 773.948 850.984> 609 37<149.582 235.541 891.485 979.681>
LayerCount: 2
Fore
SplineSet
442.237887448 127.295898438 m 1
 781.589880304 635.139648438 l 2
 787.401075993 645.14453125 797.748081127 646 806.18548071 646 c 0
 842.835218033 644.998046875 920.001953125 644.008789062 960.677734375 645.993164062 c 2
 960.82421875 646 l 1
 960.969726562 646 l 2
 968.301757812 646 977.5546875 645.399414062 979.791015625 636.455078125 c 2
 979.825195312 636.31640625 l 1
 979.853515625 636.176757812 l 2
 981.029296875 630.298828125 979.870117188 609.229492188 964.471679688 608.978515625 c 0
 961.030273438 608.978515625 959.591796875 609 956.969726562 609 c 0
 897.189453125 609 879.521484375 596.208984375 864.84375 524.774414062 c 2
 774.456650001 114.779296875 l 2
 770.998715623 99.68359375 768.339758621 85.93359375 768.336781065 74.494140625 c 0
 768.330825954 50.5625 778.009866153 35 826.426902553 35 c 0
 831.133425176 35 836.655797988 35.634765625 842.07395636 34.181640625 c 0
 850.782313487 31.845703125 852.992652138 21.873046875 851.160463028 15.328125 c 0
 847.406758143 1.34375 843.550823856 -2.7890625 826.375291592 -1.7529296875 c 0
 736.00549164 2.716796875 618.676904786 -1.0458984375 566.35728573 -1.9990234375 c 1
 566.35728573 -1.9990234375 552.754819987 5.8056640625 552.59006192 12.4150390625 c 0
 552.384610595 20.630859375 556.681223087 36 569.293155388 36 c 0
 583.492124736 36 596.498086874 36.0341796875 608.958163848 37.875 c 0
 646.301671587 44.1533203125 659.981553771 63.0625 672.078368983 118.262695312 c 2
 765.459469997 531.700195312 l 1
 417.929124882 3.7900390625 l 1
 417.18672106 2.6357421875 l 1
 416.009594145 1.912109375 l 2
 398.643498334 -8.767578125 367.349390718 -7.9384765625 361.436958144 5.63671875 c 2
 361.114389639 6.361328125 l 1
 361.002235051 7.1416015625 l 1
 286.009523881 527.639648438 l 1
 165.550533746 130.921875 l 2
 161.672764052 118.814453125 159.708569984 104.739257812 159.708569984 91.599609375 c 0
 159.708569984 53.9560546875 177.872650652 37.779296875 228.042474684 34 c 0
 241.684641166 34 237.854512359 18.095703125 236.860008844 14.76171875 c 0
 235.010946919 4.53125 230.671656133 -2 222.609428535 -2 c 0
 167.684448474 0.001953125 59.9521484375 0.9892578125 6.302734375 -1.9912109375 c 2
 6.13671875 -2 l 1
 5.9697265625 -2 l 2
 -5.994140625 -2 -6.9609375 11.599609375 -5.9482421875 17.537109375 c 2
 -5.892578125 17.8642578125 l 1
 -5.798828125 18.18359375 l 2
 -3.046875 27.6005859375 4.4482421875 32.3701171875 10.4423828125 33.1923828125 c 0
 47.416015625 38.298828125 69.341796875 50.8388671875 85.322265625 70.1357421875 c 0
 98.0458984375 85.2373046875 114.294894499 125.016601562 132.511578647 184.391601562 c 2
 234.153410954 519.704101562 l 2
 239.117988382 536.192382812 242.43200758 551.236328125 242.641428979 563.73828125 c 0
 243.083099702 590.193359375 231.433910324 607.338867188 183.042679405 608 c 0
 168.020912238 608 161.072290373 608 151.27216292 610.142578125 c 2
 150.370956142 610.33984375 l 1
 149.569001212 610.791015625 l 2
 143.097780734 614.428710938 142.572738459 621.958007812 143.218867989 627.244140625 c 0
 144.290787945 636.006835938 150.927759008 646.82421875 163.571451901 644.984375 c 0
 210.606902579 643.999023438 295.92974607 644.006835938 342.21386026 645.987304688 c 0
 353.138511149 647.061523438 366.760827261 644.737304688 368.143405501 630.825195312 c 2
 439.097558984 134.151367188 l 2
 439.920356802 131.165039062 440.931733131 128.868164062 442.027473531 126.958984375 c 2
 442.09992738 127.08984375 l 1
 442.237887448 127.295898438 l 1
EndSplineSet
Validated: 524321
EndChar
StartChar: N
Encoding: 78 78 67
Width: 813
Flags: W
HStem: -2 38.1162<12.3357 88.9805 197.315 270.506> 611 35<634.622 709.936 816.558 886.038>
LayerCount: 2
Fore
SplineSet
727.751953125 540.79296875 m 0
 731.220703125 586.774414062 714.083007812 606.0625 645.658255591 611 c 0
 634.858810029 611 634.618888994 624.208007812 634.618888994 629 c 2
 634.618888994 629.426757812 l 1
 634.680868595 629.848632812 l 2
 636.038421781 639.126953125 642.959143954 646 651.063476562 646 c 0
 698.110351562 644.999023438 804.87109375 643.999023438 873.698242188 645.994140625 c 0
 879.657226562 646.419921875 885.22265625 642.884765625 886.418945312 637.232421875 c 0
 888.594726562 626.947265625 880.977539062 613.395507812 868.362304688 611.84375 c 0
 809.346679688 603.157226562 783.458984375 576.81640625 768.870117188 507.760742188 c 2
 655.778615632 -6.2080078125 l 2
 652.881072008 -20.4208984375 621.273857911 -17.7490234375 613.547738499 -8.904296875 c 2
 613.268037448 -8.5849609375 l 1
 613.037109891 -8.2294921875 l 1
 264.173814134 516.498046875 l 2
 262.278437962 518.64453125 261.950545882 518.848632812 261.19079594 519.50390625 c 1
 260.72095058 518.41015625 260.241108512 516.786132812 259.843239463 514.83984375 c 2
 183.875165129 142.51953125 l 2
 182.730481114 136.66796875 181.741075974 130.951171875 180.973639995 125.513671875 c 0
 173.735255511 74.224609375 183.81345173 44.7822265625 250.613229334 36.1162109375 c 0
 264.669949038 36.033203125 273.042068386 31.2119140625 270.554620252 15.7080078125 c 0
 269.551279829 8.9755859375 266.226719298 -2 255.224812848 -2 c 0
 197.1316014 -0 82.8896484375 0.986328125 26.3876953125 -1.98828125 c 0
 16.326171875 -2.74609375 12.1162109375 6.1650390625 11.951171875 12.5751953125 c 0
 11.7255859375 21.306640625 17.1103515625 33.2451171875 28.814453125 33.302734375 c 0
 92.41015625 42.005859375 112.422851562 62.4033203125 128.118164062 140.250976562 c 2
 220.628146385 579.510742188 l 1
 198.73235298 605.987304688 170.417672233 604.004882812 135.202262733 609.063476562 c 2
 134.901361769 609.107421875 l 1
 134.60545916 609.178710938 l 2
 122.33203125 612.232421875 122.051757812 622.795898438 123.052734375 629.796875 c 0
 124.491210938 641.306640625 134.403525623 646 140.189621237 646 c 2
 140.355566619 646 l 1
 140.521512001 645.991210938 l 2
 178.063155864 644.008789062 228.0227126 644.997070312 259.859234198 646 c 0
 281.341163819 646 292.791395187 643.5390625 297.926704995 635.178710938 c 2
 631.489416212 130.244140625 l 2
 634.675619283 125.380859375 637.072488073 124.330078125 637.187951852 124.294921875 c 0
 637.532352434 124.510742188 638.996552595 126.419921875 639.801812915 128.586914062 c 2
 723.125976562 510.223632812 l 2
 725.483398438 521.540039062 727.067382812 531.721679688 727.751953125 540.79296875 c 0
EndSplineSet
Validated: 524321
EndChar
StartChar: O
Encoding: 79 79 68
Width: 843
Flags: W
HStem: -18 31<316.04 480.702> 619 43<392.597 582.751>
VStem: 88 106<172.74 382.373> 700 106<245.026 472.114>
LayerCount: 2
Fore
SplineSet
493.158798283 662 m 0
 677.101809784 662 806 528.482421875 806 357.375976562 c 0
 806 149.490234375 625.539787587 -18 397.763948498 -18 c 0
 213.771853205 -18 88 114.625976562 88 287.607421875 c 0
 88 491.586914062 271.47535961 662 493.158798283 662 c 0
397.800010059 13 m 0
 566.618201784 12.0263671875 700 172.120117188 700 383 c 0
 700 523.806640625 621.426766195 619.96875 494.208590397 619 c 0
 418.672642 619 354.867719789 593.623046875 307.867485079 544.87890625 c 0
 238.308740444 473.134765625 194 361.438476562 194 256 c 0
 194 105.005859375 267.483545131 13.9697265625 397.800010059 13 c 0
EndSplineSet
Validated: 524321
EndChar
StartChar: P
Encoding: 80 80 69
Width: 600
Flags: W
HStem: -2 37<-18.229 56.2974 194.884 284.348> 607 40<95.18 185.41 300.833 454.781>
VStem: 518.973 106<383.934 547.497>
LayerCount: 2
Fore
SplineSet
-18.8486328125 17.455078125 m 2
 -16.8408203125 25.4853515625 -12.833984375 35 -4.1748046875 35 c 0
 54.2744140625 37.8056640625 71.333984375 52.890625 88.1025390625 129.903320312 c 2
 185.098632812 522.223632812 l 2
 188.263671875 537.416015625 191.295898438 551.890625 191.329101562 564.067382812 c 0
 191.39453125 588.631835938 181.315429688 607 116.734272821 607 c 2
 115.702429681 607 l 1
 114.689254756 607.116210938 l 2
 94.7470703125 609.926757812 93.9267578125 621.21875 95.0546875 627.986328125 c 0
 97.5390625 642.896484375 112.109646907 647 129.072265625 647 c 0
 189.060546875 645 295.872070312 646 349.97265625 646 c 0
 455.318926191 646 506.118164062 636.844726562 553.450195312 602.889648438 c 0
 600.03125 569.765625 624.97265625 519.758789062 624.97265625 461 c 0
 624.97265625 361.8046875 548.705078125 274.713867188 440.489214815 250.15234375 c 0
 397.242430835 241 323.692270771 232.759765625 277.189649207 242.1328125 c 2
 276.496122579 242.272460938 l 1
 275.8524302 242.551757812 l 2
 267.923593583 245.994140625 264.283616999 252.803710938 264.631418526 259.20703125 c 0
 265.089270687 267.637695312 272.297587123 277.015625 283.48122311 275.963867188 c 0
 360.361972131 267.168945312 437.469051699 293.555664062 478.989367078 352.359375 c 0
 505.350585938 388.396484375 518.97265625 431.24609375 518.97265625 475 c 0
 518.97265625 534.221679688 489.791480004 578.34375 444.407786549 592.30078125 c 0
 402.657964106 604.818359375 357.915728802 602 314.97265625 602 c 0
 307.625976562 602 303.127929688 600.657226562 300.83203125 590.708984375 c 2
 192.280395072 115.075195312 l 2
 189.32044834 101.67578125 187.56898214 89.96875 187.547179656 80.22265625 c 0
 187.479695778 50.44921875 201.330502285 36 258.326347848 36 c 0
 264.977143627 36 271.790938928 36.7978515625 278.087703898 34.7197265625 c 0
 287.634077171 31.5693359375 288.712781014 22.0859375 284.459220242 11.798828125 c 0
 282.127392686 6.3134765625 277.238445243 -2 267.753326567 -2 c 0
 195.42202917 1.001953125 58.9677734375 1.98828125 -5.6591796875 -1.98828125 c 2
 -5.8427734375 -2 l 1
 -6.02734375 -2 l 2
 -16.76953125 -2 -20.2001953125 9.4619140625 -18.9453125 16.986328125 c 2
 -18.90625 17.22265625 l 1
 -18.8486328125 17.455078125 l 2
EndSplineSet
Validated: 524321
EndChar
StartChar: Q
Encoding: 81 81 70
Width: 822
Flags: W
HStem: -202 213<328.755 709.622> -154.592 26.6934<790.034 803.202> 621 41<376.42 573.981>
VStem: 62 111<181.507 381.78> 691 111<236.859 469.639>
LayerCount: 2
Fore
SplineSet
803.3984375 -131.328125 m 0x78
 807.76171875 -136.153320312 814.235351562 -147.614257812 805.861328125 -154.591796875 c 0x78
 772.344726562 -183.03125 738.459960938 -202 680.78404236 -202 c 0xb8
 564.572665512 -202 433.748474922 -87.4248046875 343.540105031 -30.0263671875 c 2
 343.290056883 -29.8671875 l 1
 343.05701201 -29.685546875 l 2
 338.361107799 -26.0166015625 315.586722523 -11.533203125 313.098243359 -10.916015625 c 2
 312.972219093 -10.8955078125 l 1
 312.834192515 -10.8671875 l 2
 166.95703125 19.1943359375 62 147.282226562 62 287.67578125 c 0
 62 488.6640625 243.330809431 662 470.823613851 662 c 0
 668.505678125 662 802 530.706054688 802 357.431640625 c 0
 802 181.872070312 682.864442948 25.025390625 488.393997081 -10.8876953125 c 0
 487.777878446 -11.0078125 486.663663901 -11.296875 486.663663901 -11.296875 c 1
 492.746835233 -14.9453125 499.709175853 -19.3046875 511.208390061 -27.0771484375 c 0
 544.889875532 -49.998046875 650.141141978 -122.8828125 689.494719627 -133.19140625 c 0
 732.493164062 -143.938476562 756.055664062 -140.629882812 782.763671875 -127.8984375 c 0
 791.788085938 -121.91015625 799.25390625 -126.745117188 803.3984375 -131.328125 c 0x78
398.105611782 11 m 0xb8
 575.726813277 11 691 171.737304688 691 382 c 0
 691 523.743164062 611.232650032 621 480.041388762 621 c 0
 400.658103272 621 342.051818457 594.78515625 290.827955149 544.772460938 c 0
 218.387006427 473.059570312 173 361.407226562 173 255 c 0
 173 105.541992188 259.403904353 11 398.105611782 11 c 0xb8
EndSplineSet
Validated: 524321
EndChar
StartChar: R
Encoding: 82 82 71
Width: 660
Flags: W
HStem: -12 38.2588<621.275 697.022> -1.9873 38<0.232315 97.2487 231.769 322.29> 272 42<277.423 339.853> 608.023 38.9766<134.059 224.026 339.927 464.211>
LayerCount: 2
Fore
SplineSet
152.815374067 608.0234375 m 0x70
 142.016436015 609.692382812 130.312285065 615.854492188 133.880122723 628.122070312 c 0
 137.473141999 644.009765625 155.081719682 647 165.131835938 647 c 0
 233.102539062 644.000976562 361.8203125 646 429.025390625 646 c 0
 558.454207673 644.982421875 643 581.15625 643 480 c 0
 643 384.724609375 567.374164649 314.596679688 446.303371733 290.818359375 c 0
 445.393475654 290.649414062 444.744285926 290.419921875 444.744285926 290.419921875 c 1
 444.954499743 290.126953125 l 2
 454.703680723 277.104492188 462.242525249 264.137695312 469.680384705 250.380859375 c 2
 469.749425518 250.254882812 l 1
 469.810222651 250.125976562 l 2
 485.615416381 216.998046875 501.415457812 184.856445312 519.264053496 151.846679688 c 0
 546.341447918 102.73046875 570.695336862 79.3544921875 602.720703125 55.2470703125 c 0
 626.731445312 36.5029296875 656.40234375 26.2587890625 686 26.2587890625 c 0
 705.760742188 26.2587890625 698.0390625 -0.1328125 689.16796875 -3.5947265625 c 0
 680.90625 -6.693359375 666.486328125 -12 652 -12 c 0xb0
 555.135392584 -12 488.572836254 2.4013671875 430.171522219 86.7158203125 c 0
 407.333439768 121.03125 395.720156854 159.517578125 380.096324063 194.318359375 c 0
 357.917735939 243.004882812 354.063815966 250.462890625 341.026437489 274.700195312 c 1
 315.865698455 272.848632812 298.428256265 272 275.138832384 272 c 0
 270.790291665 272 266.077998607 268.014648438 264.430293249 261.923828125 c 2
 231.749257967 114.784179688 l 2
 228.638299572 100.646484375 226.683517168 88.400390625 226.617567735 78.251953125 c 0
 226.428993576 49.4208984375 239.235549039 35 297.29784177 35 c 0
 303.61868271 35 308.76995168 34.990234375 313.445148183 33.80078125 c 0
 324.785359227 30.9140625 325.874555326 20.6162109375 322.401905511 9.4248046875 c 0
 320.15138112 0.89453125 309.67675638 -2 300.341820273 -2 c 0
 218.091542639 0.998046875 64.8974609375 0.984375 12.3994140625 -1.9873046875 c 0
 3.5927734375 -2.6640625 -0.3369140625 5.0791015625 -0.4619140625 10.87890625 c 0
 -0.6728515625 20.62890625 5.865234375 35.8232421875 17.646484375 36.0126953125 c 0
 21.103515625 36.0126953125 23.123046875 36 26 36 c 0
 91.9140625 36 107.48046875 48.537109375 123.331481991 118.251953125 c 2
 225.134765625 528.264648438 l 2
 227.956054688 541.34375 229.783203125 553.185546875 229.844726562 563.282226562 c 0
 230.01171875 590.533203125 219.265625 607 171 607 c 0
 166.587890625 607 159.826466642 606.940429688 152.815374067 608.0234375 c 0x70
487.559152898 384.827148438 m 0
 538.222294087 441.232421875 554.892677301 529.965820312 493.404777434 574.330078125 c 0
 455.512812683 602.5859375 403.224609375 603 359 603 c 0
 347.233398438 603 340.428710938 593.076171875 339.897460938 589.885742188 c 2
 277.321346422 317.615234375 l 2
 279.463672525 315.608398438 283.190845932 314 286.745932539 314 c 0
 340.697720785 314 357.433419793 314.93359375 382.137665097 321.608398438 c 0
 402.579101562 327.263671875 422.903320312 338.573242188 444.153930637 350.323242188 c 0
 460.014102858 358.6875 474.761429571 370.579101562 487.559152898 384.827148438 c 0
EndSplineSet
Validated: 524321
EndChar
StartChar: S
Encoding: 83 83 72
Width: 541
Flags: W
HStem: -18 42<152.144 350.537> 611 42<256.92 425.998>
VStem: 47.5352 33.835<178.309 216.831> 128.368 87.4876<459.953 555.717> 407.05 88.3184<86.1408 193.232> 475.368 35.9697<458.008 555.345>
LayerCount: 2
Fore
SplineSet
519.354492188 651.91796875 m 0xf8
 524.637695312 651.038085938 534.967773438 648.516601562 534.4609375 639.922851562 c 0
 530.078125 616.91015625 517.37890625 528.805664062 511.337890625 469.392578125 c 1
 511.337890625 469.392578125 496.915039062 458 493.368164062 458 c 0
 489.854492188 458 475.368164062 458 475.368164062 470 c 0xf4
 475.368164062 562.686523438 435.009765625 611 343.318443214 611 c 0
 259.746573802 611 215.855782954 571.932617188 215.855782954 517 c 0
 215.855782954 427.098632812 366.168834954 365.0234375 435.610351562 299.129882812 c 0
 469.508789062 265.974609375 495.368164062 217.796875 495.368164062 169.788085938 c 0
 495.368164062 59.1015625 399.783275311 -18 247.199060067 -18 c 0
 171.648702525 -18 93.1962890625 5.3310546875 22.3359375 45.822265625 c 0
 11.9423828125 52.05859375 14.5029296875 71.265625 15.484375 76.1767578125 c 2
 15.513671875 76.322265625 l 1
 15.5498046875 76.4658203125 l 1
 47.53515625 203.408203125 l 2
 49.833984375 213.3671875 59.2158203125 217.379882812 66.6611328125 216.860351562 c 0
 74.548828125 216.310546875 82.2734375 210.3125 81.3701171875 200.438476562 c 0
 81.2705078125 186.885742188 80.3681640625 184.649414062 80.3681640625 178 c 0
 80.3681640625 81.16796875 136.140605842 24 251.378163682 24 c 0
 351.804186566 24 407.049773345 69.015625 407.049773345 134.08984375 c 0
 407.049773345 264.243164062 128.368164062 302.477539062 128.368164062 478 c 0
 128.368164062 575.98828125 218.494250226 653 343.318443214 653 c 0
 392.221913765 653 432.353515625 633 471.368164062 633 c 0
 481.541992188 633 491.448242188 637.827148438 498.557617188 644.68359375 c 0
 503.442382812 651.950195312 512.288085938 653.095703125 519.354492188 651.91796875 c 0xf8
EndSplineSet
Validated: 524289
EndChar
StartChar: T
Encoding: 84 84 73
Width: 654
Flags: W
HStem: -2 40.958<132.076 237.541 362.744 465.026> 600 46<159.806 364.959 468.494 674.945>
VStem: 72.2979 33.0996<483.793 528.065> 685.814 0.982422<498.749 540.945>
LayerCount: 2
Fore
SplineSet
159.544921875 578.314453125 m 0
 135.74609375 559.275390625 125.442382812 538.9296875 105.397460938 493.828125 c 0
 103.17578125 487.162109375 93.9169921875 481.563476562 84.810546875 483.08203125 c 2
 84.345703125 483.159179688 l 1
 83.8994140625 483.307617188 l 2
 75.41015625 486.137695312 69.1748046875 493.931640625 72.2978515625 503.688476562 c 0
 83.0185546875 544.71875 102.997070312 629.973632812 107.842773438 668.744140625 c 2
 107.916992188 669.333984375 l 1
 108.104492188 669.897460938 l 2
 110.649414062 677.530273438 119.388671875 679 125.796875 679 c 0
 128.65234375 679 138.174804688 678.415039062 141.278320312 670.734375 c 0
 158.448242188 649.283203125 167.04296875 646 206.192163361 646 c 2
 616.208219302 646 l 2
 689.706054688 646 701.513671875 650.270507812 724.860351562 672.580078125 c 0
 731.052734375 679.397460938 736.309570312 680 741.796875 680 c 0
 745.604492188 680 761.37890625 677.7734375 757.512695312 666.174804688 c 0
 746.780273438 631.048828125 729.672851562 543.720703125 722.731445312 497.116210938 c 2
 722.654296875 496.598632812 l 1
 722.489257812 496.102539062 l 2
 720.05859375 488.811523438 712.798828125 485.866210938 706.954101562 485.091796875 c 0
 699.995117188 484.168945312 687.953125 486.141601562 686.827148438 497.403320312 c 2
 686.796875 497.701171875 l 1
 686.796875 498 l 2
 686.796875 513.997070312 686.788085938 528.88671875 685.814453125 541.540039062 c 1
 687.541015625 541.672851562 677.67578125 573.825195312 677.401367188 574.374023438 c 0
 669.729492188 590.5703125 654.03125 600 614.153000977 600 c 2
 482.001860531 600 l 2
 476.518602264 599.01953125 471.52305694 594.0703125 470.131168357 588.653320312 c 2
 365.344135968 115.107421875 l 2
 362.877472568 103.721679688 361.251762759 93.943359375 360.564348427 85.6513671875 c 0
 357.711328066 51.2197265625 368.372773129 42.0205078125 410.174589218 38.9580078125 c 0
 421.103975343 38.01171875 436.364573524 38 451.790753261 38 c 0
 463.430634783 38 466.264588177 25.013671875 465.086450328 18.134765625 c 0
 463.887238464 8.7998046875 456.933816697 -2 446.568411383 -2 c 0
 371.499755699 -5.9990234375 220.717178031 -5.998046875 143.875976562 -2 c 0
 135.206054688 -2 131.469726562 5.349609375 131.198242188 11.2177734375 c 0
 130.73828125 21.1455078125 137.557617188 38 151.796875 38 c 0
 165.915039062 38 173.37890625 37.98828125 183.329101562 38.9619140625 c 0
 234.920061313 41.7548828125 245.525309 55.5361328125 259.768333265 118.513671875 c 2
 366.628647422 586.2265625 l 2
 369.752619417 601.42578125 362.135867908 600 359.305928612 600 c 2
 261.68305815 600 l 2
 210.404959519 600 181.69921875 595.853515625 159.544921875 578.314453125 c 0
EndSplineSet
Validated: 524321
EndChar
StartChar: U
Encoding: 85 85 74
Width: 764
Flags: W
HStem: -18 42<260.695 480.187> 609 38<59.0829 143.42 269.527 363.528 570.746 657.895 750.896 827.987>
LayerCount: 2
Fore
SplineSet
363.62109375 627.357421875 m 0
 362.997070312 609.702148438 350.33203125 606.961914062 338.595703125 608.01171875 c 0
 272.961914062 610.907226562 262.638671875 600.643554688 246.87109375 524.760742188 c 2
 190.125976562 264.989257812 l 2
 182.008789062 228.185546875 178 195.314453125 178 169.512695312 c 0
 178 82.4736328125 244.677734375 24 365.2265625 24 c 0
 528.380859375 24 588.637695312 116.108398438 614.994140625 247.612304688 c 2
 666.736328125 512.086914062 l 2
 669.467773438 526.430664062 670.93359375 538.915039062 670.971679688 549.591796875 c 0
 671.125976562 592.647460938 650.079101562 609 581.831054688 609 c 0
 567.739257812 609 569.771484375 624.80859375 570.517578125 629.848632812 c 2
 570.5625 630.155273438 l 1
 570.639648438 630.455078125 l 2
 572.87109375 639.0859375 577.831054688 647.912109375 588.049804688 646.98046875 c 0
 637.372070312 645.969726562 739.7421875 642.080078125 812.384765625 647.969726562 c 0
 827.681640625 649.881835938 828 631.1796875 828 627 c 2
 828 626.26171875 l 1
 827.821289062 625.544921875 l 2
 825.234375 615.198242188 816.645507812 608.28125 807.948242188 608.94921875 c 0
 752.2109375 602.127929688 731.549804688 593.015625 714.8984375 502.90234375 c 2
 662.877929688 235.087890625 l 2
 651.5703125 175.181640625 639.866210938 146.5625 616.0390625 108.956054688 c 0
 557.365234375 16.869140625 460.640625 -18 347.83203125 -18 c 0
 225.927734375 -18 154.295898438 14.9931640625 107.983398438 83.458984375 c 0
 65.6640625 147.076171875 74.109375 204.213867188 88.126953125 270.827148438 c 2
 143.129882812 523.2421875 l 2
 146.379882812 538.603515625 148.846679688 552.795898438 148.9296875 564.7734375 c 0
 149.115234375 591.690429688 139.310546875 609 91 609 c 2
 74 609 l 2
 62.869140625 609 57.7353515625 622.909179688 59.08203125 630.986328125 c 2
 59.1376953125 631.321289062 l 1
 59.23046875 631.6484375 l 2
 62.052734375 641.5234375 70.3447265625 647.793945312 80.4873046875 646.936523438 c 0
 142.372070312 644.036132812 274.459960938 644.024414062 344.873046875 647 c 0
 357.784179688 647 364.376953125 636.5234375 363.62109375 627.357421875 c 0
EndSplineSet
Validated: 524321
EndChar
StartChar: V
Encoding: 86 86 75
Width: 663
Flags: W
HStem: -22 21G<122.795 134.897> 607.017 39.9834<54.1327 125.135 250.523 345.242 537.559 610.563 707.626 767.132>
LayerCount: 2
Fore
SplineSet
555.075195312 647 m 0
 635.202148438 650.997070312 679.8984375 650.999023438 755.920898438 647 c 0
 763.373046875 647 766.426757812 640.465820312 767.229492188 636.067382812 c 0
 768.935546875 626.72265625 764.786132812 612.310546875 752.171875 610.075195312 c 0
 710.008789062 596.411132812 682.319335938 568.8203125 639.547851562 519.0859375 c 2
 157.522460938 -15.10546875 l 2
 153.614257812 -19.47265625 140.793945312 -22 129 -22 c 0
 116.58984375 -22 106 -11.41015625 106 1 c 2
 106 1.150390625 l 1
 106.0078125 1.30078125 l 1
 133.0078125 527.31640625 l 2
 133.336914062 533.237304688 133.528320312 538.805664062 133.532226562 544.109375 c 0
 133.561523438 586.111328125 123.708984375 608 71 608 c 2
 66.7900390625 608 l 2
 54.830078125 607.137695312 53.9521484375 618.227539062 53.91015625 623.108398438 c 0
 53.84375 630.911132812 56.8720703125 647 70.0771484375 647 c 0
 186.593676175 643.997070312 265.787064513 644.000976562 333.760019887 646.994140625 c 2
 333.900174468 647 l 1
 334.041337356 647 l 2
 342.066447525 647 344.779799889 639.607421875 345.334368377 635.237304688 c 0
 346.602817754 625.243164062 343.260282233 609.349609375 324.093386995 607.806640625 c 0
 317.542420696 607.171875 295.225576448 609.5625 282.500750423 607.09765625 c 0
 249.709619904 601.8046875 237.995116832 575.453125 234.909699429 526.643554688 c 2
 208.874057858 106.622070312 l 2
 208.693707751 103.991210938 208.652628005 100.833007812 208.685692191 99.7587890625 c 1
 210.541294402 101.55078125 211.497149968 102.599609375 213.396837761 104.848632812 c 2
 572.443359375 514.904296875 l 2
 604.469726562 551.93359375 611 566.428710938 611 581 c 0
 611 606.3515625 594.112304688 605.943359375 570.727539062 607.005859375 c 2
 570.491210938 607.016601562 l 1
 570.255859375 607.045898438 l 2
 563.083984375 607.942382812 557.915039062 608.440429688 552.02809355 610.012695312 c 0
 540.231917665 611.190429688 537.444958938 621.46484375 537.444958938 629 c 2
 537.444958938 629.374023438 l 1
 537.492349336 629.744140625 l 2
 538.817263868 640.009765625 546.121435003 647 555.075195312 647 c 0
EndSplineSet
Validated: 524321
EndChar
StartChar: W
Encoding: 87 87 76
Width: 916
Flags: W
HStem: -15 21G<512.592 522.494> 608 39<46.1636 121.859 241.299 302.781 427.473 505.968 621.936 703.456 815.227 889.371>
LayerCount: 2
Fore
SplineSet
704.11328125 634.055664062 m 0
 704.188476562 625.987304688 700.2734375 608 688.28515625 608 c 0
 614.583007812 600.138671875 616.861328125 599.342773438 611.950195312 531.57421875 c 2
 582.950195312 123.572265625 l 2
 582.814453125 121.669921875 582.779296875 119.545898438 582.793945312 118.362304688 c 1
 583.5859375 119.366210938 584.193359375 120.1953125 585.041015625 121.427734375 c 2
 864.069335938 517.467773438 l 2
 871.483398438 527.934570312 882.182617188 544.919921875 887.491210938 561.11328125 c 0
 894.137695312 581.384765625 892.505859375 597.465820312 871.229492188 604.255859375 c 0
 858.510742188 607.889648438 843.921875 608 829.965820312 608 c 0
 818.280273438 608 813.71484375 620.989257812 815.047851562 628.986328125 c 2
 815.07421875 629.14453125 l 1
 815.108398438 629.301757812 l 2
 817.547851562 640.27734375 825.20703125 647 833.0390625 647 c 0
 874.23828125 645.995117188 961.994140625 643.012695312 1028.60839844 646.989257812 c 2
 1028.78710938 647 l 1
 1028.96582031 647 l 2
 1043.12109375 647 1039.90625 630.702148438 1038.81347656 627.485351562 c 0
 1037.02050781 618.1796875 1032.89746094 611.32421875 1024.51855469 609.95703125 c 0
 994.243164062 602.421875 969.328125 582.790039062 928.834960938 526.495117188 c 2
 540.80078125 -0.552734375 l 2
 537.709960938 -4.6748046875 530.022460938 -15 514.965820312 -15 c 0
 510.21875 -15 497.567382812 -15.4150390625 494.2265625 -14.166015625 c 0
 488.502929688 -11.876953125 476.965820312 -10.138671875 476.965820312 1 c 2
 476.965820312 1.2109375 l 1
 476.98046875 1.421875 l 1
 508.965820312 443.2109375 l 2
 508.965820312 443.59765625 508.913085938 446.029296875 508.900390625 446.288085938 c 2
 137.698242188 -2.6875 l 1
 137.470703125 -2.98046875 l 1
 137.208007812 -3.2421875 l 2
 135.748046875 -4.703125 129.025390625 -13.814453125 118.333984375 -15.0615234375 c 0
 113.098632812 -16.1318359375 100.546875 -17.330078125 94.5107421875 -15.8212890625 c 2
 94.287109375 -15.7646484375 l 1
 94.068359375 -15.6923828125 l 2
 89.5888671875 -14.19921875 77.0224609375 -11.1611328125 79.0068359375 0.7451171875 c 2
 124.986328125 536.501953125 l 1
 125.000976562 536.67578125 l 1
 125.026367188 536.848632812 l 2
 125.95703125 543.368164062 125.965820312 548.991210938 125.965820312 555 c 0
 125.965820312 602.983398438 112.114257812 605.134765625 94.8154296875 606 c 0
 85.744140625 606 68.7978515625 607.25 60.3154296875 609.000976562 c 0
 48.0673828125 609.86328125 43.7568359375 620.720703125 46.0947265625 631.239257812 c 0
 47.4853515625 638.193359375 53.9033203125 647 64.0732421875 647 c 0
 120.072265625 645 237.916015625 645.000976562 302.78125 646.997070312 c 1
 302.85600387 644.787109375 321.20060348 638.186523438 319.309330578 626.08203125 c 0
 317.737363491 617.459960938 309.233576863 609.17578125 302.834645621 608.177734375 c 0
 234.696289062 600.162109375 230.834960938 592.452148438 222.93359375 518.380859375 c 2
 181.924804688 123.293945312 l 2
 181.547851562 120.466796875 181.338867188 118.16015625 181.220703125 116.047851562 c 1
 182.174804688 117.116210938 183.110351562 118.245117188 184.234375 119.689453125 c 2
 509.965820312 522.0625 l 1
 509.965820312 557 l 2
 509.965820312 600.880859375 502.788085938 605.900390625 440.891159993 607.969726562 c 0
 428.687056818 608.315429688 427.433327632 617.608398438 427.269937032 622.71484375 c 0
 427.034996298 630.049804688 429.443138813 647 443.065429688 647 c 0
 503.123046875 650.998046875 627.806640625 650.998046875 692.873046875 647 c 0
 701.552734375 647 704.068359375 638.948242188 704.11328125 634.055664062 c 0
EndSplineSet
Validated: 524321
EndChar
StartChar: X
Encoding: 88 88 77
Width: 728
Flags: W
HStem: -0.987305 33.9961<-12.0318 78.0141 438.966 525.844 659.864 733.672> 610 36<122.02 217.586 349.238 431.048 538.976 618.759 722.192 811.194>
LayerCount: 2
Fore
SplineSet
238.779296875 -2.017578125 m 0
 178.196289062 -0.9736328125 70.5302734375 2.02734375 4.1962890625 -0.9873046875 c 0
 -11.0927734375 -2.3486328125 -13.3193359375 8.640625 -12.1416015625 15.5634765625 c 0
 -11.080078125 22.833984375 -6.494140625 31.9794921875 -0.568359375 33.0087890625 c 0
 84.5908203125 44.193359375 75.9560546875 42.7158203125 131.545898438 97.140625 c 2
 364.119140625 324.834960938 l 2
 367.541992188 330.036132812 368.19140625 332.993164062 367.099609375 338.625976562 c 2
 244.526367188 559.118164062 l 2
 222.703125 598.967773438 201.087890625 608.017578125 132.701171875 610 c 0
 120.672851562 610 121.788085938 626.521484375 121.788085938 630 c 2
 121.788085938 630.83984375 l 1
 122.01953125 631.6484375 l 2
 124.877929688 641.654296875 133.6875 646 138.8515625 646 c 0
 233.884765625 649.999023438 359.654296875 650.999023438 414.734375 646 c 0
 426.335975383 646 432.70885081 635.858398438 431.098288254 627.013671875 c 0
 430.05659902 621.295898438 426.791714423 610 415.942563743 610 c 0
 356.571289062 608.978515625 348.788085938 603.037109375 348.788085938 587 c 0
 348.788085938 576.358398438 355.740234375 565.451171875 362.103515625 553.786132812 c 2
 441.356152217 400.806640625 l 2
 441.701958889 400.237304688 442.440533633 399.204101562 442.440533633 399.204101562 c 2
 444.091653761 400.211914062 446.677732669 402.104492188 448.69600556 403.515625 c 2
 595.5078125 546.205078125 l 2
 613.498046875 564.194335938 619.788085938 574.76171875 619.788085938 585 c 0
 619.788085938 600.20703125 610.413085938 607.823242188 552.67174684 609.9921875 c 0
 543.143919184 609.265625 538.790383953 617.604492188 538.610009485 623.370117188 c 0
 538.367731354 631.051757812 542.608132304 646 555.877929688 646 c 0
 623.034179688 649.995117188 720.598632812 648.997070312 795.668945312 646 c 0
 809.916015625 646 811.788085938 637.301757812 811.788085938 631 c 2
 811.788085938 630.573242188 l 1
 811.728515625 630.151367188 l 2
 810.463867188 621.30078125 802.006835938 612.823242188 799.400390625 612.4296875 c 0
 732.184570312 603.458984375 695.041992188 586.766601562 641.094726562 530.822265625 c 2
 471.960042685 367.500976562 l 1
 471.601428359 367.168945312 l 1
 471.1883815 366.892578125 l 2
 470.006875371 365.844726562 469.195723919 359.715820312 469.792347158 358.6484375 c 2
 614.05859375 111.315429688 l 2
 650.705078125 45.44921875 662.73046875 38.86328125 724.543945312 30.2275390625 c 0
 730.834960938 29.5439453125 733.5859375 23.8525390625 733.833007812 19.80859375 c 0
 734.2421875 13.1064453125 730.641601562 -2 719.69921875 -2 c 0
 652.768554688 -0.001953125 526.135353986 -0.0068359375 459.944328139 -1.9931640625 c 0
 438.914159423 -3.3671875 437.646201626 13.140625 438.965390041 19.1767578125 c 2
 438.995274568 19.31640625 l 1
 439.033697532 19.455078125 l 2
 440.553539201 25.0185546875 444.949766614 33.341796875 456.728539551 33.0537109375 c 0
 483.015183142 33.927734375 505.849096536 35.8154296875 516.737737485 40.9609375 c 0
 527.768329937 46.1728515625 532.309710768 55.125 516.110162413 83.18359375 c 2
 398.625 287.931640625 l 2
 396.033203125 291.75 394.814453125 293.330078125 392.953125 295.080078125 c 0
 390.052734375 297.8046875 390.029296875 298.114257812 387.2734375 295.013671875 c 2
 387.161132812 294.888671875 l 1
 387.04296875 294.76953125 l 1
 209.03125 115.7578125 l 2
 184.346679688 91.0732421875 173.889648438 73.30078125 173.075195312 62.384765625 c 0
 171.870117188 46.236328125 193.029296875 36.244140625 243.177734375 32.9873046875 c 2
 243.951171875 32.9375 l 1
 244.685546875 32.6923828125 l 2
 250.793945312 30.65625 251.485351562 24.4873046875 251.672851562 21.2119140625 c 0
 252.108398438 13.603515625 249.001953125 -1.486328125 238.779296875 -2.017578125 c 0
EndSplineSet
Validated: 524321
EndChar
StartChar: Y
Encoding: 89 89 78
Width: 663
Flags: W
HStem: -2.01562 40.127<175.182 252.427 389.521 491.557> 610 35.9932<102.938 162.292 286.133 349.615 581.184 638.295 731.247 775.914>
LayerCount: 2
Fore
SplineSet
349.985032219 626.178710938 m 0
 349.142917171 622.399414062 348.51760409 610 338.166313874 610 c 0
 317.139534206 608.266601562 302.60276157 606.728515625 294.640307844 603.50390625 c 0
 282.892853109 598.747070312 281.251782664 589.73046875 301.414365602 544.40625 c 2
 406.250161241 311.40625 l 1
 406.317409999 311.2578125 l 1
 406.375625342 311.106445312 l 2
 406.850381501 309.875976562 407.439560921 308.109375 407.597143833 307.643554688 c 1
 409.992002599 310.061523438 410.341294657 310.486328125 412.314594042 312.848632812 c 2
 601.479328886 526.904296875 l 2
 632.701823285 562.345703125 640.079112442 572.166015625 640.079112442 584 c 0
 640.079112442 598.235351562 626.902370665 607.985351562 582.236146882 610.006835938 c 2
 581.704179092 610.030273438 l 1
 581.184255856 610.142578125 l 2
 573.019052143 611.908203125 571.818611621 620.043945312 572.141807146 624.772460938 c 0
 572.741023694 633.538085938 577.690331563 647.079101562 592.47401755 645.926757812 c 0
 655.845433271 643.006835938 707.243164062 642.041992188 769.3984375 645.98828125 c 2
 769.587890625 646 l 1
 769.778320312 646 l 2
 775.405273438 646 787.950195312 642.265625 785.649414062 630.760742188 c 0
 783.415039062 620.706054688 779.52734375 616.263671875 778.020507812 614.7578125 c 2
 777.11328125 613.849609375 l 1
 775.9140625 613.393554688 l 2
 734.159179688 597.486328125 723.211914062 591.952148438 682.323242188 544.083007812 c 2
 422.758225836 260.009765625 l 1
 391.219561902 114.983398438 l 2
 387.683481671 98.9560546875 385.686093178 85.75 385.92598054 75.4287109375 c 0
 386.530215651 49.3603515625 399.301457453 38.583984375 452.933847773 40 c 0
 461.002695057 40 474.037913328 41.3974609375 483.251996929 38.8359375 c 0
 490.69452742 37.3876953125 492.265337968 30.3935546875 492.356675834 25.9755859375 c 0
 492.528310725 17.783203125 488.642938435 -2 476.577306739 -2 c 0
 398.451312703 0 254.701571398 -0.0009765625 167.91796875 -1.998046875 c 2
 167.188476562 -2.015625 l 1
 166.4765625 -1.857421875 l 2
 160.282226562 -0.5107421875 158.192382812 5.1708984375 157.755859375 9.109375 c 0
 156.728515625 18.3935546875 161.728515625 36.771484375 175.181640625 38.087890625 c 2
 175.349609375 38.1044921875 l 1
 175.517578125 38.111328125 l 2
 198.833984375 39.103515625 235.340954995 39.724609375 253.281317772 50.8251953125 c 0
 267.45474637 60.1015625 277.476818783 77.828125 286.654768723 117.630859375 c 2
 319.125881858 262.522460938 l 1
 191.276367188 541.606445312 l 2
 166.526367188 599.02734375 152.202148438 608.133789062 118.611328125 610 c 0
 105.619140625 610 100.471679688 618.061523438 102.875976562 630.08203125 c 0
 104.1328125 637.623046875 109.870117188 646 119.778320312 646 c 2
 119.923828125 646 l 1
 120.068359375 645.993164062 l 2
 181.729492188 643.009765625 283.405750355 644.00390625 336.640670402 645.995117188 c 2
 337.269998334 646.01953125 l 1
 337.891296564 645.91796875 l 2
 346.612557175 644.50390625 353.645572839 637.616210938 349.985032219 626.178710938 c 0
EndSplineSet
Validated: 524321
EndChar
StartChar: Z
Encoding: 90 90 79
Width: 711
Flags: W
HStem: -2 46<152.635 533.876> 601 45<293.35 602.535>
VStem: 166.856 37.5295<454.409 467.527>
LayerCount: 2
Fore
SplineSet
751.150390625 612.868164062 m 1
 749.903320312 611.670898438 l 2
 600.210615487 471.7109375 314.529628978 199.455078125 153.792827967 45.720703125 c 0
 153.389866071 45.3359375 152.697931499 44.6591796875 152.584942183 44.548828125 c 1
 153.641842244 44.3681640625 155.510665532 44.0830078125 156.059613624 44 c 2
 424.879194518 44 l 2
 492.757776038 44 527.501490734 55.55859375 562.090220085 85.4794921875 c 0
 591.107476264 110.887695312 613.233384077 140.256835938 643.603515625 190.086914062 c 2
 644.208984375 191.094726562 l 1
 645.1484375 191.799804688 l 2
 650.130859375 195.536132812 658.834960938 199.663085938 666.204101562 197.821289062 c 2
 666.427734375 197.764648438 l 1
 666.646484375 197.692382812 l 2
 675.731445312 194.6640625 677.946289062 186.849609375 675.482421875 178.2265625 c 0
 664.546875 145.421875 642.520507812 62.357421875 631.525654392 21.5478515625 c 0
 627.785008101 5.71484375 613.76233406 -2 601.973448797 -2 c 0
 447.357069049 0 170.974203327 -0 9.82421875 -2 c 2
 8.8115234375 -2.01171875 l 1
 7.8515625 -1.6923828125 l 2
 -6.4111328125 2.96875 1.060546875 27.21875 4.53515625 30.625 c 0
 153.385866449 171.858398438 425.543131737 432.452148438 599.804653874 598.327148438 c 0
 601.017539186 599.426757812 602.352412962 600.763671875 602.53539566 600.950195312 c 1
 601.042536822 601.000976562 599.571675904 601 597.918832194 601 c 2
 399.28161498 601 l 2
 297.075279431 601 243.574338386 564.071289062 204.385044056 462.98828125 c 0
 201.479318817 454.47265625 189.69543308 454.7421875 186.490736111 454.116210938 c 2
 185.893792557 454 l 1
 185.285850042 454 l 2
 181.688190231 454 166.855592775 454 166.855592775 466 c 2
 166.855592775 466.776367188 l 1
 167.057573676 467.52734375 l 2
 177.333601993 505.6640625 204.917993662 592.935546875 208.870619908 628.64453125 c 2
 208.90761641 628.9765625 l 1
 208.981609413 629.301757812 l 2
 212.163308557 643.282226562 228.665748116 646 235.506101304 646 c 0
 364.504903404 644 599.919643001 645 728.702148438 646 c 1
 728.702148438 646 739.459960938 645.764648438 740.329101562 645.571289062 c 0
 756.030273438 642.068359375 754.561523438 626.512695312 751.569335938 614.544921875 c 2
 751.150390625 612.868164062 l 1
EndSplineSet
Validated: 524321
EndChar
StartChar: bracketleft
Encoding: 91 91 80
Width: 331
Flags: W
HStem: -228 33<148.316 272.187> 647 34<322.979 453.102>
LayerCount: 2
Fore
SplineSet
460.829101562 681 m 1
 459.163085938 673.669921875 l 1
 454.163085938 651.669921875 l 1
 453.1015625 647 l 1
 448.3125 647 l 1
 355.3125 647 l 2
 329.934313946 647 324.67308821 642.25 318.539562216 614.807617188 c 2
 151.197265625 -163.169921875 l 1
 151.168945312 -163.313476562 l 1
 151.133789062 -163.455078125 l 2
 149.225585938 -171.084960938 148.3125 -177.88671875 148.3125 -181 c 0
 148.3125 -187.986328125 152.443359375 -195 193.378714763 -195 c 2
 271.145284748 -195 l 1
 278.977001086 -195 l 1
 277.510861596 -202.123046875 l 1
 273.190496597 -223.123046875 l 1
 272.18740404 -228 l 1
 266.824919749 -228 l 1
 66.3125 -228 l 1
 59 -228 l 1
 60.427734375 -220.828125 l 1
 246.427649643 676.171875 l 1
 247.466604605 681 l 1
 252.783733502 681 l 1
 453.3125 681 l 1
 460.829101562 681 l 1
EndSplineSet
Validated: 524289
EndChar
StartChar: backslash
Encoding: 92 92 81
Width: 235
Flags: W
HStem: -16 21G<163.89 244.678> 642 20G<74 154.788>
VStem: 74.8896 169.788
LayerCount: 2
Fore
SplineSet
244.677734375 -16 m 1
 237.838867188 -16 l 1
 169.838867188 -16 l 1
 164.575195312 -16 l 1
 163.889648438 -10.78125 l 1
 74.8896484375 655.21875 l 1
 74 662 l 1
 80.8388671875 662 l 1
 148.838867188 662 l 1
 154.102539062 662 l 1
 154.788085938 656.78125 l 1
 243.788085938 -9.21875 l 1
 244.677734375 -16 l 1
EndSplineSet
Validated: 524289
EndChar
StartChar: bracketright
Encoding: 93 93 82
Width: 331
Flags: W
HStem: -228 34<-34.8184 97.4344> 648 33<147.265 271.187>
LayerCount: 2
Fore
SplineSet
102.003289906 -160.829101562 m 2
 269.272460938 616.010742188 l 2
 270.241210938 622.79296875 271.189453125 631.768554688 271.189453125 635 c 0
 271.189453125 641.765625 267.423828125 648 224.967979228 648 c 2
 148.307216974 648 l 1
 140.478126969 648 l 1
 141.942720372 655.123046875 l 1
 146.261636556 676.123046875 l 1
 147.265447153 681 l 1
 152.626133158 681 l 1
 354.189453125 681 l 1
 361.509765625 681 l 1
 360.072265625 673.822265625 l 1
 173.014454281 -223.177734375 l 1
 171.972684459 -228 l 1
 166.662610753 -228 l 1
 -33.810546875 -228 l 1
 -41 -228 l 1
 -39.7138671875 -220.926757812 l 1
 -35.7138671875 -198.926757812 l 1
 -34.818359375 -194 l 1
 -29.810546875 -194 l 1
 64.189453125 -194 l 2
 89.5969501079 -194 95.8971269134 -189.10546875 102.003289906 -160.829101562 c 2
EndSplineSet
Validated: 524289
EndChar
StartChar: asciicircum
Encoding: 94 94 83
Width: 458
Flags: W
LayerCount: 2
Fore
SplineSet
533.991210938 322 m 1
 523.532226562 322 l 1
 472.532226562 322 l 1
 469.09765625 322 l 1
 467.358398438 324.962890625 l 1
 294.545051429 609.173828125 l 1
 120.69921875 324.94921875 l 1
 118.958007812 322 l 1
 115.532226562 322 l 1
 64.5322265625 322 l 1
 54 322 l 1
 59.3720703125 331.059570312 l 1
 281.760281721 697.059570312 l 1
 283.595194797 700 l 1
 287.192035611 700 l 1
 304.034173338 700 l 1
 307.657741177 700 l 1
 309.486486479 697.028320312 l 1
 528.711914062 331.028320312 l 1
 533.991210938 322 l 1
EndSplineSet
Validated: 524289
EndChar
StartChar: underscore
Encoding: 95 95 84
Width: 533
Flags: W
HStem: -222 53<-5.63305 521.354>
LayerCount: 2
Fore
SplineSet
11.5361328125 -222 m 2
 0.787109375 -222.956054688 -10.3671875 -216.720703125 -8.9658203125 -202.701171875 c 0
 -8.9658203125 -198.13671875 -9.263671875 -197.399414062 -5.947265625 -192.03125 c 0
 -5.7353515625 -184.598632812 -0.4599609375 -169 20.0341796875 -169 c 0
 143.849144853 -169 505.116210938 -170.716796875 519.9921875 -168.090820312 c 2
 521.353515625 -167.850585938 l 1
 522.682617188 -168.23046875 l 2
 528.791015625 -169.9765625 537.55859375 -171.59765625 540.7265625 -181.102539062 c 2
 540.78515625 -181.276367188 l 1
 540.83203125 -181.454101562 l 2
 542.395507812 -187.318359375 543.208984375 -189.830078125 542.629882812 -193.244140625 c 0
 541.659179688 -198.961914062 540.638671875 -194.908203125 540.024414062 -205.352539062 c 2
 539.952148438 -206.58203125 l 1
 539.401367188 -207.68359375 l 2
 537.176757812 -212.1328125 530.643554688 -222.239257812 520.493164062 -222.041015625 c 2
 11.5361328125 -222 l 2
EndSplineSet
Validated: 524321
EndChar
StartChar: grave
Encoding: 96 96 85
Width: 351
Flags: W
HStem: 482 175
LayerCount: 2
Fore
SplineSet
275.865234375 649.091796875 m 1
 324.572265625 494.852539062 l 2
 327.375976562 486.442382812 318.982421875 482 312.865234375 482 c 0
 308.088867188 482 301.458984375 482.920898438 296.623046875 487.7578125 c 2
 296.44140625 487.938476562 l 1
 296.276367188 488.133789062 l 1
 173.201171875 634.223632812 l 2
 162.25390625 648.298828125 175.638671875 657 183.865234375 657 c 2
 257.865234375 657 l 2
 261.193359375 657 269.321289062 658.725585938 274.665039062 651.599609375 c 2
 275.865234375 650 l 1
 275.865234375 649.091796875 l 1
EndSplineSet
Validated: 524289
EndChar
StartChar: a
Encoding: 97 97 86
Width: 440
Flags: W
HStem: -12 64.0039<123.317 151.252> 365.09 62.9102<281.565 326.928>
VStem: 37 79<53.6623 195.997> 262.679 86.3309<64.8203 114.236>
LayerCount: 2
Fore
SplineSet
418.81640625 82.79296875 m 1
 418.439453125 82.3896484375 l 2
 408.509765625 71.7578125 388.461914062 49.3046875 367.193359375 28.6005859375 c 0
 345.279296875 8.23828125 321.705078125 -12 301.894047858 -12 c 0
 269.045212231 -12 261.602199728 19.5546875 262.678861914 49.23046875 c 0
 263.761907473 72.078125 268.037703249 93.921875 273.215682359 115.235351562 c 1
 272.966730825 114.96875 l 1
 272.841191163 114.848632812 l 2
 248.367340446 91.4072265625 146.444335938 -12 105 -12 c 0
 64.7353515625 -12 37 45.0615234375 37 99.947265625 c 0
 37 202.94921875 117.412109375 323.129882812 233.228108325 385.342773438 c 0
 292.007267527 416.0625 344.141601562 427.013671875 403.94921875 428 c 0
 410.5859375 428 414.853515625 422.69140625 415.954101562 414.123046875 c 2
 416.073242188 413.189453125 l 1
 415.88671875 412.267578125 l 1
 356.903320312 121.291015625 l 2
 355.85546875 115.166992188 345.568359375 73.931640625 349.009765625 64.8203125 c 1
 357.032226562 66.71484375 378.74609375 87.53125 386.479492188 96 c 0
 392.543945312 102.887695312 397.756835938 107.969726562 399.7578125 109.91796875 c 0
 404.076171875 114.12109375 410.323242188 115.475585938 415.326171875 112.534179688 c 0
 424.220703125 107.3046875 425.682617188 93.6552734375 419.110351562 83.2578125 c 2
 418.81640625 82.79296875 l 1
325.19140625 358.548828125 m 1
 325.307617188 358.897460938 l 2
 326.092773438 361.251953125 326.825195312 364.124023438 326.927734375 365.08984375 c 1
 325.928710938 365.061523438 326.591796875 365.120117188 325.595703125 365.029296875 c 0
 278.595801602 360.140625 243.827698601 346.573242188 212.971539134 327.041015625 c 0
 152.627929688 289.5546875 116 205.56640625 116 118 c 0
 116 74.16015625 132.237304688 52.3388671875 140.75 52.00390625 c 0
 155.9296875 56.9033203125 262.967177578 147.962890625 285.003643841 167.0546875 c 1
 325.119140625 358.188476562 l 1
 325.19140625 358.548828125 l 1
EndSplineSet
Validated: 524321
EndChar
StartChar: b
Encoding: 98 98 87
Width: 438
Flags: W
HStem: -12 38<146.687 230.421> 357 73<301.082 354.65>
VStem: 328.918 80.0967<177.212 354.015>
LayerCount: 2
Fore
SplineSet
347.91796875 430 m 0
 361.381835938 430 372.119140625 416.362304688 380.118164062 402.733398438 c 0
 400.115234375 369.166015625 408.958007812 329.916015625 409.014648438 289.416015625 c 0
 409.2109375 149.208007812 303.892578125 -12 166.91796875 -12 c 0
 156.237304688 -12 146.491210938 -11.0986328125 137.611328125 -9.3662109375 c 0
 59.6767578125 5.580078125 54.5810546875 81.3291015625 68.037109375 147.453125 c 0
 105.010742188 327.184570312 133.001953125 499.182617188 176.087890625 678.416992188 c 0
 176.36328125 679.520507812 176.430664062 681.01171875 176.370117188 681.9140625 c 1
 170.3046875 680.486328125 155.831054688 673.629882812 141.859375 665.770507812 c 2
 141.625 665.638671875 l 1
 141.379882812 665.528320312 l 2
 132.380859375 661.478515625 123.37890625 661.908203125 119.258789062 669.116210938 c 0
 114.41796875 677.586914062 118.821289062 689.69921875 126.943359375 694.2109375 c 2
 217.901027615 745.182617188 l 2
 236.086785566 754.598632812 249.644961816 760.087890625 260.81343111 758.107421875 c 0
 277.531477699 755.142578125 277.107887838 738.045898438 272.999616303 719.815429688 c 2
 176.79296875 292.779296875 l 2
 176.639648438 292.06640625 176.46875 291.139648438 176.46875 291.139648438 c 1
 207.205658685 322.3515625 304.750976562 430 347.91796875 430 c 0
180.91796875 26 m 0
 272.818077792 26 328.91796875 194.57421875 328.91796875 261.463867188 c 0
 328.91796875 325.069335938 311.890625 357 301.91796875 357 c 0
 291.443359375 357 260.250111607 334.900390625 231.916900961 308.690429688 c 0
 208.380707962 286.610351562 184.851116363 262.6171875 172.426757812 248.95703125 c 0
 169.013671875 245.297851562 167.375 243.560546875 167.375 243.560546875 c 2
 167.11328125 241.452148438 166.9765625 238.975585938 165.798828125 233.295898438 c 2
 146.802734375 142.603515625 l 2
 143.646484375 126.994140625 139.443359375 104.498046875 139.3984375 83.5 c 0
 139.329101562 51.0244140625 148.227539062 26 180.91796875 26 c 0
EndSplineSet
Validated: 524321
EndChar
StartChar: c
Encoding: 99 99 88
Width: 312
Flags: W
HStem: -12 61<126.151 202.231> 368 61<192.984 294.573>
VStem: 35 80.5684<57.9064 212.923>
LayerCount: 2
Fore
SplineSet
293 342 m 0
 271.181640625 342 257.821289062 350.908203125 241.133789062 360.724609375 c 0
 229.416992188 366.583007812 223.841796875 368 217 368 c 0
 199.477539062 368 179.524414062 350.099609375 159.5703125 302.393554688 c 0
 147.686523438 273.279296875 115.841796875 184.3671875 115.568359375 119.993164062 c 0
 115.385742188 77.125 128.07421875 49 165 49 c 0
 191.978515625 49 228.381835938 71.3291015625 259.734375 108.069335938 c 0
 266.529296875 119.723632812 280.211914062 110.383789062 283.198242188 107.3671875 c 0
 291.57421875 100.833984375 294.73828125 92.6904296875 291.571289062 84.771484375 c 2
 291.208007812 83.865234375 l 1
 290.577148438 83.12109375 l 2
 239.889648438 23.3095703125 177.755859375 -12 130 -12 c 0
 72.857421875 -12 35 34.6455078125 35 100.926757812 c 0
 35 212.74609375 126.782226562 429 268 429 c 0
 301.49609375 429 328 412.624023438 328 383 c 0
 328 360.794921875 314.190429688 342 293 342 c 0
EndSplineSet
Validated: 524321
EndChar
StartChar: d
Encoding: 100 100 89
Width: 474
Flags: W
HStem: -12 66<104 165.758> 648.697 21G<337.931 347.464>
VStem: 49 80<55.3076 226.537> 267.054 89.7974<64.207 123.484>
LayerCount: 2
Fore
SplineSet
468.879882812 752.555664062 m 0
 481.723632812 750.083984375 485.884765625 736.829101562 481.889648438 716.852539062 c 2
 358.596144282 79.3486328125 l 2
 357.893585543 76.10546875 356.458284059 67.373046875 356.851716953 64.20703125 c 1
 365.247070312 67.99609375 384.271484375 86.734375 409.053710938 121.204101562 c 0
 413.681640625 128.034179688 422.416015625 126.409179688 427.599609375 122.583984375 c 2
 427.94140625 122.33203125 l 1
 428.2421875 122.036132812 l 2
 431.950195312 118.388671875 440.505859375 109.685546875 433.059570312 97.9638671875 c 0
 393.743164062 38.45703125 333.69850339 -12 297.962723012 -12 c 0
 276.817266201 -12 267.054301794 5.8984375 267.054301794 27 c 0
 267.054301794 63.8388671875 279.769053734 94.962890625 284.984641649 124.887695312 c 1
 214.041821397 40.91796875 150.451171875 -12 115 -12 c 0
 72.3154296875 -12 49 46.8544921875 49 116.44140625 c 0
 49 222.689453125 111.037109375 334.211914062 207.815589725 401.361328125 c 0
 248.081052522 429.180664062 303.471824356 444.03515625 343.03681007 407.610351562 c 1
 345.276671413 410.8828125 347.175141251 416.135742188 348.16600928 421.109375 c 2
 398.103515625 673.109375 l 2
 398.7890625 676.880859375 399.122070312 680.061523438 399.2109375 681.762695312 c 1
 396.762695312 680.732421875 394.133789062 679.358398438 390.74609375 677.665039062 c 0
 374.208984375 668.91015625 356.669572095 657.842773438 338.258369815 648.697265625 c 1
 337.602648325 649.859375 319.800330285 646.3046875 316.271924172 659.544921875 c 2
 316.178249673 659.896484375 l 1
 316.130371596 660.255859375 l 2
 314.895949871 669.526367188 317.088973965 680.255859375 327.517027312 684.599609375 c 2
 436.0859375 743.245117188 l 2
 445.409179688 748.424804688 457.82421875 754.68359375 468.879882812 752.555664062 c 0
298.343665973 195.420898438 m 1
 328.646325433 342.483398438 l 1
 313.564731163 379.302734375 291.398222318 397 268.120109423 397 c 0
 244.581789587 397 218.161417678 375.879882812 188.388539549 327.991210938 c 0
 149.666015625 262.815429688 129 191.748046875 129 126 c 0
 129 76.041015625 142.952148438 54 155 54 c 0
 171.392863025 54 233.334604792 110.038085938 298.343665973 195.420898438 c 1
EndSplineSet
Validated: 524321
EndChar
StartChar: e
Encoding: 101 101 90
Width: 388
Flags: W
HStem: -12 54.5205<144.062 243.035> 393.003 37.9971<211.036 302.453>
VStem: 38 87<60.3863 215.466>
LayerCount: 2
Fore
SplineSet
283 431 m 0
 337.286132812 431 373 402.495117188 373 354.083984375 c 0
 373 295.423828125 331.391601562 258.663085938 281.79296875 234.024414062 c 0
 257.328125 221.122070312 226.413144767 212.194335938 196.683170181 204.413085938 c 0
 168.049710561 196.619140625 151.016601562 193.430664062 132.017578125 187.92578125 c 0
 124.17578125 184.124023438 125 181.981445312 125 181.751953125 c 2
 125 181.143554688 l 1
 124.87109375 180.547851562 l 2
 120.979492188 162.548828125 120 146.474609375 120 130.149414062 c 0
 120 72.8994140625 150.950195312 41.634765625 197.871340832 42.5205078125 c 0
 229.604327466 43.4208984375 266.712890625 59.1171875 315.240234375 95.7578125 c 0
 324.211914062 103.037109375 334.047851562 98.966796875 337.651367188 90.3359375 c 0
 341.452148438 81.88671875 341.264648438 72.2958984375 335.9921875 64.5966796875 c 2
 335.528320312 63.919921875 l 1
 334.892578125 63.3916015625 l 2
 272.984375 12.0087890625 198.00882436 -12 147 -12 c 0
 84.0625 -12 38 53.65625 38 134.043945312 c 0
 38 283.008789062 149.051757812 431 283 431 c 0
251.041698042 268.352539062 m 0
 288.45703125 287.413085938 306.166992188 319.626953125 308.013671875 346.40625 c 0
 309.85546875 374.029296875 296.052734375 393.874023438 268.170898438 393.002929688 c 0
 232.747446819 392.063476562 203.014118976 375.415039062 184.648331608 346.153320312 c 0
 174.185052711 328.88671875 165.229621611 317.153320312 157.5234375 300.655273438 c 0
 150.618164062 284.872070312 144.84375 267.635742188 137.842773438 235.630859375 c 0
 137.711914062 235.109375 142.923828125 235.834960938 146.541992188 236.821289062 c 0
 185.047369164 244.841796875 214.988598927 252.603515625 251.041698042 268.352539062 c 0
EndSplineSet
Validated: 524321
EndChar
StartChar: f
Encoding: 102 102 91
Width: 307
Flags: W
HStem: -274 49<-99.2183 -16.2376> -272.216 93.1855<-160.786 -96.26> 368.327 50.1982<223.387 297.468> 369.4 35.0186<67.0157 130.772> 705 53<308.508 407.868>
LayerCount: 2
Fore
SplineSet
79.3588851918 369.400390625 m 2x98
 60.9079738596 368.774414062 66.3498656836 383.825195312 66.816773562 386.053710938 c 0
 67.9840432579 394.94921875 74.5459102299 403.73046875 79.1878198053 404.418945312 c 0x98
 102.10856906 407.3046875 105.07303158 407.125976562 116.48611166 410.387695312 c 2
 116.622963969 410.427734375 l 1
 116.762835079 410.4609375 l 2
 123.603438004 412.08984375 131.234966775 414.647460938 140.706957851 417.283203125 c 1
 148.263016598 455.771484375 161.062732575 513.302734375 175.259147119 552.91796875 c 0
 195.941958611 613.133789062 214.957385719 650.189453125 243.323045598 682.815429688 c 0
 282.334003851 729.883789062 337.50259099 758 387.045898438 758 c 0
 428.689453125 758 469.223632812 731.05859375 468.041992188 696.771484375 c 0
 466.817382812 667.399414062 439.2578125 660.94921875 418.375 663.037109375 c 0
 380.251953125 667.802734375 375.987304688 705 339.801911038 705 c 0
 323.230706423 705 300.953968035 691.579101562 287.293893792 670.747070312 c 0
 270.77501506 646.229492188 256.202256666 596.733398438 240.78725281 513.954101562 c 2
 223.382859136 420.0703125 l 2
 223.469398096 419.05078125 223.50159864 418.958007812 225.084456598 418.525390625 c 2
 289.311459085 418.525390625 l 2
 304.88645939 418.525390625 299.78971714 399.087890625 298.465469796 392.760742188 c 2
 298.372893233 392.321289062 l 1
 298.212896784 391.900390625 l 2
 294.367950656 381.80078125 288.526570841 368.327148438 277.97686783 368.327148438 c 2
 215.745292763 368.327148438 l 1
 215.745292763 368.327148438 214.725944313 368.069335938 214.521672117 368.008789062 c 0
 214.067845709 367.37109375 212.775798907 365.264648438 212.775798907 365.264648438 c 1
 166.605251097 110.446289062 l 2
 146.060298181 -5.33984375 119.510950199 -160.13671875 8.55693426223 -236.849609375 c 0
 -23.0348175525 -259.333007812 -58.3477446566 -274 -95.9541015625 -274 c 0xa8
 -102.482421875 -274 -108.890625 -273.37109375 -115.069335938 -272.215820312 c 0
 -150.918945312 -265.5078125 -183.212890625 -239.7734375 -177.860351562 -211.940429688 c 0
 -172.1875 -177.904296875 -148.731445312 -176.98828125 -130.3515625 -179.030273438 c 0x48
 -116.82421875 -180.259765625 -107.606445312 -189.82421875 -101.048828125 -195.444335938 c 2
 -100.795898438 -195.662109375 l 1
 -100.567382812 -195.90625 l 2
 -86.1171875 -211.388671875 -74.7734375 -225 -54.8479481026 -225 c 0
 -27.2510761957 -225 4.23300505224 -201.951171875 21.0748954846 -170.22265625 c 0
 29.7911800591 -154.244140625 37.0111456355 -127.677734375 44.2210485421 -94.6904296875 c 0
 52.4694189713 -61.2890625 60.6533883138 -22.2939453125 68.9098088789 20.97265625 c 0
 92.6053837071 135.825195312 111.098558252 252.354492188 130.728814484 363.59375 c 0
 131.181634625 365.750976562 131.107170869 368.529296875 130.925036545 369.400390625 c 2
 79.3588851918 369.400390625 l 2x98
EndSplineSet
Validated: 524321
EndChar
StartChar: g
Encoding: 103 103 92
Width: 422
Flags: W
HStem: -275 33<35.0507 236.833> 385 44.9932<205.991 283.506>
VStem: -83 75<-211.808 -135.312> 52.6923 85.7846<111.835 272.008> 280.754 74.2462<-214.803 -162.231> 302.723 84.2769<187.231 359.746>
LayerCount: 2
Fore
SplineSet
429 386.127929688 m 1xf8
 429 385.918945312 l 2
 429 380.158203125 428.69140625 374.317382812 427.54296875 369.184570312 c 0
 425.935546875 362.000976562 420.732421875 353.443359375 410.66796875 355.82421875 c 2
 369.384765625 360.61328125 l 1
 382.109375 326.765625 387 303.377929688 387 275.803710938 c 0xf4
 387 218.471679688 359.338867188 160.52734375 316.931640625 124.2421875 c 0
 287.181971154 100.197265625 229.717067308 67.14453125 190.240084135 50.25 c 0
 159.892427885 37.578125 155.215384615 29.1630859375 155.215384615 23.416015625 c 0
 155.215384615 13.279296875 168.446574519 -1.4853515625 225.677524038 -37.0244140625 c 0
 320.861328125 -98.6923828125 355 -131.6484375 355 -167 c 0
 355 -233.822265625 250.851622596 -275 119.646153846 -275 c 0
 5.671875 -275 -83 -240.8359375 -83 -181 c 0
 -83 -153.389648438 -59.552734375 -127.157226562 -20.3583984375 -101.02734375 c 0
 15.97265625 -76.1689453125 58.3347956731 -52.7548828125 99.4382211538 -31.6494140625 c 1
 76.3758413462 8.76171875 102.723798077 34.7890625 132.364483173 54.6708984375 c 1
 81.2612980769 84.2958984375 52.6923076923 136.635742188 52.6923076923 195.10546875 c 0
 52.6923076923 259.310546875 105.384134615 334.4375 173.194110577 386.755859375 c 0
 209.379387019 414.518554688 246.662920673 432.0234375 295.704447115 429.993164062 c 0
 334.571289062 427.978515625 394.87109375 421 411 421 c 0
 426.83203125 421 428.15625 397.643554688 428.984375 386.3359375 c 2
 429 386.127929688 l 1xf8
256.743389423 127.388671875 m 0
 286.16953125 168.126953125 302.723076923 227.024414062 302.723076923 285 c 0
 302.723076923 348.6875 277.759435096 385 247.276923077 385 c 0
 183.052884615 385 138.476923077 238.750976562 138.476923077 180 c 0
 138.476923077 124.924804688 168.503786058 85 197.061538462 85 c 0
 214.523317308 85 237.295552885 99.9931640625 256.743389423 127.388671875 c 0
120.692307692 -242 m 0
 222.554387019 -242 280.753846154 -214.46875 280.753846154 -190 c 0xf8
 280.753846154 -183.611328125 273.810817308 -171.776367188 248.840024038 -154.869140625 c 0
 206.034555288 -124.930664062 160.071213942 -90.1005859375 123.36796875 -58.966796875 c 0
 120.969170673 -58.640625 118.296574519 -59.3603515625 118.296574519 -59.3603515625 c 1
 26.9072265625 -109.490234375 -8 -139.692382812 -8 -171 c 0
 -8 -209.338867188 39.7522836538 -242 120.692307692 -242 c 0
EndSplineSet
Validated: 524321
EndChar
StartChar: h
Encoding: 104 104 93
Width: 481
Flags: W
HStem: -12 21G<288.286 335.612> 367 61<333.361 393.442> 735 20G<256.527 274.216>
LayerCount: 2
Fore
SplineSet
117.651367188 662.3515625 m 0
 115.469726562 669.989257812 115.061523438 681.528320312 122.583007812 685.2890625 c 2
 226.554039642 743.244140625 l 2
 240.691621387 750.443359375 251.694172953 755 261.360516004 755 c 0
 287.07168742 755 281.451144185 733.513671875 281.451144185 726 c 2
 281.451144185 725.407226562 l 1
 281.328262567 724.825195312 l 1
 180.199789075 245.643554688 l 1
 275.215160242 370.341796875 340.934108089 428 391.420898438 428 c 0
 395.463867188 428 399.252929688 427.577148438 402.783203125 426.743164062 c 0
 456.345703125 414.428710938 434.176757812 321.995117188 428.243164062 298.0703125 c 2
 367.95877041 74.15234375 l 1
 367.903009004 73.953125 l 1
 367.832790937 73.7568359375 l 2
 366.112448289 69.005859375 363.655848554 59.2880859375 364.366290176 57.1435546875 c 2
 364.985861357 57.109375 l 2
 371.094833208 57.109375 397.455078125 77.9873046875 440.952148438 125.25 c 2
 441.1953125 125.513671875 l 1
 441.469726562 125.748046875 l 2
 445.485351562 129.16796875 450.891601562 129.293945312 454.779296875 127.177734375 c 0
 462.8125 122.803710938 469.255859375 109.123046875 463.413085938 100.592773438 c 2
 463.321289062 100.45703125 l 1
 463.220703125 100.328125 l 2
 415.091796875 37.86328125 353.821188666 -12 317.402794613 -12 c 0
 259.16826664 -12 285.982274759 82.662109375 290.112749303 97.0517578125 c 2
 346.171549811 298.7265625 l 2
 348.622986452 306.590820312 355.530172508 330.546875 355.632401753 348.36328125 c 0
 355.713978625 362.405273438 352.109106967 367 347.010036143 367 c 0
 322.796161749 367 191.954087008 207.048828125 162.052734375 167.008789062 c 1
 144.033203125 81.615234375 138.392578125 52.2451171875 134.268554688 36.265625 c 0
 130.936523438 20.9267578125 132.349609375 -7 102.420898438 -7 c 0
 92.62109375 -7 79.861328125 -7.8447265625 65.275390625 -7.0576171875 c 0
 43.4326171875 -6.8984375 51.80078125 18.396484375 52.609375 21.041015625 c 2
 183.233622627 667.163085938 l 1
 183.263568568 667.309570312 l 1
 183.301775457 667.455078125 l 2
 184.01118446 670.13671875 185.506416245 675.629882812 185.532231711 677.763671875 c 1
 179.716523553 676.091796875 160.485351562 667.038085938 136.859375 654.044921875 c 0
 126.47265625 646.73828125 119.787109375 654.877929688 117.651367188 662.3515625 c 0
EndSplineSet
Validated: 524321
EndChar
StartChar: i
Encoding: 105 105 94
Width: 267
Flags: W
HStem: -11 72.0225<100.114 151.788> 409 20G<173.022 207.194> 624 20G<209.276 240.62>
VStem: 170.343 80.7842<530.066 628.568>
LayerCount: 2
Fore
SplineSet
222.291015625 644 m 0
 258.948242188 642.736328125 253.840820312 600.1484375 251.126953125 581.151367188 c 0
 246.016601562 545.375 226.268554688 514 198.1875 514 c 0
 157.793945312 514 165.870117188 565.571289062 170.342773438 584.35546875 c 0
 177.482421875 615.975585938 196.26171875 644 222.291015625 644 c 0
231.553710938 112.3203125 m 2
 235.946289062 103.768554688 238.010742188 94.1396484375 232.967773438 87.6513671875 c 0
 209.76171875 58.08984375 143.909179688 -11 100.114257812 -11 c 0
 50.3271484375 -9.818359375 65.9658203125 55.666015625 69.30859375 71.939453125 c 2
 122.2890625 319.103515625 l 2
 123.166992188 324.229492188 127.635742188 340.743164062 127.03125 346.807617188 c 1
 122.20703125 344.720703125 112.490234375 337.073242188 103.610351562 327.708007812 c 0
 92.94140625 316.377929688 82.38671875 304.326171875 77.4375 300.21875 c 0
 72.2822265625 294.848632812 65.986328125 296.821289062 62.53515625 299.454101562 c 0
 55.505859375 304.81640625 48.9814453125 319.094726562 57.548828125 329.51953125 c 0
 110.663085938 390.979492188 158.857421875 429 187.1875 429 c 0
 227.200195312 429 213.252929688 376.567382812 210.056640625 362.5625 c 2
 151.076171875 80.357421875 l 2
 149.122070312 70.21484375 147.725585938 62.578125 148.10546875 61.28125 c 0
 148.43359375 61.1513671875 149.590820312 60.8798828125 151.788085938 61.0224609375 c 2
 151.935546875 61.0322265625 l 2
 159.911132812 63.5185546875 198.754882812 104.137695312 208.129882812 114.879882812 c 0
 216.780273438 125.936523438 226.704101562 120.600585938 231.396484375 112.60546875 c 2
 231.479492188 112.46484375 l 1
 231.553710938 112.3203125 l 2
EndSplineSet
Validated: 524321
EndChar
StartChar: j
Encoding: 106 106 95
Width: 269
Flags: W
HStem: -272 21G<-99.96 -47.7618> 516 130.997<214.453 268.863>
VStem: 199.093 83.8076<528.586 633.445>
LayerCount: 2
Fore
SplineSet
250.8046875 646.997070312 m 0
 297.973632812 648.206054688 286.381835938 596.181640625 282.900390625 577.90234375 c 0
 276.862304688 544.693359375 262.875976562 516 230.905273438 516 c 0
 192.213867188 517.248046875 195.352539062 564.47265625 199.092773438 585.04296875 c 0
 205.22265625 619.778320312 221.375 645.819335938 250.8046875 646.997070312 c 0
-104.0859375 -179.069335938 m 0
 -88.9716796875 -181.395507812 -78.7763671875 -190.655273438 -71.349609375 -200.204101562 c 0
 -64.849609375 -207.787109375 -58.9111328125 -217.260742188 -53.5302734375 -221.103515625 c 0
 -48.326171875 -224.7578125 -43.501953125 -227.052734375 -39.197265625 -228.221679688 c 0
 -8.31046810907 -236.323242188 15.3450217299 -190.374023438 32.8387085744 -128.419921875 c 0
 42.3506989619 -96.7177734375 44.3976884605 -78.09375 50.9188865577 -52.6220703125 c 2
 149.057709296 327.740234375 l 1
 149.092086219 327.873046875 l 1
 149.132713492 328.004882812 l 2
 151.535972918 335.6953125 150.630713949 339.450195312 149.263970834 340.234375 c 0
 144.843931932 338.806640625 135.104845508 332.102539062 125.579312696 324.120117188 c 0
 115.250609959 314.676757812 104.531260371 303.900390625 100.075802822 299.827148438 c 2
 99.825788837 299.598632812 l 1
 99.5486900041 299.395507812 l 2
 91.4565707039 293.477539062 82.3321019925 296.794921875 77.6089211342 301.4375 c 0
 72.2513297901 306.703125 68.8438475256 316.76171875 76.0536258053 322.7578125 c 0
 131.241087722 386.756835938 179.899414062 421 209.001953125 421 c 0
 254.76953125 421 234.7734375 350.737304688 230.830078125 335.266601562 c 2
 148.714981792 3.857421875 l 2
 129.448279107 -71.9091796875 106.657420965 -129.888671875 61.2663403436 -186.518554688 c 0
 26.8664995183 -231.8671875 -17.5255668899 -272 -77.998046875 -272 c 0
 -121.921875 -272 -147.356445312 -239.666992188 -144.971679688 -213.4296875 c 0
 -142.724609375 -190.958984375 -127.83984375 -175.506835938 -104.0859375 -179.069335938 c 0
EndSplineSet
Validated: 524321
EndChar
StartChar: k
Encoding: 107 107 96
Width: 483
Flags: W
HStem: -10 21G<101.053 114.56 376.673 388.778> 199.985 25.0098<261.152 346.411> 367 62<349.526 427.241>
VStem: 408.054 68.5098<260.934 362.357>
LayerCount: 2
Fore
SplineSet
108.053710938 -10 m 0
 94.0517578125 -10 80.1484375 -10.025390625 66.8232421875 -9 c 0
 46.3564453125 -9 54.78125 15.09375 55.1142578125 17.384765625 c 2
 55.1376953125 17.548828125 l 1
 55.1708984375 17.7109375 l 1
 190.30078125 674.208007812 l 2
 190.725585938 676.09765625 191.21484375 678.541015625 191.317382812 679.090820312 c 1
 188.40234375 677.682617188 186.018554688 676.451171875 182.508789062 674.71484375 c 0
 171.805664062 669.211914062 158.940429688 661.239257812 149.819335938 656.221679688 c 0
 137.38671875 647.356445312 130.806640625 662.807617188 129.684570312 665.262695312 c 0
 124.344726562 675.788085938 126.341796875 685.438476562 135.626953125 689.53125 c 2
 240.3984375 748.163085938 l 2
 251.276367188 754.262695312 263.780273438 760.770507812 274.841796875 758.67578125 c 0
 288.114257812 756.161132812 290.46484375 742.633789062 286.329101562 724.759765625 c 2
 189.123046875 284.494140625 l 1
 234.926757812 324.243164062 353.08984375 429 408.053710938 429 c 0
 446.428710938 429 472.970703125 383.66015625 476.037109375 339.884765625 c 0
 476.418945312 335.216796875 476.600585938 330.493164062 476.563476562 325.944335938 c 0
 475.907226562 245.71484375 408.248046875 198.768554688 261.15234375 199.985351562 c 1
 283.088867188 179.024414062 295.139648438 166.84765625 306.778320312 150.967773438 c 2
 331.377929688 117.888671875 l 2
 357.47265625 82.671875 388.479492188 58.619140625 405.34765625 59.8115234375 c 1
 419.8359375 73.16015625 434.788085938 89.5322265625 445.516601562 100.924804688 c 0
 451.072265625 107.533203125 459.102539062 106.368164062 464.049804688 102.756835938 c 0
 470.452148438 98.08203125 479.573242188 85.2197265625 472.768554688 76.94140625 c 0
 448.52734375 46.4638671875 413.40234375 10.26953125 388.778320312 -8.7041015625 c 2
 387.141601562 -10 l 1
 385.053710938 -10 l 2
 368.29296875 -10 354.583007812 -6.744140625 340.524414062 3.109375 c 0
 293.53125 32.73046875 269.274414062 64.7900390625 239.314453125 109.790039062 c 0
 208.443359375 154.559570312 188.15234375 180.431640625 169.75390625 198.814453125 c 1
 169.75390625 198.814453125 168.349609375 193.278320312 167.958984375 190.9375 c 2
 133.948242188 14.876953125 l 2
 129.6171875 -7.8583984375 121.06640625 -10 108.053710938 -10 c 0
330.935546875 232.825195312 m 0
 378.032226562 243.455078125 409.006835938 266.936523438 408.053710938 327.953125 c 0
 408.053710938 347.454101562 392.887695312 367 373.053710938 367 c 0
 350.555664062 367 260.432617188 305.647460938 176.640625 224.9453125 c 1
 205.256835938 224.092773438 223.912109375 226.022460938 252.475585938 224.995117188 c 0
 279.662109375 224.018554688 306.819335938 226.9453125 330.935546875 232.825195312 c 0
EndSplineSet
Validated: 524321
EndChar
StartChar: l
Encoding: 108 108 97
Width: 268
Flags: W
HStem: -13 21G<103.272 121.993> 651.23 32.377<109.434 118.766>
LayerCount: 2
Fore
SplineSet
209.92578125 103.333984375 m 0
 215.434570312 111.43359375 226.227539062 110.296875 232.07421875 104.544921875 c 0
 241.020507812 97.50390625 236.467773438 86.7080078125 234.63671875 82.2060546875 c 2
 234.274414062 81.314453125 l 1
 233.643554688 80.58203125 l 2
 183.594726562 22.4794921875 138.919921875 -13 105.06640625 -13 c 0
 101.477539062 -13 98.1162109375 -12.703125 94.97265625 -12.1103515625 c 0
 54.5859375 -4.6279296875 61.1376953125 44.9443359375 68.181640625 79.5517578125 c 2
 187.188476562 667.203125 l 2
 188.591796875 673.872070312 188.544921875 677.7890625 188.403320312 678.982421875 c 0
 188.024414062 678.997070312 187.323242188 679 187.323242188 679 c 2
 183.267578125 677.987304688 164.237304688 668.211914062 135.0078125 651.770507812 c 2
 134.392578125 651.424804688 l 1
 133.71484375 651.23046875 l 2
 126.600585938 649.198242188 112.607421875 648.096679688 109.26953125 661.448242188 c 0
 106.588867188 670.831054688 110.956054688 681.024414062 118.765625 683.607421875 c 2
 215.046875 740.185546875 l 2
 229.252929688 748.380859375 247.630859375 759.780273438 262.157226562 757.326171875 c 0
 276.498046875 754.90234375 280.375 739.8359375 275.954101562 716.84765625 c 2
 143.9375 64.4892578125 l 2
 141.40625 53.2802734375 141.514648438 47.0810546875 141.868164062 46.142578125 c 0
 142.110351562 46.083984375 142.465820312 46.029296875 143.06640625 46.029296875 c 0
 148.362304688 46.029296875 171.888671875 61.2919921875 209.92578125 103.333984375 c 0
EndSplineSet
Validated: 524321
EndChar
StartChar: m
Encoding: 109 109 98
Width: 698
Flags: W
HStem: -11 20G<72.499 86.0488 284.205 342.938 505.997 543.838> 364 62<545.947 609.433>
VStem: 47.1152 27.6387<287.357 302.946>
LayerCount: 2
Fore
SplineSet
664.954101562 124.51171875 m 1
 665.23828125 123.958007812 l 2
 669.614257812 115.440429688 667.26171875 104.575195312 663.807617188 99.5322265625 c 0
 615.545898438 33.962890625 559.412109375 -12 528.26320124 -12 c 0
 483.731731181 -12 494.857036634 36.279296875 498.443470519 53.109375 c 0
 521.163937538 158.766601562 538.6806977 242.903320312 558.9921875 344.811523438 c 0
 561.981445312 358.137695312 561.150390625 363.098632812 560.986328125 363.37890625 c 0
 560.627929688 363.569335938 559.05859375 364 555.872070312 364 c 0
 532.457624902 364 430.053191059 219.80078125 409.715277674 186.6484375 c 0
 393.562713476 161.068359375 385.536845123 137.514648438 380.488412605 115.719726562 c 2
 358.799410829 13.9384765625 l 2
 355.671742031 1.220703125 349.652340766 -11 336.223127124 -11 c 2
 295.956659971 -11 l 2
 272.452763341 -11 275.646978283 6.3525390625 277.480022086 16.1181640625 c 2
 346.664822182 355.163085938 l 1
 346.69507043 355.310546875 l 1
 346.732376602 355.455078125 l 2
 348.226640031 361.24609375 348.364773695 372.685546875 347.181058941 374.99609375 c 0
 309.162036581 372.951171875 204.555530316 222.455078125 183.586436831 188.9453125 c 0
 168.933177438 164.344726562 161.737304688 130.735351562 152.747070312 88.783203125 c 0
 147.836914062 64.23046875 144.821289062 37.0810546875 138.69921875 11.572265625 c 0
 135.568359375 -0.953125 130.814453125 -10 113.872070312 -10 c 0
 104.225585938 -10 91.2255859375 -11 80.8720703125 -11 c 0
 64.1259765625 -11 55.4052734375 -1.9853515625 58.986328125 15.443359375 c 2
 122.986328125 329.849609375 l 1
 123.014648438 329.990234375 l 1
 123.05078125 330.130859375 l 2
 123.5390625 332.030273438 124.810546875 338.301757812 124.916015625 341.03515625 c 1
 113.3671875 333.150390625 91.1962890625 308.551757812 85.787109375 301.030273438 c 2
 85.6767578125 300.876953125 l 1
 85.556640625 300.73046875 l 2
 81.375 295.642578125 79.61328125 293.979492188 74.75390625 287.357421875 c 2
 74.4658203125 286.963867188 l 1
 74.1142578125 286.622070312 l 2
 69.8193359375 282.44140625 62.4580078125 280.265625 55.765625 282.021484375 c 0
 47.845703125 284.098632812 44.1337890625 292.264648438 47.115234375 302.133789062 c 2
 47.361328125 302.946289062 l 1
 47.833984375 303.658203125 l 2
 92.138671875 370.307617188 162.999023438 428 191.676834779 428 c 0
 223.770225441 428 216.96840284 389.689453125 215.313823698 380.875 c 2
 187.085150799 244.172851562 l 1
 225.387498411 297.770507812 319.362753934 428 394.041644062 428 c 0
 417.903478288 428 431.210690665 405.000976562 431.210690665 376 c 0
 431.210690665 326.9609375 419.98657427 290.208007812 410.913108277 245.198242188 c 1
 444.541093366 296.541015625 524.728189375 426 606.872070312 426 c 0
 657.897460938 426 641.116210938 353.296875 637.763671875 335.345703125 c 2
 581.754882812 68.6142578125 l 2
 581.294921875 66.375 581.106445312 64.083984375 581.0859375 63.4873046875 c 1
 589.619140625 67.306640625 607.790039062 86.2001953125 609.071289062 87.8642578125 c 2
 609.19921875 88.029296875 l 1
 609.337890625 88.1845703125 l 2
 622.27734375 102.716796875 635.185546875 118.180664062 639.223632812 123.09375 c 0
 645.63671875 130.583984375 657.407226562 133.694335938 664.556640625 124.995117188 c 2
 664.954101562 124.51171875 l 1
EndSplineSet
Validated: 524321
EndChar
StartChar: n
Encoding: 110 110 99
Width: 493
Flags: W
HStem: -11 20G<71.6445 110.05 324.336 344.715> 362 67<332.976 413.208>
VStem: 364.995 80.25<259.767 391.671>
LayerCount: 2
Fore
SplineSet
471.680664062 129.208007812 m 1
 471.854492188 129.00390625 l 2
 484.784179688 113.899414062 474.200195312 103.10546875 467.087890625 93.5849609375 c 0
 417.801757812 27.978515625 363.168945312 -12 326.260302929 -12 c 0
 322.410791633 -12 318.809232621 -11.62109375 315.461876791 -10.8671875 c 0
 278.45031027 -2.7890625 283.748988065 42.7412109375 291.240689209 70.8056640625 c 2
 360.424804688 322.719726562 l 2
 361.938476562 328.587890625 364.995117188 339.849609375 364.995117188 348.920898438 c 0
 364.995117188 358.412109375 362.841796875 362 356.131260404 362 c 0
 318.746723642 362 191.017959399 198.202148438 159.868164062 158.10546875 c 1
 129.140625 12.134765625 l 2
 125.87890625 -5.76953125 118.854492188 -11 101.245117188 -11 c 2
 73.2451171875 -11 l 2
 70.0439453125 -11 66.8173828125 -10.6494140625 63.71875 -9.7431640625 c 0
 53.2939453125 -6.7783203125 47.427734375 2.6015625 51.4599609375 15.966796875 c 2
 115.264648438 327.466796875 l 2
 115.331054688 328.6953125 115.603515625 331.485351562 115.6328125 332.04296875 c 1
 105.202148438 322.389648438 76.3486328125 285.268554688 71.2373046875 277.806640625 c 2
 70.908203125 277.326171875 l 1
 70.48828125 276.916992188 l 2
 63.98046875 270.58203125 53.6435546875 273.685546875 50.3623046875 278.465820312 c 0
 45.91796875 287.118164062 44.1572265625 297.344726562 50.490234375 305.05078125 c 0
 69.607421875 330.171875 146.307617188 431.331054688 184.756643326 428.989257812 c 0
 211.875122089 427.577148438 211.692804233 396.3359375 206.666040498 370.88671875 c 0
 196.891719801 323.244140625 187.022593818 276.05859375 176.499207188 229.595703125 c 1
 224.446719601 289.377929688 325.085134122 429 397.245117188 429 c 0
 429.170898438 429 445.245117188 400.79296875 445.245117188 362.801757812 c 0
 445.245117188 344.637695312 442.19921875 321.989257812 437.059570312 301.974609375 c 2
 377.034179688 77 l 2
 375.092773438 70.3857421875 369.294921875 49.5244140625 370.875 44.6259765625 c 1
 378.369140625 48.10546875 395.290039062 63.8232421875 410.771484375 80.4814453125 c 0
 425.633789062 96.87890625 441.69140625 115.450195312 448.508789062 123.983398438 c 2
 448.596679688 124.092773438 l 1
 448.689453125 124.198242188 l 2
 454.94921875 131.307617188 464.427734375 136.268554688 471.48828125 129.395507812 c 2
 471.680664062 129.208007812 l 1
EndSplineSet
Validated: 524321
EndChar
StartChar: o
Encoding: 111 111 100
Width: 422
Flags: W
HStem: -12 54<111.329 212.534> 373 56<222.317 322.43>
VStem: 38 83<70.9955 251.792> 317 81<166.002 338.676>
LayerCount: 2
Fore
SplineSet
297 429 m 0
 347.860351562 429 398 353.25 398 272.42578125 c 0
 398 210.932617188 378.609375 153.251953125 341.755859375 106.459960938 c 0
 311.05859375 67.650390625 255.217881944 25.3798828125 199.58203125 4.5107421875 c 0
 174.834852431 -5.61328125 152.543945312 -12 137 -12 c 0
 85.6572265625 -12 38 71.169921875 38 156.416992188 c 0
 38 242.514648438 90.3603515625 326.872070312 179.791449653 385.145507812 c 0
 222.558376736 410.783203125 268.697699653 429 297 429 c 0
184.666666667 42 m 0
 251.020833333 42 317 141.858398438 317 259.127929688 c 0
 317 326.715820312 282.456054688 373 242.444444444 373 c 0
 180.970920139 373 121 272.63671875 121 152.9765625 c 0
 121 87.759765625 152.125 42 184.666666667 42 c 0
EndSplineSet
Validated: 524289
EndChar
StartChar: p
Encoding: 112 112 101
Width: 469
Flags: W
HStem: -274 36.9521<-61.4059 9.56094 105.904 194.051> 361 68<321.94 383.13>
VStem: 358.267 80<173.373 354.62>
LayerCount: 2
Fore
SplineSet
362.266601562 428 m 0
 419.85546875 428 438.266601562 330.302734375 438.266601562 274.256835938 c 0
 438.266601562 251.432617188 434.40625 227.110351562 427.298828125 202.631835938 c 0
 392.977539062 84.423828125 279.615965513 -40.7216796875 145.925867464 -5.3955078125 c 0
 145.528957563 -6.72265625 145.426661197 -7.7509765625 145.426661197 -8 c 2
 145.426661197 -8.6708984375 l 1
 145.272193684 -9.3251953125 l 2
 132.702016203 -62.322265625 119.079209113 -118.354492188 107.597464968 -172.162109375 c 0
 105.415483477 -183.057617188 104.095860353 -192.278320312 103.741914926 -199.759765625 c 0
 102.083690829 -234.752929688 118.182069981 -236.446289062 183.267110025 -239 c 0
 192.802154321 -239 194.452194708 -248.9296875 194.243510121 -253.637695312 c 0
 193.87728913 -261.930664062 187.846918341 -274.913085938 173.362775848 -273.991210938 c 0
 102.540955586 -271.008789062 -7.6123046875 -272 -55.6083984375 -274 c 0
 -74.0126953125 -274 -63.3623046875 -248.387695312 -61.8779296875 -245.913085938 c 2
 -61.8046875 -245.791015625 l 1
 -61.7255859375 -245.671875 l 2
 -55.0283203125 -235.625976562 -40.3564453125 -237.78125 -34.490234375 -237.047851562 c 0
 17.2294921875 -230.465820312 19.3544921875 -208.973632812 27.380859375 -167.836914062 c 0
 59.6593418303 -8.986328125 95.2901891484 146.948242188 130.889324593 306.661132812 c 0
 131.645294739 310.201171875 136.723286359 334.12109375 136.241470474 341.145507812 c 1
 127.962625556 338.27734375 113.233994747 325.559570312 100.906259654 312.375 c 0
 85.3295919696 295.854492188 70.8075998209 278.368164062 64.302573893 271.266601562 c 1
 64.302573893 271.266601562 50.8525390625 267.126953125 46.5849609375 269.73828125 c 0
 38.8837890625 274.450195312 33.1865234375 286.0703125 41.2841796875 297.977539062 c 0
 95.4201055335 373.813476562 166.695098698 429 199.897430282 429 c 0
 220.008895881 429 226.085300034 412.21875 226.085300034 392 c 0
 226.085300034 359.157226562 218.615619373 325.744140625 212.360196578 294.893554688 c 1
 212.360196578 294.893554688 322.365234375 428 362.266601562 428 c 0
197.802400701 17 m 0
 277.648806391 17 358.266601562 135.092773438 358.266601562 266 c 0
 358.266601562 326.298828125 340.846679688 361 325.266601562 361 c 0
 316.419129189 361 293.441319408 338.060546875 266.729692261 304.400390625 c 0
 242.009775364 272.935546875 214.823493077 234.994140625 194.299773122 204.698242188 c 1
 160.091868258 43.3974609375 l 2
 160.106189749 33.5244140625 160.483663341 31.9619140625 163.578128419 29.9921875 c 0
 172.600667919 24.25 187.725185665 17 197.802400701 17 c 0
EndSplineSet
Validated: 524321
EndChar
StartChar: q
Encoding: 113 113 102
Width: 450
Flags: W
HStem: -273.982 35.9814<307.263 383.728> -12 69<99.7041 171.595> 409 20G<353.444 414.761>
VStem: 52 81<58.8314 204.3>
LayerCount: 2
Fore
SplineSet
406 429 m 0
 423.521484375 429 435.651367188 419.471679688 430.8671875 398.385742188 c 2
 316.885742188 -145.165039062 l 2
 312.806640625 -166.581054688 305.444894096 -188.271484375 305.444894096 -209 c 0
 305.444894096 -242.961914062 337.629882812 -238.112304688 369.301757812 -238.000976562 c 0
 382.396484375 -236.962890625 385.740234375 -247.553710938 383.82421875 -257.665039062 c 0
 381.868164062 -268.516601562 373.256835938 -275.952148438 363.126953125 -273.982421875 c 0
 268.033153166 -271.985351562 211.43165876 -272.000976562 129.151367188 -273.998046875 c 2
 128.579101562 -274.012695312 l 1
 128.013671875 -273.91796875 l 2
 118.642578125 -272.356445312 116.6875 -263.17578125 117.49609375 -257.174804688 c 0
 118.712890625 -248.159179688 126.494140625 -236.091796875 137.327148438 -237.934570312 c 0
 207.503981413 -230.935546875 213.146078706 -226.264648438 222.442400694 -182.823242188 c 0
 226.82405217 -162.796875 236.675824857 -117.763671875 286.991112795 100.239257812 c 2
 287.039180643 100.4453125 l 1
 287.102202934 100.6484375 l 2
 287.592494994 102.217773438 288.83585002 107.536132812 289.412664207 110.634765625 c 1
 251.866333301 71.498046875 162.870117188 -12 120 -12 c 0
 79.408203125 -12 52 49.37890625 52 108.71484375 c 0
 52 171.852539062 81.828125 238.373046875 136.416992188 300.373046875 c 0
 204.992703349 377.178710938 300.888062015 429 406 429 c 0
305.918095364 174.141601562 m 1
 342.094726562 351.329101562 l 2
 342.959960938 356.321289062 341.96484375 357.884765625 341.96484375 357.884765625 c 2
 341.75 357.952148438 341.479492188 358 341 358 c 1
 341 371.09765625 223.183713742 321.795898438 223.183713742 321.795898438 c 1
 167.627929688 281.875 133 201.6953125 133 125.278320312 c 0
 133 74.5849609375 145.362304688 57 161 57 c 0
 175.900972986 57 219.057355953 91.2177734375 305.918095364 174.141601562 c 1
EndSplineSet
Validated: 524321
EndChar
StartChar: r
Encoding: 114 114 103
Width: 335
Flags: W
HStem: -12 21G<65.8921 111.662> 331.928 96.0723<287.647 348.915>
LayerCount: 2
Fore
SplineSet
40.3330078125 290.159179688 m 0
 36.169921875 295.5625 32.876953125 306.541992188 41.6650390625 315.096679688 c 0
 104.157226562 390.4140625 139.149414062 428 166.1328125 428 c 0
 186.096679688 428 192.104492188 410.649414062 193.12109375 393.375976562 c 0
 194.188476562 377.358398438 191.045898438 361.952148438 189.076171875 347.1796875 c 0
 184.047851562 311.98046875 178.009765625 280.790039062 173.018554688 256.834960938 c 0
 172.204101562 252.489257812 171.104492188 246.77734375 170.401367188 243.231445312 c 1
 199.295898438 315.678710938 249.943359375 428 310.1328125 428 c 0
 327.943359375 428 350.801757812 418.631835938 353.114257812 390.486328125 c 0
 354.182617188 376.62890625 353.239257812 364.422851562 349.990234375 354.440429688 c 0
 343.559570312 334.682617188 326.993164062 324.54296875 304.235351562 331.927734375 c 2
 287.647460938 337.310546875 l 1
 258.989257812 332.211914062 236.174804688 301.142578125 215.498046875 261.845703125 c 0
 193.776367188 218.594726562 176.817382812 169.125976562 166.7265625 143.587890625 c 0
 148.032226562 96.6552734375 143.02734375 58.9169921875 130.993164062 10.1083984375 c 0
 128.653320312 -1.2841796875 120.190429688 -12 103.1328125 -12 c 2
 76.1328125 -12 l 2
 55.6513671875 -12 56.3505859375 7.21875 58.22265625 17.23828125 c 2
 111.208984375 322.82421875 l 2
 112.515625 331.09375 111.291015625 339.391601562 109.911132812 341.991210938 c 1
 100.002929688 336.310546875 69.240234375 298.866210938 66.125 294.317382812 c 2
 65.794921875 293.836914062 l 1
 65.375 293.427734375 l 2
 59.4287109375 287.639648438 47.4384765625 280.936523438 40.3330078125 290.159179688 c 0
EndSplineSet
Validated: 524321
EndChar
StartChar: s
Encoding: 115 115 104
Width: 332
Flags: W
HStem: -12 49<95.8677 198.79> -10.5674 79.6738<25.0129 99.627> 382 47<175.766 262.685>
VStem: 212.016 57<50.9477 135.914>
LayerCount: 2
Fore
SplineSet
244.015625 429 m 0xb0
 281.354492188 429 325.015625 389.115234375 325.015625 353 c 0
 325.015625 331.565429688 310.1796875 312 289.015625 312 c 0
 274.887695312 312 263.22265625 322.247070312 255.787109375 336.055664062 c 0
 245.372070312 353.759765625 227.05078125 382 210.015625 382 c 0
 186.5546875 382 155.015625 346.044921875 155.015625 321.83203125 c 0
 155.015625 291.926757812 200.944335938 246.764648438 223.583984375 220.799804688 c 0
 254.0234375 186.337890625 269.015625 155.765625 269.015625 121.920898438 c 0
 269.015625 40.3037109375 201.064453125 -12 100.015625 -12 c 0xb0
 91.7197265625 -12 83.8203125 -11.5185546875 76.400390625 -10.5673828125 c 0
 38.6337890625 -5.724609375 10.0361328125 12.54296875 14.05859375 43.71484375 c 0
 15.048828125 52.6318359375 17.3779296875 60.09375 20.900390625 65.9443359375 c 0
 37.0703125 92.8017578125 71.7412109375 81.2470703125 91.166015625 69.1064453125 c 0x70
 114.751953125 54.75 137.645507812 37 164.015625 37 c 0
 190.921875 37 212.015625 56.884765625 212.015625 81.6337890625 c 0
 212.015625 122.571289062 162.084960938 171.249023438 133.415039062 204.036132812 c 0
 79.88671875 266.9609375 79.904296875 318.6875 139.737304688 378.745117188 c 0
 171.5 409.563476562 208.71484375 429 244.015625 429 c 0xb0
EndSplineSet
Validated: 524321
EndChar
StartChar: t
Encoding: 116 116 105
Width: 294
Flags: W
HStem: -12 59<89.2622 160.224> 369.85 27.833<76.9529 108.234> 370.192 51.75<222.05 300.294>
VStem: 59 80.0029<47.0002 148.566>
LayerCount: 2
Fore
SplineSet
76.83203125 378.33203125 m 0xd0
 73.3984375 385.296875 76.2373046875 394.11328125 84.4384765625 397.682617188 c 0xd0
 161.017578125 435.171875 198.991210938 487.640625 238.912109375 550.1796875 c 0
 242.3359375 555.658203125 248.28125 559.942382812 254.798828125 560.708984375 c 0
 262.443359375 561.608398438 269.298828125 556.02734375 269.984375 546.427734375 c 2
 270.084960938 545.02734375 l 1
 269.553710938 543.728515625 l 2
 234.178710938 459.296875 223.928710938 430.9296875 221.998046875 422.303710938 c 0
 223.092773438 421.803710938 224.399414062 421.599609375 226.013671875 421.862304688 c 2
 226.50390625 421.942382812 l 1
 227 421.942382812 l 1
 291 421.942382812 l 2
 306.157226562 421.942382812 302.297851562 401.333984375 300.883789062 394.4296875 c 0
 298.984375 385.16015625 296.598632812 369.8125 280.037109375 370.192382812 c 2
 216.881835938 370.192382812 l 2xb0
 213.260742188 369.223632812 212.244140625 369.057617188 211.877929688 368.978515625 c 0
 211.618164062 368.20703125 211.114257812 366.666015625 210.775390625 365.641601562 c 2
 141.8359375 70.048828125 l 2
 140.827148438 66.1103515625 139.079101562 59.24609375 139.002929688 53.7294921875 c 0
 138.9140625 47.30859375 140.103515625 47 142 47 c 0
 159.688476562 47 215.220703125 102.677734375 232.588867188 121.067382812 c 0
 239.436523438 128.67578125 248.649414062 124.749023438 253.009765625 119.842773438 c 0
 258.322265625 113.866210938 264.038085938 100.435546875 254.951171875 92.484375 c 1
 254.168945312 93.3779296875 166.044921875 -12 102 -12 c 0
 76.5244140625 -12 59 5.9921875 59 34.9970703125 c 0
 59 52.7080078125 65.0869140625 94.796875 80.1689453125 155.831054688 c 0
 112.16015625 285.037109375 108.208007812 267.604492188 130.158203125 354.546875 c 0
 131.866210938 362.071289062 133.135742188 368.677734375 132.76171875 369.408203125 c 0
 132.649414062 369.477539062 131.932617188 369.849609375 130 369.849609375 c 2
 92 369.849609375 l 2
 85.0517578125 369.849609375 79.361328125 373.200195312 76.83203125 378.33203125 c 0xd0
EndSplineSet
Validated: 524321
EndChar
StartChar: v
Encoding: 118 118 107
Width: 430
Flags: W
HStem: -12 63<154.093 172.825> 409 19G<156.718 186.79 377.464 404.987>
VStem: 356.071 85<290.448 391.182>
LayerCount: 2
Fore
SplineSet
389.071289062 429 m 0
 420.903320312 429 441.071289062 398.33984375 441.071289062 360.854492188 c 0
 441.071289062 252.499023438 208.393715573 -12 114.071289062 -12 c 0
 60.75 -12 84.9375 115.41796875 88.1484375 134.952148438 c 2
 118.139648438 314.986328125 l 2
 118.895507812 320.137695312 122.41796875 341.141601562 121.685546875 349.284179688 c 1
 110.701171875 343.626953125 87.7099609375 315.30078125 65.8056640625 287.155273438 c 0
 60.455078125 280.64453125 52.4365234375 280.67578125 47.015625 283.99609375 c 0
 39.8330078125 288.395507812 34.447265625 299.365234375 41.1748046875 308.720703125 c 0
 88.9130859375 373.586914062 138.095703125 428 175.340812113 428 c 0
 198.238755471 428 206.645877532 409.111328125 206.645877532 387.295898438 c 0
 206.645877532 377.754882812 203.380013689 349.83984375 199.006201849 326.279296875 c 2
 157.017578125 92.8564453125 l 2
 156.4375 87.798828125 153.545898438 73.7939453125 153.484375 62.845703125 c 0
 153.423828125 52.0244140625 156.071289062 51 156.071289062 51 c 1
 222.755926351 51 356.071289062 272.397460938 356.071289062 338.861328125 c 0
 356.071289062 349.114257812 356.3984375 347.784179688 347.069335938 353.209960938 c 0
 337.0546875 358.602539062 331.071289062 366.53515625 331.071289062 376.661132812 c 0
 331.071289062 402.36328125 365.857421875 429 389.071289062 429 c 0
EndSplineSet
Validated: 524321
EndChar
StartChar: w
Encoding: 119 119 108
Width: 646
Flags: W
HStem: -11 64<97.1763 176.409 392.55 410.542> 408 20G<150.021 195.401 412.757 428.062 601.398 630.606>
VStem: 309.343 82.4307<52.0008 161.232> 583.729 82<284.654 393.548>
LayerCount: 2
Fore
SplineSet
365.39453125 404.547851562 m 2
 366.526367188 412.885742188 370.586914062 427 393.45703125 427 c 0
 404.52734375 428.006835938 407.78515625 428 417.728515625 428 c 0
 438.395507812 428 446.947265625 414.2421875 444.112304688 401.791015625 c 2
 395.537109375 93.875 l 2
 394.9140625 88.767578125 391.838867188 74.806640625 391.7734375 63.8447265625 c 0
 391.708984375 53.0244140625 394.526367188 52 394.526367188 52 c 1
 443.61328125 52 583.728515625 244.502929688 583.728515625 334.96875 c 0
 583.728515625 346.446289062 579.012695312 350.684570312 574.838867188 354.7421875 c 0
 567.217773438 360.071289062 560.728515625 365.713867188 560.728515625 377.608398438 c 0
 560.728515625 408.427734375 587.068359375 428 615.728515625 428 c 0
 645.484375 428 665.728515625 398.547851562 665.728515625 364.7265625 c 0
 665.728515625 262.515625 516.459960938 86.2529296875 433.657226562 25.30078125 c 0
 417.350585938 13.375 378.826171875 -11.8388671875 347.768554688 -11.8662109375 c 0
 325.40234375 -11.8857421875 309.342773438 3.0390625 309.342773438 37 c 0
 309.342773438 62.453125 312.595703125 90.84765625 317.950195312 118.002929688 c 0
 321.239257812 138.078125 324.122070312 151.296875 325.930664062 162.987304688 c 1
 286.333007812 102.735351562 183.373046875 -11 116.728515625 -11 c 0
 77.6240234375 -11 75.841796875 34.60546875 77.740234375 61.3896484375 c 0
 78.7431640625 79.953125 80.783203125 98.8291015625 83.8037109375 116.466796875 c 0
 93.7880859375 180.614257812 107.791992188 271.177734375 116.779296875 340.1953125 c 0
 116.931640625 341.313476562 117.143554688 343.131835938 117.143554688 343.131835938 c 2
 116.6640625 342.724609375 116.252929688 342.366210938 115.764648438 341.934570312 c 2
 115.649414062 341.833007812 l 1
 115.528320312 341.736328125 l 2
 94.431640625 324.93359375 78.6806640625 302.056640625 61.46484375 280.370117188 c 0
 54.3095703125 271.4140625 42.548828125 276.44140625 37.1943359375 281.435546875 c 0
 30.958984375 287.25 28.4453125 297.526367188 36.1962890625 305.356445312 c 0
 55.029296875 331.350585938 127.252929688 429 172.790039062 429 c 0
 218.01171875 429 198.125976562 347.58203125 195.861328125 335.06640625 c 2
 158.08984375 98.76953125 l 2
 157.53515625 94.2333984375 155.135742188 80.9853515625 155.075195312 69.5 c 0
 155.005859375 56.1357421875 158.482421875 53 159.205078125 53 c 0
 190.372070312 53 311.137695312 199.91796875 339.282226562 247.768554688 c 1
 365.39453125 404.547851562 l 2
EndSplineSet
Validated: 524321
EndChar
StartChar: x
Encoding: 120 120 109
Width: 528
Flags: W
HStem: -12 73.9785<352.364 423.493> 361 68<141.843 208.462 426.851 484.598>
LayerCount: 2
Fore
SplineSet
479.502929688 427.515625 m 0
 507.01953125 427.623046875 529.434570312 409.134765625 529.434570312 369.58203125 c 0
 529.434570312 353.383789062 527.134765625 345.350585938 520.2265625 321.333007812 c 0
 517.94140625 312.80859375 515.322265625 305.825195312 508.546875 303.967773438 c 0
 496.969726562 300.791992188 493.033203125 315.4453125 491.5625 321.6484375 c 0
 486.87109375 345.397460938 473.956054688 356.927734375 455.434570312 356.927734375 c 0
 432.829101562 356.927734375 409.166601014 339.71875 376.843571528 298.047851562 c 2
 324.47705222 229.908203125 l 1
 324.315452415 229.697265625 l 1
 324.134419721 229.501953125 l 2
 319.918505803 224.9296875 321.594848091 220.799804688 321.842361718 220.33984375 c 2
 321.992710904 220.059570312 l 1
 322.110331016 219.766601562 l 1
 361.90888569 120.477539062 l 2
 382.27762069 69.662109375 392.075887389 62.15234375 399.893022292 61.978515625 c 0
 417.807617188 63.1787109375 433.868164062 86.57421875 452.982421875 125.745117188 c 0
 458.01171875 136.76171875 468.622070312 140.03515625 476.46484375 133.512695312 c 0
 483.546875 127.291015625 484.434570312 118.706054688 484.434570312 109.677734375 c 2
 484.434570312 108.444335938 l 1
 483.920898438 107.315429688 l 2
 437.834960938 5.8896484375 406.783515273 -12 369.636015638 -12 c 0
 335.091500216 -12 326.710811559 4.8154296875 300.957121009 66.7822265625 c 2
 262.320448482 159.505859375 l 2
 261.721097304 158.846679688 261.104358805 158.111328125 260.361817926 157.2265625 c 2
 222.623149382 113.185546875 l 2
 193.753037263 79.712890625 116.396484375 -12 62.4345703125 -12 c 0
 56.7822265625 -12 51.716796875 -11.1943359375 47.2373046875 -9.5771484375 c 0
 -1.16796875 7.34765625 39.7607421875 98.9404296875 45.828125 115.102539062 c 0
 49.3671875 123.672851562 55.0068359375 138.500976562 65.53515625 140.58203125 c 0
 75.833984375 142.6171875 79.033203125 131.338867188 80.373046875 121.604492188 c 0
 82.404296875 108.819335938 83.5205078125 95.587890625 87.9580078125 85.2705078125 c 0
 90.1435546875 80.3583984375 92.7158203125 76.9775390625 95.3017578125 74.81640625 c 0
 119.580078125 54.5234375 182.672199955 121.510742188 199.285273649 139.948242188 c 2
 243.72522021 191.5625 l 2
 246.19933369 196.788085938 246.80482157 194.064453125 244.378778918 200.047851562 c 2
 193.072886182 319.157226562 l 2
 178.059446008 354.862304688 170.772112999 361 162.264599178 361 c 0
 148.318945062 361 136.134765625 348.844726562 98.6455078125 286.025390625 c 0
 91.1650390625 272.309570312 79.994140625 273.580078125 73.7587890625 278.255859375 c 0
 65.8349609375 284.595703125 64.759765625 296.538085938 69.2744140625 304.0625 c 0
 122.850585938 395.33984375 150.30109964 429 190.542519605 429 c 0
 226.38187904 429 243.692491135 404.767578125 267.635854749 345.127929688 c 2
 301.681251784 259.427734375 l 2
 304.207527227 261.6484375 305.968760552 263.817382812 307.983644205 266.51171875 c 0
 344.575772355 314.42578125 372.982563513 355.66796875 416.166015625 398.216796875 c 0
 434.188476562 416.240234375 457.869140625 427.4296875 479.502929688 427.515625 c 0
EndSplineSet
Validated: 524321
EndChar
StartChar: z
Encoding: 122 122 111
Width: 512
Flags: W
HStem: -11 66<294.701 386.066> 66 49.0527<94.8104 195.895> 365 62<150.69 244.684>
VStem: 17 53.6182<-11.2243 63.3728> 466.429 46.5713<372.83 413.229>
LayerCount: 2
Fore
SplineSet
173.721311475 365 m 0
 147.482581967 365 136.172851562 353.888671875 106.939453125 315.583007812 c 0
 101.233398438 306.452148438 89.3447265625 309.28125 83.3623046875 313.463867188 c 0
 77.44921875 317.59765625 74.025390625 326.3671875 80.208984375 334.612304688 c 0
 126.49609375 395.9921875 168.660860656 427 223.032786885 427 c 0
 262.692622951 427 296.447745902 410.211914062 326.875 393.2109375 c 0
 355.555327869 378.024414062 380.655737705 362 411 362 c 0
 441.89453125 362 457.819335938 375.234375 463.133789062 398.263671875 c 0
 463.946289062 402.325195312 464.0078125 407.17578125 466.428710938 413.228515625 c 2
 466.607421875 413.674804688 l 1
 466.85546875 414.086914062 l 2
 471.084960938 421.13671875 478.762695312 425 490 425 c 0
 504.5234375 425 513 414.690429688 513 400.78515625 c 0
 513 327.8515625 382.224385246 238.69921875 327.726434426 212.575195312 c 0
 291.787909836 195.010742188 246.735655738 176.63671875 203.953893443 155.444335938 c 0
 170.691598361 139.282226562 138.587090164 121.404296875 115.072265625 103.206054688 c 1
 136.424804688 112.065429688 152.795081967 115.052734375 177.918032787 115.052734375 c 0
 220.640368852 115.052734375 253.330942623 98.8447265625 280.762295082 84.234375 c 0
 306.282786885 70.4912109375 332.555327869 55 359.426229508 55 c 0
 386.267418033 55 409.618164062 67.255859375 433.987304688 104.297851562 c 2
 434.159179688 104.55859375 l 1
 434.356445312 104.799804688 l 2
 439.881835938 111.552734375 447.98046875 112.044921875 453.48828125 108.166992188 c 0
 459.680664062 103.805664062 464.559570312 93.4609375 458.931640625 85.58203125 c 0
 419.545898438 27.0078125 367.173155738 -11 322.704918033 -11 c 0
 286.31454918 -11 251.74795082 13.189453125 225.021516393 28.865234375 c 0
 191.558401639 47.802734375 156.994877049 66 117 66 c 0
 73.8076171875 66 73 50.873046875 73 34 c 0
 73 26.4755859375 74.3349609375 14.806640625 70.6181640625 4.8935546875 c 0
 66.5703125 -5.900390625 56.35546875 -12 40 -12 c 0
 26.236328125 -12 17 -0.943359375 17 12.228515625 c 0
 17 28.6064453125 32.755859375 59.724609375 51.2109375 83.572265625 c 0
 112.391601562 161.641601562 226.307377049 219.883789062 315.581967213 263.541992188 c 0
 357.513319672 283.876953125 383.517418033 297.334960938 403.762695312 309.80859375 c 0
 418.375 318.752929688 429.413085938 326.08984375 438.129882812 333.223632812 c 1
 369.027663934 304.10546875 326.194672131 310.349609375 287.883196721 324.696289062 c 0
 247.540983607 338.795898438 213.920081967 365 173.721311475 365 c 0
EndSplineSet
Validated: 524321
EndChar
StartChar: braceleft
Encoding: 123 123 112
Width: 415
Flags: W
HStem: -244 35.8213<345.203 360.566> 206.65 39.7842<63 123.953> 662.102 36.8525<295.098 361.615>
VStem: 150 88<-125.546 75.248 377.794 584.936> 173 85<-16.5653 140.812 315.021 463.134>
LayerCount: 2
Fore
SplineSet
139.301757812 226.583984375 m 1xe8
 139.68359375 226.396484375 l 2
 215.080078125 189.387695312 258 131.515625 258 62.091796875 c 0xe8
 258 7.6103515625 238 -42.4580078125 238 -94 c 0
 238 -150.715820312 273.055664062 -189.584960938 346.455078125 -208.178710938 c 0
 356.206054688 -210.6171875 360.876953125 -218.32421875 360.96484375 -225.661132812 c 0
 361.059570312 -233.536132812 356.107421875 -244 346 -244 c 2
 345.599609375 -244 l 1
 345.203125 -243.947265625 l 2
 230.639648438 -228.603515625 150 -142.326171875 150 -38 c 0xf0
 150 14.5908203125 173 62.5078125 173 111.619140625 c 0
 173 156.16015625 140.9375 191.396484375 78.544921875 206.650390625 c 0
 69.44921875 208.874023438 63 214.07421875 63 223.099609375 c 2
 63 233.856445312 l 2
 63 240.857421875 68.4931640625 245.216796875 74.716796875 246.434570312 c 0
 136.014648438 260.70703125 173 298.235351562 173 340.447265625 c 0xe8
 173 390.497070312 149 439.392578125 149 493 c 0
 149 598.33984375 230.662109375 684.629882812 345.255859375 698.954101562 c 0
 353.87109375 700.030273438 360.095703125 694.868164062 361.693359375 688.21875 c 0
 363.954101562 678.811523438 358.973632812 664.260742188 347.1015625 662.1015625 c 0
 276.0546875 648.4765625 238 607.654296875 238 550 c 0xf0
 238 498.440429688 258 447.41796875 258 393.908203125 c 0
 258 348.041015625 239.111328125 308.1328125 203.2421875 272.919921875 c 0
 180.98828125 251.073242188 165.8515625 240.461914062 137.36328125 228.4765625 c 0
 136.268554688 228.015625 136.200195312 227.950195312 136.200195312 227.950195312 c 2
 137.44140625 227.254882812 138.51171875 226.841796875 138.897460938 226.715820312 c 2
 139.301757812 226.583984375 l 1xe8
EndSplineSet
Validated: 524289
EndChar
StartChar: bar
Encoding: 124 124 113
Width: 531
Flags: W
HStem: -19 21G<230 300>
VStem: 230 70<-19 845>
LayerCount: 2
Fore
SplineSet
300 -19 m 1
 294 -19 l 1
 236 -19 l 1
 230 -19 l 1
 230 -13 l 1
 230 839 l 1
 230 845 l 1
 236 845 l 1
 294 845 l 1
 300 845 l 1
 300 839 l 1
 300 -13 l 1
 300 -19 l 1
EndSplineSet
Validated: 1
EndChar
StartChar: braceright
Encoding: 125 125 114
Width: 415
Flags: W
HStem: -243.956 36.9385<49.6933 120.46>
VStem: 155.996 86<-6.31397 136.8 313.451 473.003> 176.996 89<-126.674 75.889 382.448 581.475>
LayerCount: 2
Fore
SplineSet
242.99609375 114.57421875 m 2xc0
 242.779296875 108.50390625 l 2
 244.70703125 59.953125 265.99609375 14.435546875 265.99609375 -37 c 0
 265.99609375 -143.317382812 184.364257812 -229.625976562 69.71875 -243.956054688 c 0
 58.2021484375 -245.311523438 50.7236328125 -237.161132812 49.6376953125 -228.52734375 c 0
 48.3623046875 -218.380859375 55.3837890625 -208.248046875 68.3359375 -207.017578125 c 0
 139.853515625 -192.959960938 176.99609375 -152.376953125 176.99609375 -96 c 0xa0
 176.99609375 -43.5771484375 156.99609375 7.314453125 156.99609375 61.65234375 c 0
 156.99609375 106.454101562 175.891601562 146.236328125 211.752929688 181.352539062 c 0
 230.955078125 200.155273438 244.763671875 210.569335938 266.211914062 221.5703125 c 2
 266.508789062 221.72265625 l 1
 266.821289062 221.841796875 l 2
 271.900390625 223.776367188 276.432617188 225.919921875 277.708007812 226.68359375 c 1
 276.013671875 227.825195312 274.770507812 228.512695312 272.25390625 229.745117188 c 0
 198.870117188 267.669921875 155.99609375 324.310546875 155.99609375 392.623046875 c 0xc0
 155.99609375 419 162.10546875 444.680664062 166.0859375 469.041015625 c 0
 171.150390625 495.375 176.99609375 521.822265625 176.99609375 548 c 0xa0
 176.99609375 603.705078125 140.850585938 644.634765625 68.4306640625 664.208007812 c 2
 67.9833984375 664.329101562 l 1
 67.5595703125 664.517578125 l 2
 58.431640625 668.573242188 53.5908203125 675.427734375 53.52734375 682.657226562 c 0
 53.4501953125 691.461914062 60.15625 700 68.99609375 700 c 2
 69.4228515625 700 l 1
 69.8447265625 699.939453125 l 2
 184.322265625 683.5859375 264.99609375 598.357421875 264.99609375 494 c 0
 264.99609375 441.422851562 241.99609375 392.528320312 241.99609375 343.403320312 c 0
 241.99609375 296.15625 277.7421875 258.891601562 348.141601562 245.505859375 c 2
 348.946289062 245.352539062 l 1
 349.6796875 244.994140625 l 2
 355.245117188 242.272460938 359.068359375 235.82421875 360.721679688 229.333984375 c 0
 362.498046875 222.366210938 360.833007812 211.987304688 349.131835938 209.536132812 c 0
 280.635742188 198.052734375 242.99609375 158.73828125 242.99609375 114.57421875 c 2xc0
EndSplineSet
Validated: 524289
EndChar
StartChar: asciitilde
Encoding: 126 126 115
Width: 575
Flags: W
HStem: 237 83<409.496 530.654> 328 80<161.696 274.814>
LayerCount: 2
Fore
SplineSet
598.014648438 399.19921875 m 1
 598.001953125 398.799804688 l 2
 594.93359375 306.774414062 538.301757812 237 463.343042291 237 c 0
 419.738325207 237 380.843126198 251.681640625 307.416574788 289.743164062 c 0
 252.93445613 318.756835938 227.784300103 328 206.004882812 328 c 0
 164.715820312 328 132.813476562 295.235351562 128.98828125 244.548828125 c 2
 128.888671875 243.236328125 l 1
 128.25 242.0859375 l 2
 125.194335938 236.5859375 119.580078125 234.188476562 114.612304688 233.353515625 c 0
 107.389648438 232.139648438 93.6357421875 233.154296875 92.0654296875 244.151367188 c 2
 92 244.607421875 l 1
 92.0048828125 245.068359375 l 2
 93.0322265625 335.421875 153.818359375 408 230.855458144 408 c 0
 272.121267988 408 304.008949548 397.279296875 376.397463858 358.208984375 c 0
 427.475025367 330.338867188 457.990248022 320 481.004882812 320 c 0
 523.802734375 320 553.290039062 345.985351562 559.0390625 399.639648438 c 2
 559.108398438 400.283203125 l 1
 559.3125 400.897460938 l 2
 561.92578125 408.735351562 569.181640625 412.255859375 575.525390625 413.061523438 c 0
 583.711914062 414.1015625 596.815429688 411.196289062 597.974609375 399.596679688 c 2
 598.014648438 399.19921875 l 1
EndSplineSet
Validated: 524289
EndChar
StartChar: exclamdown
Encoding: 161 161 171
Width: 309
Flags: W
HStem: 302 123<191.011 264.254>
VStem: 59.9854 99.7266<-239.239 -172.076> 175.803 102.966<316.185 410.537>
LayerCount: 2
Fore
SplineSet
231.768554688 425 m 0
 259.952148438 425 278.768554688 400.170898438 278.768554688 369 c 0
 278.768554688 331.657226562 254.881835938 302 221.768554688 302 c 0
 184.4765625 302 172.633789062 338.30078125 175.802734375 363.65234375 c 0
 178.973632812 397.473632812 201.666015625 425 231.768554688 425 c 0
206.997070312 261.571289062 m 2
 212.848632812 259.23046875 220.005859375 254.073242188 218.728515625 241.303710938 c 2
 159.711914062 -199.822265625 l 2
 155.565429688 -228.848632812 147.029296875 -243 116.768554688 -243 c 2
 95.7685546875 -243 l 2
 87.6357421875 -243 80.869140625 -242.4375 75.1337890625 -240.884765625 c 0
 56.0302734375 -235.715820312 53.8984375 -219.467773438 59.9853515625 -197.401367188 c 2
 182.985351562 247.598632812 l 1
 183.09375 247.990234375 l 1
 183.25390625 248.36328125 l 2
 186.0234375 254.826171875 189.45703125 262 199.768554688 262 c 2
 204.768554688 262 l 1
 205.923828125 262 l 1
 206.997070312 261.571289062 l 2
EndSplineSet
Validated: 524321
EndChar
StartChar: cent
Encoding: 162 162 150
Width: 288
Flags: W
HStem: -23 21G<163.934 164.255> 338 86.3027<248.617 251.612 251.858 325.718> 623 20G<266.626 271.709>
VStem: 42 81<57.7355 212.346>
LayerCount: 2
Fore
SplineSet
107.68359375 -234.971679688 m 2
 104.16796875 -234.234375 l 2
 98.5185546875 -233.696289062 97.26953125 -234.006835938 93.7578125 -232 c 0
 90.806640625 -229.701171875 89.97265625 -226.095703125 91.08984375 -220.873046875 c 2
 127.107421875 -25.6904296875 l 2
 128.524414062 -13.7353515625 127.866210938 -15.1376953125 123.133789062 -13.9970703125 c 0
 72.4091796875 -6.8330078125 42 35.427734375 42 95 c 0
 42 212.040039062 117.353515625 360.288085938 205.049804688 409 c 2
 205.181640625 408.932617188 l 1
 205.31640625 409 l 2
 207.286132812 410.23828125 211.043945312 422.073242188 212.088867188 429.958007812 c 2
 249.076171875 633.889648438 l 2
 250.290039062 639.434570312 256.2265625 644.061523438 265.986328125 643 c 2
 266.625976562 642.893554688 l 1
 267.228515625 643 l 1
 271.708984375 640.936523438 l 2
 278.231445312 639.870117188 285.561523438 636.80859375 283.911132812 629.888671875 c 2
 247.893554688 432.6953125 l 2
 247.526367188 428.376953125 247.498046875 424.498046875 247.5 424.302734375 c 0
 248.844726562 424.30859375 249.849609375 424.483398438 251.698242188 425 c 2
 251.85546875 424.973632812 l 1
 252.013671875 425 l 2
 258.56640625 426.009765625 264.02734375 426 270 426 c 0
 304.375 426 331 412.5390625 331 385 c 0
 331 359.8671875 318.377929688 338 297 338 c 0
 281.756835938 338 270.93359375 341.989257812 245.078125 357.4765625 c 0
 238.62109375 360.544921875 235.908203125 360.319335938 235.908203125 360.319335938 c 2
 235.677734375 360.268554688 234.618164062 359.893554688 233.91015625 358.872070312 c 2
 175.91015625 47.0517578125 l 2
 175.21875 45.7685546875 175.740234375 45.0390625 175.856445312 44.9482421875 c 0
 176.397460938 44.7978515625 178.231445312 44.701171875 181.420898438 45.5771484375 c 2
 181.733398438 45.7978515625 l 1
 182.051757812 45.849609375 l 2
 204.860351562 49.361328125 232.915039062 66.58984375 261.346679688 99.6162109375 c 0
 267.22265625 109.026367188 275.258789062 107.53125 277.974609375 105.357421875 c 2
 286.599609375 98.599609375 l 2
 293.243164062 93.470703125 293.807617188 84.7236328125 288.444335938 79.201171875 c 0
 249.993164062 33.408203125 211.46484375 4.3310546875 172.943359375 -8.984375 c 0
 167.811523438 -11.62890625 164.555664062 -15.5556640625 163.954101562 -23 c 2
 163.93359375 -22.8408203125 l 1
 163.905273438 -23 l 1
 127.883789062 -222.880859375 l 2
 125.791992188 -229.708007812 120.548828125 -237.3046875 107.68359375 -234.971679688 c 2
198.341796875 356.61328125 m 1
 192.540039062 351.114257812 187.09375 344.251953125 182.192382812 335.890625 c 0
 151.002929688 284.920898438 123 172.791992188 123 106 c 0
 123 82.8642578125 128.861328125 66.8447265625 139.327148438 56.400390625 c 0
 139.75 56.4580078125 140.340820312 56.5078125 140.383789062 56.5107421875 c 0
 141.458007812 56.744140625 142.708984375 57.337890625 143.076171875 58.0341796875 c 2
 197.106445312 352.948242188 l 2
 197.688476562 354.534179688 198.241210938 356.17578125 198.341796875 356.61328125 c 1
EndSplineSet
Validated: 524289
EndChar
